<svg xmlns="http://www.w3.org/2000/svg" width="1407" height="387" viewBox="0 0 1407 387">
  <g fill="currentColor" fill-rule="evenodd" transform="translate(0 -1)">
    <g opacity=".304" transform="translate(175 .638)">
      <polygon points="844.354 363.18 853.893 363.18 853.893 225.123 844.354 225.123"/>
      <polygon points="964.697 241.504 949.999 241.504 949.999 363.18 973.299 363.18 973.299 341.385 988.998 341.385 988.998 219.712 964.697 219.712"/>
      <polygon points="1016.998 339.456 1035.633 339.456 1035.633 181.948 1016.998 181.948"/>
      <polygon points="1060.519 371.989 1079.998 371.989 1079.998 229.046 1060.519 229.046"/>
      <polygon points=".958 357.643 50.033 357.643 50.033 237.186 .958 237.186"/>
      <polygon points="1200.937 307.801 1200.937 264.148 1193.383 264.148 1193.383 363.18 1169.785 363.18 1169.785 259.855 1172.549 259.855 1172.549 257.304 1177.439 257.304 1177.439 259.855 1179.564 259.855 1179.564 257.304 1183.816 257.304 1183.816 259.855 1186.155 259.855 1186.155 257.304 1186.188 229.046 1165.253 229.006 1165.504 371.506 1176.964 371.989 1176.964 375.789 1231.678 375.789 1231.678 307.801"/>
      <polygon points="584.873 345.988 596.414 345.988 596.414 188.889 584.873 188.889"/>
      <polygon points="542.771 362.456 556.384 362.456 556.384 205.358 542.771 205.358"/>
      <polygon points="399.632 112.851 391.068 112.851 391.068 63.993 383.79 63.993 383.79 29.316 381.934 29.316 381.934 61.431 377.804 61.431 377.728 .362 375.921 .362 375.921 27.551 374.595 27.551 374.595 58.956 368.594 58.956 368.594 15.544 366.56 15.544 366.56 61.431 365.765 61.431 365.765 50.453 363.645 50.453 363.645 63.993 362.319 63.993 362.319 34.16 360.198 34.16 360.198 63.993 356.786 63.993 356.786 112.851 348.221 112.851 348.221 184.201 337.523 184.201 337.523 363.18 348.221 363.18 399.632 363.18 410.33 363.18 410.33 184.201 399.632 184.201"/>
    </g>
    <g opacity=".451" transform="translate(0 58.638)">
      <polygon points="1039.493 139.839 1039.493 147.434 1031.376 147.434 1031.376 152.883 1028.407 152.883 1028.407 303.318 1051.775 303.318 1051.775 163.429 1058.497 163.429 1058.497 154.401 1058.497 152.883 1058.497 148.676 1058.497 147.434 1058.497 139.839"/>
      <polygon points="411.531 151 389.525 151 389.525 133.77 369.86 133.77 369.86 151 347.854 151 347.854 154.935 345.62 154.935 345.62 118.178 304.424 118.178 304.424 133.454 304.424 135.514 303.41 135.514 303.41 139.26 304.424 139.26 305.189 139.26 305.189 145.252 307.343 145.252 307.343 161.267 311.111 161.267 311.111 305.18 317.72 305.18 317.72 144.189 319.421 144.189 319.421 141.952 324.736 141.952 324.736 137.976 332.603 137.976 332.603 144.189 334.091 144.189 334.091 203.846 337.647 203.846 337.647 203.903 386.44 203.903 386.44 198.147 393.505 198.147 393.505 192.913 396.907 192.913 396.907 190.297 400.962 190.297 400.962 186.895 403.579 186.895 403.579 190.297 404.233 190.297 404.233 165.178 406.326 165.178 406.326 190.297 411.559 190.297 411.559 192.913 413.653 192.913 413.653 198.147 415.484 198.147 415.484 203.903 419.838 203.903 419.838 172.614 421.738 172.614 421.738 154.935 411.531 154.935"/>
      <polygon points="265.632 189.939 263.451 189.939 263.451 188.115 259.987 188.115 259.987 189.939 257.807 189.939 257.807 188.115 254.343 188.115 254.343 189.939 252.161 189.939 252.161 188.115 248.7 188.115 248.7 189.939 248.481 189.939 248.481 295.772 268.552 295.772 268.552 188.115 265.632 188.115"/>
      <polygon points="850.983 133.129 824.997 133.129 824.997 143.001 839.103 143.001 839.103 154.184 839.103 161.505 839.103 305.179 811.251 305.179 811.251 312.728 872.905 312.728 872.905 312.602 854.378 312.602 854.378 226.162 872.905 226.162 872.905 162.051 863.87 162.051 863.87 156.947 872.905 156.947 872.905 154.184 850.983 154.184"/>
      <polygon points="612.868 143.576 602.702 143.576 602.702 156.885 585.414 156.885 585.414 313.982 621.991 313.982 621.991 311.111 641.28 311.111 641.28 305.18 612.868 305.18"/>
      <path d="M155.5391,153.147 L158.1621,153.147 L158.1621,148.653 L109.6541,148.653 L109.6541,146.217 L101.9761,146.217 L101.9761,148.653 L95.4211,148.653 L95.4211,153.147 L98.0431,153.147 L98.0431,166.631 L84.5591,166.631 L84.5591,207.247 L84.1071,207.247 L84.1071,208.669 L51.8981,208.669 L51.8981,258.61 L0.3471,258.61 L0.3471,309.127 L51.8981,309.127 L51.8981,310.144 L92.6111,310.144 L92.6111,308.281 L122.1831,308.281 L122.1831,307.5 L91.4191,307.5 L91.4191,261.152 L97.7051,261.152 L97.7051,255.381 L112.3191,255.381 L112.3191,250.252 L123.6861,250.252 L123.6861,247.9 L125.5201,247.9 L125.5201,246.617 L127.3531,246.617 L127.3531,244.906 L127.5581,244.906 L127.5581,240.525 L127.3531,240.525 L127.3531,238.174 L127.5631,238.174 C127.5641,235.277 129.7561,232.91 132.5391,232.689 L132.5391,217.439 L133.3771,217.439 L133.3771,232.689 C136.1601,232.91 138.3541,235.277 138.3541,238.174 L138.5641,238.174 L138.5641,240.525 L138.3591,240.525 L138.3591,244.906 L138.5641,244.906 L138.5641,246.617 L140.3971,246.617 L140.3971,247.9 L142.2301,247.9 L142.2301,250.252 L153.5981,250.252 L153.5981,255.381 L159.4341,255.381 L159.4341,187.525 L163.2941,187.525 L163.2941,166.631 L155.5391,166.631 L155.5391,153.147 Z"/>
      <polygon points="512.523 305.18 512.523 126.201 523.221 126.201 523.221 120.349 491.495 120.349 491.495 139.956 485.99 139.956 485.99 132.407 450.529 132.407 450.529 319.408 462.45 319.408 462.45 326.957 497.909 326.957 497.909 307.352 526.956 307.352 526.956 305.18 523.221 305.18"/>
      <polygon points="574.632 54.851 566.068 54.851 566.068 5.993 558.79 5.993 556.934 3.431 552.804 3.431 549.595 .956 543.594 .956 541.56 3.431 540.765 3.431 538.645 5.993 537.319 5.993 535.198 5.993 531.786 5.993 531.786 54.851 523.221 54.851 523.221 126.201 512.523 126.201 512.523 305.18 523.221 305.18 574.632 305.18 585.33 305.18 585.33 126.201 574.632 126.201"/>
    </g>
    <g opacity=".6" transform="translate(91 67.638)">
      <polygon points="1274.619 192.855 1274.619 190.304 1270.154 190.304 1270.154 192.855 1267.816 192.855 1267.816 190.304 1263.564 190.304 1263.564 192.855 1261.439 192.855 1261.439 190.304 1256.549 190.304 1256.549 192.855 1253.785 192.855 1253.785 296.18 1277.384 296.18 1277.384 192.855"/>
      <polygon points="663.133 104.698 646.124 104.698 646.124 110.748 640.384 110.748 640.384 296.18 668.873 296.18 668.873 110.748 663.133 110.748"/>
      <polygon points="1195.01 141.538 1189.783 141.538 1189.783 132.701 1176.477 132.701 1176.477 141.538 1171.248 141.538 1171.248 157.554 1164.597 157.554 1164.597 296.18 1200.532 296.18 1200.532 157.554 1195.01 157.554"/>
      <polygon points="916.319 53.845 913.653 53.845 913.653 50.177 907.987 50.177 907.987 53.845 905.819 53.845 905.819 42.511 897.737 42.511 897.737 35.511 894.903 35.511 894.903 42.511 886.819 42.511 886.819 53.845 884.653 53.845 884.653 50.177 878.987 50.177 878.987 53.845 876.319 53.845 876.319 123.429 863.987 123.429 863.987 226.433 832.121 226.433 832.121 260.384 800.431 260.384 800.431 217.162 763.378 217.162 763.378 303.602 800.431 303.602 800.431 302.073 861.33 302.073 861.33 297.594 890.538 297.594 890.538 296.179 916.319 296.179 928.653 296.179 928.653 123.429 916.319 123.429"/>
      <polygon points="241.602 128.977 233.736 128.977 233.736 132.953 228.421 132.953 228.421 135.188 226.72 135.188 226.72 301.144 243.09 301.144 243.09 296.69 233.427 296.69 233.427 210.342 233.427 203.276 233.427 194.903 243.09 194.903 243.09 135.188 241.602 135.188"/>
      <path d="M155.0249,1.0762 L154.9599,1.0922 C154.0329,-0.9608 143.2359,0.0682 130.5369,3.4442 C118.7099,6.5892 109.3339,10.6802 108.2839,13.0352 L108.1849,13.0612 L108.1849,19.8702 L104.2069,19.3522 L104.2069,31.7052 L100.3459,31.7052 L100.3459,77.2182 L94.2979,77.2182 L94.2979,79.2772 L91.5969,79.2772 L91.5969,127.3102 L72.2939,127.3102 L72.2939,178.5252 L68.4339,178.5252 L68.4339,246.3812 L62.5979,246.3812 L62.5979,241.2522 L51.2309,241.2522 L51.2309,238.9002 L49.3969,238.9002 L49.3969,237.6172 L47.5639,237.6172 L47.5639,235.9062 L47.3589,235.9062 L47.3589,231.5252 L47.5639,231.5252 L47.5639,229.1742 L47.3539,229.1742 C47.3539,226.2772 45.1599,223.9102 42.3779,223.6892 L42.3779,208.4382 L41.5399,208.4382 L41.5399,223.6892 C38.7559,223.9102 36.5639,226.2772 36.5629,229.1742 L36.3529,229.1742 L36.3529,231.5252 L36.5579,231.5252 L36.5579,235.9062 L36.3529,235.9062 L36.3529,237.6172 L34.5199,237.6172 L34.5199,238.9002 L32.6869,238.9002 L32.6869,241.2522 L21.3189,241.2522 L21.3189,246.3812 L6.7049,246.3812 L6.7049,252.1522 L0.4189,252.1522 L0.4189,298.5002 L83.4979,298.5002 L83.4979,297.9402 L100.3459,297.9402 L110.1269,297.9402 L157.4809,297.9402 L157.4809,36.8522 L157.4809,31.7052 L157.4809,26.3012 L155.0249,25.9802 L155.0249,1.0762 Z"/>
      <polygon points="365.586 106.939 353.474 106.939 353.474 113.27 345.51 113.27 345.51 163.614 356.286 163.614 356.286 284.072 345.51 284.072 345.51 293.94 359.529 293.94 359.529 123.406 373.549 123.406 373.549 113.27 365.586 113.27"/>
      <polygon points="328.838 284.072 356.286 284.072 356.286 163.614 328.838 163.614"/>
    </g>
    <g opacity=".75" transform="translate(268 154.638)">
      <polygon points="410.657 34.313 402.242 34.313 402.242 28.448 402.242 24.878 399.437 24.878 399.437 28.448 394.338 28.448 394.338 24.878 393.317 24.878 393.317 6.263 392.042 6.263 392.042 24.878 388.982 24.878 388.982 .399 387.962 .399 387.962 24.878 387.962 26.663 387.962 28.448 381.078 28.448 381.078 24.878 378.272 24.878 378.272 28.448 378.272 34.313 373.428 34.313 373.428 41.453 344.867 41.453 344.867 209.179 449.927 209.179 449.927 41.453 410.657 41.453"/>
      <polygon points="1061.242 61.321 1061.242 51.803 1059.15 51.803 1059.15 49.084 1049.48 49.084 1049.48 51.803 1033.538 51.803 1033.538 61.321 1033.538 65.4 1033.538 209.179 1071.434 209.179 1071.434 61.321"/>
      <polygon points="816.972 64.397 808.461 64.397 808.461 61.367 800.301 61.367 800.301 64.397 791.79 64.397 791.79 67.428 784.446 67.428 784.446 209.661 824.317 209.661 824.317 67.428 816.972 67.428"/>
      <polygon points="548.694 44.749 540.608 44.749 540.608 41.977 529.981 41.977 529.981 44.749 511.268 44.749 511.268 47.001 503.414 47.001 503.414 209.18 571.103 209.18 571.103 47.001 548.694 47.001"/>
      <polygon points="918.762 .334 915.256 .334 915.256 5.591 913.253 5.591 913.253 .334 908.244 .334 908.244 5.591 906.241 5.591 906.241 .334 902.485 .334 902.485 5.591 896.475 5.591 896.475 209.179 924.772 209.179 924.772 5.591 918.762 5.591"/>
      <polygon points="39.342 49.253 37.189 49.253 37.189 43.26 36.424 43.26 35.409 43.26 35.409 39.515 36.424 39.515 36.424 37.454 35.409 37.454 35.409 23.782 31.536 23.782 21.83 10.905 12.125 23.782 8.253 23.782 8.253 37.454 6.942 37.454 6.942 39.515 8.253 39.515 8.253 43.26 6.474 43.26 6.474 49.253 4.32 49.253 4.32 65.267 .552 65.267 .552 211.589 43.111 211.589 43.111 209.18 43.111 65.267 39.342 65.267"/>
      <polygon points="152.338 107.902 147.484 107.902 147.484 102.147 145.653 102.147 145.653 96.913 143.559 96.913 143.559 94.297 138.326 94.297 138.326 69.177 136.233 69.177 136.233 94.297 135.579 94.297 135.579 90.895 132.962 90.895 132.962 94.297 128.907 94.297 128.907 96.913 125.505 96.913 125.505 102.147 118.44 102.147 118.44 107.902 66.091 107.902 56.427 107.902 56.427 116.275 56.427 123.341 56.427 209.689 66.091 209.689 166.062 209.689 166.062 191.572 152.338 191.572"/>
    </g>
    <path d="M51.7432,351.5355 L52.1382,350.5945 C52.7092,352.1895 54.2312,353.3355 56.0262,353.3355 C58.3002,353.3355 60.1432,351.4985 60.1572,349.2265 C62.7262,349.9405 65.3862,350.4395 68.1182,350.6885 L68.1182,352.1695 C68.1182,352.5635 68.1912,352.9365 68.2952,353.2985 L68.2852,353.2985 L68.2852,362.9835 L51.7432,362.9835 L51.7432,351.5355 Z M34.5502,327.6695 C35.3062,326.9215 35.7742,325.8815 35.7742,324.7325 L35.7742,321.9145 L38.8512,320.6395 C40.4132,324.1605 42.5202,327.3785 45.0572,330.2065 L36.1492,330.2065 C35.5922,329.3775 35.0532,328.5355 34.5502,327.6695 L34.5502,327.6695 Z M31.6432,316.3065 C31.0722,316.3065 30.5292,316.4225 30.0352,316.6305 C29.6662,315.1815 29.3672,313.7015 29.1462,312.1985 C30.7752,311.6435 31.9492,310.1045 31.9492,308.2885 L31.9492,306.7305 L35.7372,306.7305 C35.8412,311.0405 36.6902,315.1635 38.1622,318.9775 L35.7482,319.9775 C35.5192,317.9135 33.7702,316.3065 31.6432,316.3065 L31.6432,316.3065 Z M30.0072,295.1415 C30.5092,295.3575 31.0612,295.4805 31.6432,295.4805 C33.8102,295.4805 35.5842,293.8105 35.7572,291.6885 L38.1622,292.6855 C36.6902,296.4985 35.8412,300.6205 35.7372,304.9315 L31.9492,304.9315 L31.9492,303.9895 C31.9492,302.1435 30.7392,300.5815 29.0692,300.0525 C29.2902,298.3825 29.6062,296.7455 30.0072,295.1415 L30.0072,295.1415 Z M37.0762,280.1125 C37.8152,280.8105 38.8102,281.2405 39.9092,281.2405 C41.6612,281.2405 43.1562,280.1475 43.7562,278.6065 L45.7952,280.6465 C42.9242,283.6615 40.5632,287.1655 38.8512,291.0215 L35.7742,289.7485 L35.7742,287.0525 C35.7742,285.8815 35.2852,284.8235 34.5032,284.0735 C35.2932,282.7065 36.1472,281.3815 37.0762,280.1125 L37.0762,280.1125 Z M51.8982,267.3065 C51.9512,269.5415 53.7752,271.3405 56.0262,271.3405 C56.3442,271.3405 56.6502,271.3005 56.9462,271.2315 L57.4432,272.4315 C53.5862,274.1435 50.0832,276.5035 47.0672,279.3735 L44.0402,276.3475 L44.0402,272.8115 C44.0402,272.7535 44.0342,272.6965 44.0312,272.6375 C46.4432,270.5895 49.0782,268.7985 51.8982,267.3065 L51.8982,267.3065 Z M63.9592,288.1615 C62.1772,288.9995 60.5402,290.0975 59.1022,291.4095 L47.9122,280.2195 C50.8182,277.4565 54.1882,275.1855 57.9002,273.5345 L63.9592,288.1615 Z M60.1582,267.2065 L60.1582,263.9655 C62.7222,263.2295 65.3832,262.7195 68.1182,262.4615 L68.1182,262.9315 C68.1182,264.9035 69.5022,266.5495 71.3512,266.9615 L71.3512,269.3155 C67.0422,269.4225 62.9202,270.2685 59.1062,271.7405 L58.5732,270.4565 C59.5362,269.6995 60.1582,268.5275 60.1582,267.2065 L60.1582,267.2065 Z M73.1512,342.3455 C77.4602,342.2405 81.5842,341.3915 85.3982,339.9205 L86.0722,341.5495 C85.0282,342.3005 84.3452,343.5215 84.3452,344.9065 L84.3452,347.6945 C81.7802,348.4315 79.1192,348.9435 76.3842,349.2015 L76.3842,347.8735 C76.3842,345.8975 75.0002,344.2525 73.1512,343.8405 L73.1512,342.3455 Z M73.1512,325.3245 C75.1562,325.2345 77.0802,324.8415 78.8822,324.1905 L84.9412,338.8175 C81.2672,340.2315 77.2992,341.0485 73.1512,341.1515 L73.1512,325.3245 Z M73.1512,310.3555 L78.6382,323.6005 C76.9112,324.2205 75.0692,324.5985 73.1512,324.6855 L73.1512,310.3555 Z M73.1512,286.9755 C75.0692,287.0645 76.9112,287.4405 78.6382,288.0615 L73.1512,301.3065 L73.1512,286.9755 Z M73.1512,270.5115 C77.2982,270.6145 81.2672,271.4315 84.9412,272.8445 L78.8822,287.4725 C77.0802,286.8195 75.1562,286.4275 73.1512,286.3355 L73.1512,270.5115 Z M73.1512,266.9625 C75.0002,266.5525 76.3842,264.9035 76.3842,262.9315 L76.3842,262.4615 C79.1192,262.7195 81.7802,263.2295 84.3452,263.9665 L84.3452,267.2065 C84.3452,268.5275 84.9672,269.6995 85.9302,270.4565 L85.3982,271.7415 C81.5842,270.2685 77.4602,269.4225 73.1512,269.3155 L73.1512,266.9625 Z M96.5922,280.2195 L85.4002,291.4105 C83.9622,290.0975 82.3272,289.0015 80.5452,288.1615 L86.6042,273.5355 C90.3142,275.1865 93.6862,277.4565 96.5922,280.2195 L96.5922,280.2195 Z M87.5572,271.2315 C87.8542,271.3005 88.1612,271.3405 88.4792,271.3405 C90.7272,271.3405 92.5542,269.5435 92.6062,267.3065 C94.9662,268.5565 97.1992,270.0145 99.2792,271.6605 C99.1732,272.0265 99.1122,272.4115 99.1122,272.8115 L99.1122,277.1095 C99.1122,277.2945 99.1292,277.4775 99.1532,277.6565 L97.4352,279.3745 C94.4202,276.5035 90.9172,274.1435 87.0612,272.4315 L87.5572,271.2315 Z M103.2472,281.2405 C104.7412,281.2405 106.0462,280.4445 106.7722,279.2565 C107.9502,280.7855 109.0292,282.3915 109.9982,284.0735 C109.2172,284.8235 108.7282,285.8815 108.7282,287.0525 L108.7282,289.7485 L105.6522,291.0215 C103.9382,287.1655 101.5782,283.6615 98.7082,280.6475 L99.8682,279.4855 C100.6162,280.5475 101.8482,281.2405 103.2472,281.2405 L103.2472,281.2405 Z M112.8612,295.4805 C113.4432,295.4805 113.9942,295.3595 114.4962,295.1415 C114.8972,296.7455 115.2132,298.3825 115.4342,300.0525 C113.7642,300.5815 112.5542,302.1435 112.5542,303.9895 L112.5542,304.9315 L108.7662,304.9315 C108.6602,300.6205 107.8132,296.4995 106.3412,292.6855 L108.7442,291.6895 C108.9192,293.8105 110.6922,295.4805 112.8612,295.4805 L112.8612,295.4805 Z M114.4692,316.6305 C113.9742,316.4225 113.4312,316.3065 112.8612,316.3065 C110.7332,316.3065 108.9852,317.9135 108.7562,319.9775 L106.3412,318.9765 C107.8132,315.1635 108.6602,311.0405 108.7662,306.7305 L112.5542,306.7305 L112.5542,308.2885 C112.5542,310.1045 113.7262,311.6435 115.3562,312.1965 C115.1372,313.7015 114.8382,315.1815 114.4692,316.6305 L114.4692,316.6305 Z M106.7302,332.4605 C105.9962,331.3105 104.7122,330.5445 103.2472,330.5445 C101.8812,330.5445 100.6732,331.2085 99.9212,332.2275 L98.7082,331.0145 C101.5782,327.9995 103.9382,324.4975 105.6522,320.6395 L108.7282,321.9145 L108.7282,324.7325 C108.7282,325.8815 109.1962,326.9215 109.9512,327.6695 C108.9832,329.3405 107.9052,330.9395 106.7302,332.4605 L106.7302,332.4605 Z M101.8462,347.3895 L98.1602,347.3895 L96.2002,343.9895 C96.9102,343.5415 97.6092,343.0785 98.2922,342.5945 L101.8462,347.3895 Z M88.1102,353.2985 L76.2082,353.2985 C76.3112,352.9365 76.3842,352.5635 76.3842,352.1695 L76.3842,350.6885 C79.1172,350.4395 81.7762,349.9405 84.3472,349.2275 C84.3592,351.3725 86.0102,353.1095 88.1102,353.2985 L88.1102,353.2985 Z M80.9162,323.3065 L87.0482,337.9185 C86.8992,337.9855 86.7532,338.0605 86.6042,338.1275 L80.5442,323.4985 C80.6712,323.4395 80.7912,323.3695 80.9162,323.3065 L80.9162,323.3065 Z M78.1442,316.6985 L80.6702,322.7185 C80.5462,322.7805 80.4272,322.8505 80.3012,322.9105 L76.6622,314.1285 L78.1442,316.6985 Z M89.9202,297.5385 C89.0812,295.7565 87.9852,294.1195 86.6742,292.6815 L97.8642,281.4915 C100.6252,284.3965 102.8962,287.7685 104.5482,291.4775 L89.9202,297.5385 Z M91.7452,304.9315 C91.6552,302.9275 91.2622,301.0025 90.6112,299.1995 L105.2372,293.1415 C106.6512,296.8145 107.4672,300.7825 107.5712,304.9315 L91.7452,304.9315 Z M90.6112,312.4615 C91.2622,310.6605 91.6552,308.7355 91.7452,306.7305 L107.5712,306.7305 C107.4672,310.8785 106.6512,314.8475 105.2372,318.5185 L90.6112,312.4615 Z M86.6742,318.9805 C87.9852,317.5415 89.0812,315.9065 89.9202,314.1235 L104.5482,320.1815 C102.8962,323.8935 100.6252,327.2645 97.8642,330.1705 L86.6742,318.9805 Z M91.9372,336.5955 C92.3682,336.3185 92.7932,336.0325 93.2122,335.7395 L97.4082,341.3995 C96.7702,341.8525 96.1212,342.2865 95.4592,342.7045 L91.9372,336.5955 Z M95.8202,347.3895 L95.8202,353.2985 L95.6822,353.2985 L92.6272,346.0165 C93.2502,345.6985 93.8672,345.3685 94.4742,345.0225 L95.8382,347.3895 L95.8202,347.3895 Z M92.3662,350.5915 L93.5022,353.2985 L88.9452,353.2985 C90.5312,353.1185 91.8462,352.0485 92.3662,350.5915 L92.3662,350.5915 Z M87.5092,339.0185 L88.2502,340.7845 C88.0742,340.7945 87.9002,340.8135 87.7302,340.8445 L87.0612,339.2315 C87.2122,339.1655 87.3592,339.0905 87.5092,339.0185 L87.5092,339.0185 Z M89.6182,336.6015 C89.3652,336.7445 89.1102,336.8845 88.8522,337.0195 L86.1592,330.5985 L89.6182,336.6015 Z M93.7342,343.7375 C93.3512,343.9545 92.9602,344.1595 92.5712,344.3645 C92.4092,343.1305 91.7042,342.0685 90.7012,341.4255 L89.3172,338.1245 C89.6172,337.9665 89.9182,337.8045 90.2162,337.6365 L93.7342,343.7375 Z M92.5012,334.7785 C92.1192,335.0465 91.7322,335.3065 91.3402,335.5595 L85.2472,324.9905 L92.5012,334.7785 Z M85.4002,320.2525 L96.5922,331.4435 C95.8012,332.1935 94.9732,332.9055 94.1182,333.5815 L84.6872,320.8565 C84.9262,320.6565 85.1702,320.4615 85.4002,320.2525 L85.4002,320.2525 Z M84.9492,319.8025 C84.7422,319.9905 84.5222,320.1655 84.3062,320.3445 L80.9162,315.7685 L84.9492,319.8025 Z M89.3302,313.8805 C88.5252,315.5855 87.4762,317.1485 86.2222,318.5275 L77.3862,309.6925 L76.9992,308.7725 L89.3302,313.8805 Z M76.7772,304.9315 L90.0202,299.4445 C90.6412,301.1705 91.0182,303.0145 91.1082,304.9315 L76.7772,304.9315 Z M91.1082,306.7305 C91.0182,308.6485 90.6412,310.4905 90.0202,312.2185 L76.7772,306.7305 L91.1082,306.7305 Z M99.2492,340.0145 C99.1732,340.0745 99.1002,340.1405 99.0242,340.2015 L94.8282,334.5405 C95.7312,333.8285 96.6032,333.0795 97.4352,332.2885 L99.1692,334.0215 C99.1342,334.2355 99.1122,334.4525 99.1122,334.6755 L99.1122,338.9725 C99.1122,339.3325 99.1632,339.6815 99.2492,340.0145 L99.2492,340.0145 Z M74.8142,301.9945 L80.3012,288.7525 C82.0052,289.5565 83.5702,290.6065 84.9492,291.8605 L74.8142,301.9945 Z M86.2222,293.1325 C87.4752,294.5115 88.5252,296.0775 89.3302,297.7825 L76.0872,303.2665 L86.2222,293.1325 Z M63.5862,323.3065 C63.7122,323.3695 63.8322,323.4395 63.9592,323.4985 L57.9002,338.1275 C57.7512,338.0605 57.6052,337.9865 57.4562,337.9185 L63.5862,323.3065 Z M51.7432,344.2635 L51.7432,342.0515 L54.2882,337.6365 C54.5842,337.8045 54.8852,337.9665 55.1872,338.1275 L53.8032,341.4255 C52.8002,342.0685 52.0942,343.1305 51.9322,344.3645 C51.8692,344.3315 51.8062,344.2965 51.7432,344.2635 L51.7432,344.2635 Z M51.7432,345.9445 C51.7882,345.9685 51.8312,345.9935 51.8772,346.0165 L51.7432,346.3365 L51.7432,345.9445 Z M52.0022,334.7805 L59.2572,324.9905 L53.1642,335.5605 C52.7702,335.3065 52.3852,335.0485 52.0022,334.7805 L52.0022,334.7805 Z M51.7432,336.0435 C52.0162,336.2285 52.2882,336.4165 52.5662,336.5955 L51.7432,338.0225 L51.7432,336.0435 Z M59.1022,320.2525 C59.3322,320.4625 59.5762,320.6565 59.8172,320.8565 L51.7432,331.7505 L51.7432,330.2065 L49.1502,330.2065 L59.1022,320.2525 Z M54.5832,314.1235 C55.4212,315.9065 56.5182,317.5415 57.8302,318.9805 L46.6402,330.1705 C43.8782,327.2645 41.6072,323.8935 39.9552,320.1815 L54.5832,314.1235 Z M52.7582,306.7305 C52.8482,308.7355 53.2422,310.6605 53.8922,312.4615 L39.2652,318.5215 C37.8502,314.8475 37.0362,310.8785 36.9312,306.7305 L52.7582,306.7305 Z M53.8922,299.1995 C53.2422,301.0025 52.8482,302.9275 52.7582,304.9315 L36.9312,304.9315 C37.0362,300.7825 37.8502,296.8145 39.2652,293.1405 L53.8922,299.1995 Z M54.5832,297.5365 L39.9552,291.4775 C41.6072,287.7665 43.8782,284.3965 46.6402,281.4915 L57.8302,292.6815 C56.5182,294.1195 55.4212,295.7565 54.5832,297.5365 L54.5832,297.5365 Z M68.4162,303.2665 L55.1732,297.7825 C55.9772,296.0775 57.0272,294.5115 58.2812,293.1325 L68.4162,303.2665 Z M69.6882,301.9945 L59.5542,291.8605 C60.9332,290.6065 62.4992,289.5565 64.2032,288.7525 L69.6882,301.9945 Z M71.3512,286.9755 L71.3512,301.3065 L65.8662,288.0615 C67.5932,287.4405 69.4332,287.0645 71.3512,286.9755 L71.3512,286.9755 Z M65.6202,287.4725 L59.5632,272.8445 C63.2362,271.4315 67.2032,270.6145 71.3512,270.5115 L71.3512,286.3355 C69.3482,286.4275 67.4232,286.8195 65.6202,287.4725 L65.6202,287.4725 Z M65.8652,323.6005 L71.3512,310.3555 L71.3512,324.6855 C69.4332,324.5985 67.5922,324.2205 65.8652,323.6005 L65.8652,323.6005 Z M65.6202,324.1905 C67.4232,324.8415 69.3482,325.2345 71.3512,325.3245 L71.3512,341.1515 C67.2032,341.0485 63.2362,340.2315 59.5612,338.8185 L65.6202,324.1905 Z M66.3592,316.6985 L67.8392,314.1325 L64.2032,322.9105 C64.0772,322.8505 63.9582,322.7805 63.8342,322.7185 L66.3592,316.6985 Z M53.3962,304.9315 C53.4862,303.0145 53.8632,301.1705 54.4832,299.4435 L67.7262,304.9315 L53.3962,304.9315 Z M67.7262,306.7305 L54.4832,312.2185 C53.8632,310.4905 53.4862,308.6485 53.3962,306.7305 L67.7262,306.7305 Z M63.5872,315.7665 L60.1962,320.3445 C59.9812,320.1655 59.7612,319.9905 59.5542,319.8025 L63.5872,315.7665 Z M58.2812,318.5275 C57.0272,317.1515 55.9772,315.5855 55.1732,313.8805 L67.5042,308.7715 L67.1182,309.6935 L58.2812,318.5275 Z M57.4432,339.2315 L56.7742,340.8445 C56.6042,340.8135 56.4302,340.7945 56.2542,340.7845 L56.9932,339.0195 C57.1432,339.0905 57.2902,339.1655 57.4432,339.2315 L57.4432,339.2315 Z M55.6512,337.0195 C55.3942,336.8845 55.1382,336.7445 54.8852,336.6015 L58.3462,330.5985 L55.6512,337.0195 Z M58.4302,341.5495 L59.1062,339.9205 C62.9202,341.3915 67.0422,342.2405 71.3512,342.3455 L71.3512,343.8415 C69.5022,344.2525 68.1182,345.8975 68.1182,347.8735 L68.1182,349.2015 C65.3832,348.9435 62.7222,348.4315 60.1582,347.6965 L60.1582,344.9065 C60.1582,343.5215 59.4752,342.2995 58.4302,341.5495 L58.4302,341.5495 Z M355.7582,353.4825 C366.8902,358.8845 375.6912,362.0445 382.3472,362.9835 L330.9602,362.9835 C337.5992,361.5935 345.8492,358.4925 355.7582,353.4825 L355.7582,353.4825 Z M670.3092,295.0445 L715.1252,295.0445 L715.1252,293.4985 L670.3092,293.4985 L670.3092,295.0445 Z M871.5362,334.2225 L872.8002,334.2225 L872.8002,333.2685 L873.0382,333.5225 C873.0432,333.6595 873.0302,333.7945 873.0202,333.9285 C873.0052,334.1155 873.0452,334.2225 873.0072,334.4025 C872.9562,334.6565 872.7012,334.7195 872.8942,335.2145 C872.9422,335.3325 872.8292,335.6515 872.8672,335.7685 C872.9122,335.9055 873.0522,335.8645 873.1282,335.9795 C873.3262,336.2815 873.5242,336.2355 873.6832,336.5715 C873.7442,336.6965 873.8572,336.7405 873.9152,336.5865 C873.9572,336.4695 873.9542,336.3285 873.9622,336.1965 C873.9952,335.6435 874.4732,335.4985 874.3642,335.1485 C874.3392,335.0635 874.3472,334.9935 874.3662,334.9315 L881.7322,342.7595 L881.3882,343.0825 L876.4502,347.7295 L876.3182,347.8545 L872.3182,343.6065 L872.3182,337.5895 L871.5362,337.5895 L871.5362,334.2225 Z M882.3222,344.0735 L885.5692,347.5235 L883.8542,349.1395 L877.7782,349.1395 L877.3862,348.7225 L882.3222,344.0735 Z M888.2612,338.4855 L891.5092,341.9345 L886.5702,346.5815 L883.3232,343.1315 L888.2612,338.4855 Z M894.1972,332.8945 L897.4462,336.3475 L892.5082,340.9935 L889.2612,337.5415 L894.1972,332.8945 Z M900.1352,327.3065 L903.3832,330.7565 L898.4462,335.4025 L895.1982,331.9535 L900.1352,327.3065 Z M906.0732,321.7155 L909.3202,325.1665 L904.3842,329.8135 L901.1362,326.3645 L906.0732,321.7155 Z M912.0112,316.1265 L915.2582,319.5775 L910.3202,324.2235 L907.0732,320.7735 L912.0112,316.1265 Z M917.9482,310.5385 L921.1952,313.9865 L916.2602,318.6365 L913.0122,315.1845 L917.9482,310.5385 Z M923.8862,304.9485 L927.1332,308.3975 L922.1952,313.0455 L918.9492,309.5945 L923.8862,304.9485 Z M928.1732,309.5025 L923.2362,314.1515 L922.8972,313.7905 L927.8342,309.1405 L928.1732,309.5025 Z M917.2992,319.7395 L916.9602,319.3805 L921.8962,314.7315 L922.2352,315.0935 L917.2992,319.7395 Z M911.3612,325.3285 L911.0212,324.9695 L915.9592,320.3215 L916.2982,320.6815 L911.3612,325.3285 Z M905.4242,330.9195 L905.0842,330.5595 L910.0212,325.9105 L910.3602,326.2725 L905.4242,330.9195 Z M899.4872,336.5095 L899.1462,336.1475 L904.0842,331.5015 L904.4232,331.8615 L899.4872,336.5095 Z M893.5492,342.0975 L893.2092,341.7365 L898.1462,337.0905 L898.4852,337.4495 L893.5492,342.0975 Z M887.6122,347.6855 L887.2712,347.3275 L892.2082,342.6785 L892.5482,343.0405 L887.6122,347.6855 Z M885.3462,349.1395 L886.2702,348.2685 L886.6102,348.6275 L886.0682,349.1395 L885.3462,349.1395 Z M872.3182,349.1395 L872.3182,344.5865 L875.8282,348.3145 L875.4512,348.6705 L874.9552,349.1395 L872.3182,349.1395 Z M980.1512,341.5155 L980.4912,341.1555 L983.6022,344.0855 L982.8812,344.0855 L980.1512,341.5155 Z M979.1502,340.5735 L974.2142,335.9275 L974.5532,335.5675 L979.4902,340.2145 L979.1502,340.5735 Z M973.2132,334.9855 L968.2762,330.3365 L968.6152,329.9755 L973.5532,334.6235 L973.2132,334.9855 Z M967.2752,329.3945 L962.3382,324.7485 L962.6782,324.3875 L967.6152,329.0345 L967.2752,329.3945 Z M961.3382,323.8065 L956.4012,319.1565 L956.7392,318.7985 L961.6782,323.4465 L961.3382,323.8065 Z M955.4002,318.2155 L950.4632,313.5685 L950.8022,313.2075 L955.7392,317.8565 L955.4002,318.2155 Z M949.4622,312.6275 L944.5252,307.9795 L944.8642,307.6185 L949.8022,312.2645 L949.4622,312.6275 Z M948.8132,303.4245 L953.7502,308.0715 L950.5032,311.5225 L945.5662,306.8735 L948.8132,303.4245 Z M954.7512,309.0145 L959.6872,313.6605 L956.4392,317.1115 L951.5032,312.4645 L954.7512,309.0145 Z M960.6882,314.6025 L965.6262,319.2515 L962.3782,322.6995 L957.4412,318.0525 L960.6882,314.6025 Z M966.6262,320.1925 L971.5622,324.8405 L968.3142,328.2905 L963.3792,323.6435 L966.6262,320.1925 Z M972.5632,325.7815 L977.5012,330.4315 L974.2522,333.8805 L969.3162,329.2325 L972.5632,325.7815 Z M978.5012,331.3725 L983.4382,336.0185 L980.1902,339.4695 L975.2542,334.8215 L978.5012,331.3725 Z M984.4382,336.9615 L989.3762,341.6075 L987.0442,344.0855 L985.0952,344.0855 L981.1902,340.4105 L984.4382,336.9615 Z M990.3762,342.5495 L992.0072,344.0855 L988.9302,344.0855 L990.3762,342.5495 Z M1406.6812,351.4205 L1309.8542,351.4205 L1309.8542,273.1635 L1307.1142,271.2655 L1293.6212,271.2655 L1293.6212,273.1635 L1290.6692,268.7355 L1281.6042,268.7355 L1281.6042,267.6815 L1277.4932,268.7355 L1272.5382,268.7355 L1272.5382,273.1635 L1261.1542,273.1635 L1261.1542,267.6815 L1248.9272,267.6815 L1248.9272,273.1635 L1245.1322,341.1435 L1240.1692,341.1435 L1240.1692,175.5555 L1236.8562,173.3465 L1210.0812,173.3465 L1210.0812,175.5555 L1206.7682,324.6565 L1200.2322,324.6565 L1200.2322,289.2815 L1196.8982,285.2325 L1195.9462,284.3405 L1194.5162,285.2325 L1192.3742,282.3765 L1190.2302,285.2325 L1187.8492,289.2815 L1185.2302,283.3285 L1155.2252,283.3285 L1155.2252,289.2815 L1143.0812,289.2815 L1143.0812,345.7605 L1135.4432,345.7605 L1135.4432,205.4275 L1126.7082,185.6925 L1124.9892,190.3075 L1115.8952,175.1505 L1115.9232,156.6685 L1113.2162,175.1505 L1104.1492,190.3055 L1102.4312,185.6925 L1095.1132,205.3615 L1093.6962,300.5815 L1083.2962,300.5815 L1083.2962,362.9835 L1076.8082,362.9835 L1076.8082,277.8865 L1076.5812,257.8735 L1058.9622,233.0465 L1058.9622,249.9915 L1056.3392,233.6545 L1042.0102,257.8735 L1041.9502,277.8865 L1041.9502,279.5065 L1041.9502,335.6435 L1026.3952,335.6435 L1026.3952,330.3695 L1025.6142,327.0025 L1026.8772,325.4385 L1025.6142,322.9105 L1020.5702,319.4575 C1021.0952,319.2595 1021.4682,318.7565 1021.4682,318.1635 C1021.4682,317.3975 1020.8472,316.7765 1020.0792,316.7765 C1019.3122,316.7765 1018.6902,317.3975 1018.6902,318.1635 C1018.6902,318.7225 1019.0212,319.1985 1019.4952,319.4195 L1015.7852,322.9105 L1014.5452,325.4385 L1013.2812,327.0025 L1014.5452,330.3695 L1013.7632,341.2315 L1002.1042,341.2315 L1002.1042,344.0855 L1002.1042,341.2315 L1004.2372,338.9685 C1004.1312,339.5315 1004.6082,339.6785 1004.6392,340.2315 C1005.7752,339.6855 1005.6602,339.3685 1005.7082,339.2485 C1005.9012,338.7525 1005.6472,338.6895 1005.5962,338.4385 C1005.5722,337.8285 1005.5582,337.6935 1005.5632,337.5565 L1005.4722,336.6735 L998.4952,344.0855 L993.9952,344.0855 L991.3102,341.5565 L998.3332,333.4095 C998.2252,333.9755 998.7032,334.1195 998.7362,334.6735 C999.8702,334.1275 999.7562,333.8095 999.8042,333.6895 C999.9982,333.1965 999.7422,333.1345 999.6922,332.8805 C999.6682,332.2695 999.6552,332.1365 999.6612,331.9985 L999.5692,331.1155 L990.4762,340.7735 L985.3732,335.9695 L992.4292,327.8505 C992.3222,328.4165 992.8002,328.5635 992.8322,329.1155 C993.9662,328.5715 993.8512,328.2515 993.8992,328.1315 C994.0932,327.6375 993.8392,327.5745 993.7882,327.3235 C993.7642,326.7145 993.7502,326.5785 993.7562,326.4395 L993.6652,325.5565 L984.5722,335.2145 L979.4352,330.3805 L986.5232,322.2945 C986.4172,322.8575 986.8952,323.0055 986.9282,323.5565 C988.0612,323.0125 987.9472,322.6925 987.9952,322.5735 C988.1882,322.0815 987.9342,322.0155 987.8842,321.7645 C987.8592,321.1555 987.8472,321.0195 987.8512,320.8845 L987.7602,319.9985 L978.6692,329.6565 L973.4982,324.7905 L980.6212,316.7355 C980.5142,317.3025 980.9912,317.4465 981.0222,317.9985 C982.1582,317.4535 982.0432,317.1365 982.0912,317.0155 C982.2842,316.5225 982.0302,316.4575 981.9792,316.2065 C981.9552,315.5975 981.9422,315.4615 981.9472,315.3245 L981.8562,314.4395 L972.7642,324.1005 L967.5602,319.1995 L974.7162,311.1775 C974.6082,311.7435 975.0862,311.8895 975.1192,312.4425 C976.2542,311.8945 976.1392,311.5775 976.1852,311.4575 C976.3802,310.9645 976.1262,310.9015 976.0752,310.6475 C976.0512,310.0385 976.0382,309.9025 976.0442,309.7655 L975.9522,308.8815 L966.8602,318.5415 L961.6232,313.6115 L968.8122,305.6195 C968.7052,306.1855 969.1832,306.3315 969.2152,306.8845 C970.3492,306.3395 970.2352,306.0195 970.2822,305.8985 C970.4752,305.4055 970.2222,305.3435 970.1712,305.0905 C970.1472,304.4815 970.1342,304.3475 970.1392,304.2075 L970.0492,303.3235 L960.9552,312.9825 L955.6842,308.0225 L962.9072,300.0605 C962.8002,300.6275 963.2782,300.7725 963.3102,301.3275 C964.4452,300.7805 964.3302,300.4615 964.3782,300.3435 C964.5712,299.8475 964.3172,299.7845 964.2662,299.5315 C964.2432,298.9245 964.2292,298.7885 964.2352,298.6515 L964.1432,297.7655 L955.0512,307.4245 L949.7472,302.4315 L948.7462,301.4905 L947.7012,302.3775 L944.5642,305.9315 L943.8642,306.6775 L982.1082,344.0855 L977.4602,344.0855 L977.4602,352.3875 L969.7812,352.3875 L969.7812,362.9835 L890.7092,362.9835 L890.7092,349.1395 L929.6452,308.8405 L928.9452,308.0945 L928.2452,307.3525 L924.8882,304.0065 L924.0632,302.9095 L922.9522,303.9565 L918.0142,308.6045 L908.5552,299.2905 L908.4642,300.1745 C908.4302,300.7695 908.4702,300.8725 908.4322,301.0565 C908.3822,301.3065 908.1282,301.3725 908.3212,301.8655 C908.3372,302.5565 908.4772,302.5155 908.5532,302.6315 C909.4202,302.2955 909.8982,302.1515 909.7892,301.7995 C909.7642,301.7155 917.1582,309.4105 917.1582,309.4105 L912.0772,314.1925 L902.6502,304.8475 L902.5592,305.7315 C902.5252,306.3275 902.5652,306.4315 902.5272,306.6145 C902.4762,306.8655 902.2232,306.9285 902.4172,307.4235 C902.4332,308.1145 902.5732,308.0745 902.6492,308.1885 C903.5152,307.8545 903.9942,307.7105 903.8862,307.3565 C903.8602,307.2725 911.2542,314.9685 911.2542,314.9685 L906.1392,319.7815 L896.7472,310.4055 L896.6552,311.2905 C896.6222,311.8865 896.6622,311.9895 896.6242,312.1735 C896.5732,312.4245 896.3192,312.4865 896.5132,312.9815 C896.5292,313.6735 896.6682,313.6315 896.7452,313.7485 C897.6122,313.4135 898.0902,313.2655 897.9812,312.9155 C897.9562,312.8315 905.3492,320.5265 905.3492,320.5265 L900.2022,325.3725 L890.8432,315.9645 L890.7522,316.8475 C890.7172,317.4425 890.7572,317.5485 890.7202,317.7295 C890.6692,317.9815 890.4142,318.0455 890.6072,318.5405 C890.6252,319.2315 890.7642,319.1895 890.8422,319.3065 C891.7072,318.9695 892.1852,318.8245 892.0782,318.4725 C892.0522,318.3875 899.4452,326.0825 899.4452,326.0825 L894.2642,330.9615 L884.9382,321.5225 L884.8472,322.4065 C884.8122,323.0015 884.8522,323.1045 884.8152,323.2885 C884.7642,323.5405 884.5112,323.6045 884.7042,324.0975 C884.7202,324.7905 884.8602,324.7485 884.9362,324.8645 C885.8042,324.5275 886.2812,324.3815 886.1732,324.0315 C886.1462,323.9465 893.5412,331.6405 893.5412,331.6405 L888.3272,336.5495 L879.0342,327.0785 L878.9432,327.9645 C878.9092,328.5595 878.9492,328.6635 878.9112,328.8475 C878.8602,329.0985 878.6062,329.1605 878.8002,329.6555 C878.8162,330.3475 878.9572,330.3065 879.0322,330.4205 C879.8992,330.0865 880.3772,329.9395 880.2692,329.5895 C880.2432,329.5055 887.6372,337.1995 887.6372,337.1995 L882.3892,342.1395 L873.1302,332.6395 L871.5362,330.1305 L866.4932,326.6775 C867.0172,326.4775 867.3902,325.9755 867.3902,325.3815 C867.3902,324.6155 866.7692,323.9935 866.0022,323.9935 C865.2362,323.9935 864.6142,324.6155 864.6142,325.3815 C864.6142,325.9395 864.9452,326.4165 865.4182,326.6375 L861.7092,330.1305 L860.4682,332.6565 L859.2042,334.2225 L860.4682,337.5895 L859.6852,349.8605 L858.9032,351.4245 L860.4682,352.3875 L850.9832,352.3875 L850.9832,338.8115 L840.5832,338.8115 L840.5832,321.2735 L821.4362,321.2735 L821.4362,316.5155 L821.7602,315.6105 L821.7602,314.6405 L821.7602,313.8475 L820.7252,314.6405 L820.3482,315.6105 L792.7232,302.9575 L792.7232,301.9495 L791.9102,301.2295 L790.0712,300.5815 L789.2422,301.9495 L788.4292,302.9575 L761.4722,315.6115 L760.8122,314.4975 L760.4352,313.7035 L759.4012,314.4975 L759.4012,315.4655 L759.4012,316.3725 L759.7152,321.2735 L740.5692,321.2735 L740.5692,354.2565 L720.9552,354.2565 L720.9552,295.0445 L719.1912,293.4985 L719.1912,292.6855 L670.3092,292.6045 L670.3092,285.9815 L658.3612,285.9815 L658.3612,295.0445 L658.3612,295.8175 L658.3612,330.8895 L651.3972,330.8895 L651.3972,322.6435 L645.7522,322.6435 L645.7522,289.0565 L648.9322,284.9165 L645.7522,282.2595 L628.3162,282.2595 L628.3162,279.3035 L624.3262,274.2805 L617.3822,274.2805 L617.3822,269.2565 L609.1092,269.2565 L609.1092,274.2805 L602.1632,274.2805 L602.1632,279.3035 L598.1742,282.2595 L580.7402,282.2595 L580.7402,284.9165 L577.5572,289.0565 L580.7402,339.6245 L571.5972,339.6245 L571.5972,362.9835 L560.0192,362.9835 L560.0192,266.5745 L557.0442,248.9265 L554.9462,238.0875 L541.9422,230.2975 L541.9422,228.6835 L540.3662,226.3785 L540.5092,224.3955 C540.7602,224.3955 540.8312,222.1655 540.6332,222.0665 C540.0972,221.3485 540.1602,221.1775 540.1602,220.9835 C539.3272,221.1775 539.5242,221.8675 539.5242,221.8675 C538.6572,222.1655 538.7282,224.3955 538.7282,224.3955 L539.1222,226.3785 L539.2272,228.2635 L537.5462,230.2975 L524.5412,238.0875 L524.5412,248.9265 L522.4432,266.5745 L519.4692,324.8985 L504.5422,324.8985 L504.5422,267.6315 L502.0802,260.9835 L489.7192,260.9835 L489.7192,267.6315 L487.3662,247.9075 L489.2502,243.9175 L487.3662,236.8255 L484.5962,232.3925 L482.3792,229.7335 L481.1602,226.1875 L478.7222,223.3065 L478.7222,219.9815 L477.8362,217.1005 L474.8992,215.1055 L473.1262,210.6735 L471.2432,215.1055 L469.4702,217.1005 L466.5332,219.9815 L465.6462,223.3065 L465.6462,226.1875 L463.2082,229.7335 L461.9902,232.3925 L459.7732,236.8255 L457.0032,243.9175 L455.1192,247.9075 L457.0032,267.6315 L454.6522,260.9835 L442.2902,260.9835 L442.2902,267.6315 L439.8262,348.9795 L403.3602,348.9795 L403.3602,362.9835 L389.6142,362.9835 C395.3812,361.8765 398.2482,357.6625 398.4762,350.3235 C398.9802,334.1715 379.9482,318.1755 355.8772,317.4255 C331.8072,316.6775 310.7372,333.8615 310.2342,350.0145 C310.0232,356.7595 312.4972,361.2165 317.7082,362.9835 L300.9212,362.9835 L300.9212,346.0895 L285.4582,346.0895 L285.4582,341.9525 L249.2112,341.9525 L249.2112,333.6775 L234.7862,319.3945 L234.7862,301.1725 L234.2862,319.8645 L220.4722,333.6775 L219.8612,341.9525 L183.6152,341.9525 L183.6152,346.0895 L168.1512,346.0895 L168.1512,362.9835 L145.4922,362.9835 L145.4922,347.3895 L104.3512,347.3895 L100.0852,341.6325 C100.8422,342.5325 101.9762,343.1065 103.2472,343.1065 C105.5282,343.1065 107.3782,341.2565 107.3782,338.9725 L107.3782,334.6755 C108.7482,332.3295 110.0342,330.4655 111.1782,328.5075 C115.1432,328.8685 116.9932,327.0165 116.9932,324.7325 L116.9932,320.4385 C116.9932,319.2855 116.5202,318.2455 115.7612,317.4955 C116.2042,315.8355 116.5692,314.1415 116.8222,312.4135 C119.0402,312.3415 120.8182,310.5235 120.8182,308.2885 L120.8182,303.9895 C120.8182,301.7785 119.0812,299.9795 116.9002,299.8685 C116.6462,297.9585 116.2732,296.0875 115.7892,294.2645 C116.5332,293.5145 116.9932,292.4855 116.9932,291.3475 L116.9932,287.0525 C116.9932,284.7665 115.1432,282.9185 112.8612,282.9185 C110.0762,281.2695 108.7782,279.3815 107.3452,277.6025 C107.3652,277.4405 107.3782,272.8115 107.3782,272.8115 C107.3782,270.5285 105.5282,268.6795 103.2472,268.6795 C101.8992,268.6795 100.7072,269.3265 99.9522,270.3225 C97.6702,268.5395 95.2152,266.9685 92.6112,265.6435 L92.6112,262.9115 C92.6112,260.6275 90.7602,258.7775 88.4792,258.7775 C86.3542,258.7775 84.6072,260.3805 84.3732,262.4435 C81.7952,261.7245 79.1262,261.2225 76.3842,260.9725 L76.3842,258.6355 C76.3842,256.3515 74.5342,254.5015 72.2532,254.5015 C69.9692,254.5015 68.1182,256.3515 68.1182,258.6355 L68.1182,260.9725 C65.3762,261.2225 62.7072,261.7245 60.1292,262.4435 C59.8972,260.3805 58.1492,258.7775 56.0262,258.7775 C53.7432,258.7775 51.8922,260.6275 51.8922,262.9115 L51.8922,265.6435 C48.9382,267.1435 46.1752,268.9625 43.6412,271.0505 C42.9802,269.6495 41.5592,268.6795 39.9092,268.6795 C37.6252,268.6795 35.7742,270.5285 35.7742,272.8115 L35.7742,277.1095 C35.7742,277.7415 35.9202,278.3375 36.1752,278.8735 C35.1272,280.2725 34.1582,281.7355 33.2752,283.2535 C29.3592,282.9185 27.5092,284.7665 27.5092,287.0525 L27.5092,291.3475 C27.5092,292.4855 27.9702,293.5155 28.7152,294.2645 C28.2302,296.0905 27.8572,297.9605 27.6042,299.8695 C25.4202,299.9805 23.6832,301.7805 23.6832,303.9895 L23.6832,308.2885 C23.6832,310.5235 25.4622,312.3405 27.6812,312.4135 C27.9342,314.1415 28.2982,315.8355 28.7422,317.4955 C27.9812,318.2455 27.5092,319.2855 27.5092,320.4385 L27.5092,324.7325 C27.5092,327.0165 29.3592,328.8685 31.6432,328.8685 C33.6622,329.0855 34.0242,329.6455 34.3872,330.2065 L20.1662,330.2065 L20.1662,362.9835 L0.0002,362.9835 L0.0002,387.6385 L1406.3172,387.6385 L1406.6812,351.4205 Z"/>
  </g>
</svg>
