<svg xmlns="http://www.w3.org/2000/svg" viewBox="0 0 1425.68 387.64"><defs><style>.cls-1{opacity:0.27;}.cls-2,.cls-3,.cls-7{fill:#231f20;}.cls-2{opacity:0.5;}.cls-3,.cls-4{opacity:0.7;}.cls-5{opacity:0.76;}.cls-6{opacity:0.6;}</style></defs><title>ChicagoSkyline_3</title><g id="_27" data-name="27"><g class="cls-1"><rect x="1038.35" y="225.76" width="9.54" height="138.06"/><polygon points="1158.7 242.14 1144 242.14 1144 363.81 1167.3 363.81 1167.3 342.02 1183 342.02 1183 220.35 1158.7 220.35 1158.7 242.14"/><rect x="1211" y="182.58" width="18.64" height="157.51"/><rect x="1254.52" y="229.68" width="19.48" height="142.94"/><rect x="438.84" y="231.25" width="27.45" height="120.46"/><rect x="194.96" y="237.82" width="49.08" height="120.46"/><polygon points="1394.94 308.44 1394.94 264.78 1387.38 264.78 1387.38 363.81 1363.79 363.81 1363.79 260.49 1366.55 260.49 1366.55 257.94 1371.44 257.94 1371.44 260.49 1373.56 260.49 1373.56 257.94 1377.82 257.94 1377.82 260.49 1380.15 260.49 1380.15 257.94 1380.19 257.94 1380.19 229.68 1359.25 229.64 1359.5 372.14 1370.96 372.63 1370.96 376.43 1425.68 376.43 1425.68 308.44 1394.94 308.44"/><rect x="778.87" y="189.52" width="11.54" height="157.1"/><rect x="736.77" y="205.99" width="13.61" height="157.1"/></g></g><g id="_50" data-name="50"><polygon class="cls-2" points="1058.49 198.47 1058.49 206.07 1050.38 206.07 1050.38 211.52 1047.41 211.52 1047.41 361.95 1070.78 361.95 1070.78 222.06 1077.5 222.06 1077.5 213.04 1077.5 211.52 1077.5 207.31 1077.5 206.07 1077.5 198.47 1058.49 198.47"/><polygon class="cls-2" points="430.53 209.64 408.52 209.64 408.52 192.41 388.86 192.41 388.86 209.64 366.85 209.64 366.85 213.57 364.62 213.57 364.62 176.81 323.42 176.81 323.42 192.09 323.42 194.15 322.41 194.15 322.41 197.9 323.42 197.9 324.19 197.9 324.19 203.89 326.34 203.89 326.34 219.9 330.11 219.9 330.11 363.81 336.72 363.81 336.72 202.82 338.42 202.82 338.42 200.59 343.74 200.59 343.74 196.61 351.6 196.61 351.6 202.82 353.09 202.82 353.09 262.48 356.65 262.48 356.65 262.54 405.44 262.54 405.44 256.78 412.5 256.78 412.5 251.55 415.91 251.55 415.91 248.93 419.96 248.93 419.96 245.53 422.58 245.53 422.58 248.93 423.23 248.93 423.23 223.81 425.33 223.81 425.33 248.93 430.56 248.93 430.56 251.55 432.65 251.55 432.65 256.78 434.48 256.78 434.48 262.54 438.84 262.54 438.84 231.25 440.74 231.25 440.74 213.57 430.53 213.57 430.53 209.64"/><polygon class="cls-2" points="284.63 248.57 282.45 248.57 282.45 246.75 278.99 246.75 278.99 248.57 276.81 248.57 276.81 246.75 273.34 246.75 273.34 248.57 271.16 248.57 271.16 246.75 267.7 246.75 267.7 248.57 267.48 248.57 267.48 354.41 287.55 354.41 287.55 246.75 284.63 246.75 284.63 248.57"/><polygon class="cls-2" points="869.98 191.76 844 191.76 844 201.64 858.1 201.64 858.1 212.82 858.1 220.14 858.1 363.81 830.25 363.81 830.25 371.36 891.9 371.36 891.9 371.24 873.38 371.24 873.38 284.8 891.9 284.8 891.9 220.69 882.87 220.69 882.87 215.58 891.9 215.58 891.9 212.82 869.98 212.82 869.98 191.76"/><polygon class="cls-2" points="631.87 202.21 621.7 202.21 621.7 215.52 604.41 215.52 604.41 372.62 640.99 372.62 640.99 369.75 660.28 369.75 660.28 363.81 631.87 363.81 631.87 202.21"/><path class="cls-2" d="M174.54,217.54h2.62V213H128.66v-2.44H121V213h-6.55v4.49H117V231H103.56v40.62h-.45v1.42H70.9V323H19.35v50.52H70.9v1h40.71v-1.86h29.57v-.78H110.42V325.54h6.29v-5.77h14.61v-5.13h11.37v-2.35h1.83V311h1.83V309.3h.21v-4.38h-.21v-2.35h.21a5.46,5.46,0,0,1,5-5.48V281.83h.84v15.25a5.46,5.46,0,0,1,5,5.48h.21v2.35h-.21v4.38h.21V311h1.83v1.28h1.83v2.35H172.6v5.13h5.84V251.92h3.86V231h-7.75Z" transform="translate(0 -5.75)"/><polygon class="cls-2" points="531.52 363.81 531.52 184.84 542.22 184.84 542.22 178.99 510.5 178.99 510.5 198.59 504.99 198.59 504.99 191.04 469.53 191.04 469.53 378.04 481.45 378.04 481.45 385.59 516.91 385.59 516.91 365.99 545.96 365.99 545.96 363.81 542.22 363.81 531.52 363.81"/></g><g id="_70" data-name="70"><polygon class="cls-3" points="1384.62 260.49 1384.62 257.94 1380.15 257.94 1380.15 260.49 1377.82 260.49 1377.82 257.94 1373.56 257.94 1373.56 260.49 1371.44 260.49 1371.44 257.94 1366.55 257.94 1366.55 260.49 1363.79 260.49 1363.79 363.81 1387.38 363.81 1387.38 260.49 1384.62 260.49"/><polygon class="cls-3" points="773.13 172.33 756.12 172.33 756.12 178.38 750.38 178.38 750.38 363.81 778.87 363.81 778.87 178.38 773.13 178.38 773.13 172.33"/><polygon class="cls-3" points="1305.01 209.17 1299.78 209.17 1299.78 200.34 1286.48 200.34 1286.48 209.17 1281.25 209.17 1281.25 225.19 1274.6 225.19 1274.6 363.81 1310.53 363.81 1310.53 225.19 1305.01 225.19 1305.01 209.17"/><polygon class="cls-3" points="1026.32 121.48 1023.65 121.48 1023.65 117.81 1017.99 117.81 1017.99 121.48 1015.82 121.48 1015.82 110.15 1007.74 110.15 1007.74 103.15 1004.9 103.15 1004.9 110.15 996.82 110.15 996.82 121.48 994.65 121.48 994.65 117.81 988.99 117.81 988.99 121.48 986.32 121.48 986.32 191.06 973.99 191.06 973.99 294.07 942.12 294.07 942.12 328.02 910.43 328.02 910.43 284.8 873.38 284.8 873.38 371.24 910.43 371.24 910.43 369.71 971.33 369.71 971.33 365.23 1000.54 365.23 1000.54 363.81 1026.32 363.81 1038.65 363.81 1038.65 191.06 1026.32 191.06 1026.32 121.48"/><polygon class="cls-3" points="351.6 196.61 343.74 196.61 343.74 200.59 338.42 200.59 338.42 202.82 336.72 202.82 336.72 368.78 353.09 368.78 353.09 364.32 343.43 364.32 343.43 277.98 343.43 270.91 343.43 262.54 353.09 262.54 353.09 202.82 351.6 202.82 351.6 196.61"/><path class="cls-3" d="M265,74.47l-.07,0c-.93-2.05-11.72-1-24.42,2.35-11.83,3.14-21.2,7.24-22.25,9.59l-.1,0v6.81l-4-.52V105.1h-3.86v45.51h-6v2.06h-2.7v48H182.3v51.22h-3.86v67.86H172.6v-5.13H161.23v-2.35H159.4V311h-1.83V309.3h-.21v-4.38h.21v-2.35h-.21a5.46,5.46,0,0,0-5-5.48V281.83h-.84v15.25a5.46,5.46,0,0,0-5,5.48h-.21v2.35h.21v4.38h-.21V311h-1.83v1.28h-1.83v2.35H131.32v5.13H116.71v5.77h-6.29v46.35H193.5v-.56h74V99.69L265,99.37Z" transform="translate(0 -5.75)"/><polygon class="cls-3" points="475.59 174.57 463.47 174.57 463.47 180.91 455.51 180.91 455.51 231.25 466.29 231.25 466.29 351.71 455.51 351.71 455.51 361.57 469.53 361.57 469.53 191.04 483.55 191.04 483.55 180.91 475.59 180.91 475.59 174.57"/><polygon class="cls-4" points="593.63 113.49 585.07 113.49 585.07 64.63 577.79 64.63 577.79 29.95 576.93 29.95 576.93 62.07 571.8 62.07 571.73 0 570.92 0 570.92 28.19 569.6 28.19 569.6 59.59 562.59 59.59 562.59 12.18 560.56 12.18 560.56 62.07 558.76 62.07 558.76 45.09 557.64 45.09 557.64 64.63 556.32 64.63 556.32 31.8 555.2 31.8 555.2 64.63 550.79 64.63 550.79 113.49 542.22 113.49 542.22 184.84 531.52 184.84 531.52 363.81 542.22 363.81 593.63 363.81 604.33 363.81 604.33 184.84 593.63 184.84 593.63 113.49"/></g><g id="_76" data-name="76"><polygon class="cls-5" points="697.66 188.95 689.24 188.95 689.24 183.08 689.24 179.51 686.44 179.51 686.44 183.08 681.34 183.08 681.34 179.51 680.32 179.51 680.32 160.9 679.04 160.9 679.04 179.51 675.98 179.51 675.98 155.03 674.96 155.03 674.96 179.51 674.96 181.3 674.96 183.08 668.08 183.08 668.08 179.51 665.27 179.51 665.27 183.08 665.27 188.95 660.43 188.95 660.43 196.09 631.87 196.09 631.87 363.81 736.93 363.81 736.93 196.09 697.66 196.09 697.66 188.95"/><polygon class="cls-5" points="1348.24 215.96 1348.24 206.44 1346.15 206.44 1346.15 203.72 1336.48 203.72 1336.48 206.44 1320.54 206.44 1320.54 215.96 1320.54 220.04 1320.54 363.81 1358.43 363.81 1358.43 215.96 1348.24 215.96"/><polygon class="cls-6" points="1103.97 219.03 1095.46 219.03 1095.46 216 1087.3 216 1087.3 219.03 1078.79 219.03 1078.79 222.06 1071.44 222.06 1071.44 364.3 1111.32 364.3 1111.32 222.06 1103.97 222.06 1103.97 219.03"/><polygon class="cls-5" points="835.69 199.38 827.61 199.38 827.61 196.61 816.98 196.61 816.98 199.38 798.27 199.38 798.27 201.64 790.41 201.64 790.41 363.81 858.1 363.81 858.1 201.64 835.69 201.64 835.69 199.38"/><polygon class="cls-5" points="1205.76 154.97 1202.26 154.97 1202.26 160.23 1200.25 160.23 1200.25 154.97 1195.24 154.97 1195.24 160.23 1193.24 160.23 1193.24 154.97 1189.48 154.97 1189.48 160.23 1183.47 160.23 1183.47 363.81 1211.77 363.81 1211.77 160.23 1205.76 160.23 1205.76 154.97"/><polygon class="cls-5" points="326.34 203.89 324.19 203.89 324.19 197.9 323.42 197.9 322.41 197.9 322.41 194.15 323.42 194.15 323.42 192.09 322.41 192.09 322.41 178.42 318.54 178.42 308.83 165.54 299.13 178.42 295.25 178.42 295.25 192.09 293.94 192.09 293.94 194.15 295.25 194.15 295.25 197.9 293.47 197.9 293.47 203.89 291.32 203.89 291.32 219.9 287.55 219.9 287.55 366.23 330.11 366.23 330.11 363.81 330.11 219.9 326.34 219.9 326.34 203.89"/><polygon class="cls-5" points="439.34 262.54 434.48 262.54 434.48 256.78 432.65 256.78 432.65 251.55 430.56 251.55 430.56 248.93 425.33 248.93 425.33 223.81 423.23 223.81 423.23 248.93 422.58 248.93 422.58 245.53 419.96 245.53 419.96 248.93 415.91 248.93 415.91 251.55 412.5 251.55 412.5 256.78 405.44 256.78 405.44 262.54 353.09 262.54 343.43 262.54 343.43 270.91 343.43 277.98 343.43 364.32 353.09 364.32 453.06 364.32 453.06 346.21 439.34 346.21 439.34 262.54"/></g><g id="_100" data-name="100"><rect class="cls-7" x="1189.23" y="281.18" width="5.24" height="2"/><path class="cls-7" d="M1417.68,368.74V357.17h-88.83V278.92h-2.74V277h-13.49v1.9h-3v-4.43h-9.06v-1.05h-4.11v1.05h-5v4.43h-11.38v-5.48h-12.23v5.48h-3.79v68h-5V181.31h-3.31V179.1h-26.78v2.21h-3.31v149.1h-6.54V295h-3.33v-4h-1v-.89h-1.43V291h-2.14v-2.86h-2.14V291h-2.38v4h-2.62v-6h-30v6h-12.14v56.48h-7.64V211.18h-1.38l0-.07-7.32-19.67-1.72,4.62-9.09-15.16h0V162.42h-2.71V180.9h0l-9.09,15.15-1.72-4.61-7.32,19.67,0,.07h-1.38v95.15h-10.4v62.4h-6.49l-.23-105.11-17.33,17.27L1061,263.63,1061,341.4H1045.4v-5.27h-.78v-3.37h1.26v-1.56h-1.26v-2.53h-1.26l-3.78-3.45a1.39,1.39,0,1,0-1.08,0l-3.71,3.49h-1.24v2.53h-1.26v1.56h1.26v3.37h-.78V347h-11.66v2.85h-2.69l2.69-2.85,2.13-2.26a.36.36,0,0,1,0,.21c-.11.35.37.5.4,1a1.42,1.42,0,0,0,0,.39c.06.16.17.11.23,0,.16-.34.36-.29.56-.59.08-.12.22-.08.26-.21s-.08-.44,0-.56c.19-.5-.06-.56-.11-.81a25,25,0,0,0,0-.88l.4-.42-.17-.16-.08-.07-.25-.23-7,7.41H1013l-2.68-2.53L1010,347l7.37-7.83a.34.34,0,0,1,0,.21c-.11.35.37.5.4,1a1.44,1.44,0,0,0,0,.39c.06.15.17.11.23,0,.16-.34.36-.29.56-.59.08-.12.22-.08.26-.21s-.08-.43,0-.55c.19-.49-.06-.56-.11-.81a31.38,31.38,0,0,0,0-.88l.4-.42-.17-.16-.07-.07-.25-.23-9.09,9.66-.17-.16-4.94-4.65-.31-.29,7.37-7.83a.34.34,0,0,1,0,.21c-.11.35.37.5.4,1.05a1.49,1.49,0,0,0,0,.39c.06.15.17.11.23,0,.16-.34.36-.29.56-.59.08-.12.22-.07.26-.21s-.08-.44,0-.56c.19-.49-.06-.56-.11-.81a3.37,3.37,0,0,1,0-.48,3.29,3.29,0,0,1,0-.41l.4-.42-.17-.16-.08-.07-.24-.23-9.09,9.66-.2-.19-4.94-4.65-.28-.26,7.37-7.82a.34.34,0,0,1,0,.21c-.11.35.37.5.4,1a1.47,1.47,0,0,0,0,.39c.06.15.17.11.23,0,.16-.33.36-.29.56-.59.08-.11.22-.08.26-.21s-.08-.44,0-.56c.19-.49-.06-.56-.11-.81a3.34,3.34,0,0,1,0-.47,3.77,3.77,0,0,1,0-.41l.4-.42-.17-.16L1007,326l-.25-.23-9.09,9.66-.23-.22-4.94-4.65-.25-.23,7.37-7.82a.35.35,0,0,1,0,.21c-.11.35.37.5.4,1a1.5,1.5,0,0,0,0,.39c.06.16.17.11.23,0,.16-.33.36-.29.56-.59.08-.12.22-.07.26-.21s-.08-.44,0-.56c.19-.49-.06-.56-.11-.81a3.5,3.5,0,0,1,0-.48,3.47,3.47,0,0,1,0-.41l.4-.42-.17-.16-.08-.07-.24-.23-9.09,9.66-.27-.25L986.56,325l-.21-.2,7.37-7.83a.35.35,0,0,1,0,.21c-.11.35.37.5.4,1.05a1.45,1.45,0,0,0,0,.39c.06.15.17.11.23,0,.16-.34.36-.29.56-.59.08-.12.22-.08.26-.21s-.08-.43,0-.55c.19-.49-.06-.56-.11-.81a30,30,0,0,0,0-.88l.4-.42-.17-.16-.08-.07-.24-.23-9.09,9.66-.3-.28-4.94-4.65-.18-.17,7.37-7.82a.35.35,0,0,1,0,.21c-.11.35.37.5.4,1.05a1.48,1.48,0,0,0,0,.39c.06.15.17.11.23,0,.16-.33.36-.29.56-.59.08-.11.22-.08.26-.21s-.08-.44,0-.56c.19-.49-.06-.56-.11-.81a3.49,3.49,0,0,1,0-.48,3.69,3.69,0,0,1,0-.41l.4-.42-.17-.16-.08-.07-.24-.23L980,318.73l-.33-.31-4.94-4.65-.14-.14,7.37-7.83a.35.35,0,0,1,0,.22c-.11.35.37.5.4,1.05a1.44,1.44,0,0,0,0,.39c.06.15.17.11.23,0,.16-.33.36-.29.56-.59.08-.11.22-.07.26-.21s-.08-.44,0-.56c.19-.5-.06-.56-.11-.81a3.48,3.48,0,0,1,0-.47,3.28,3.28,0,0,1,0-.41l.4-.42-.17-.16-.07-.07-.25-.23-9.09,9.66-.37-.35-4.94-4.65-1-.94-.11-.1-.93,1,.11.11-3.25,3.45-.11-.1-.7.74.11.11-.34.36-.11-.11-.36.38,39.06,36.77h-4.65v8.3h-7.68v10.6H909.71V354.89h-3.87l42.8-40.3-.36-.38-.11.1-.34-.36.11-.11-.7-.74-.11.1-3.25-3.45.11-.1-.93-1-.11.11-1,.94L937,314.36l-.37.34L927.56,305l-.24.23-.07.07-.17.16.4.42a3.29,3.29,0,0,1,0,.41,3.45,3.45,0,0,1,0,.47c-.05.25-.3.32-.11.81,0,.12-.07.44,0,.56s.19.09.26.21c.2.3.4.26.56.59.06.13.17.17.23,0a1.45,1.45,0,0,0,0-.39c0-.56.51-.7.4-1.05a.34.34,0,0,1,0-.21l7.37,7.83-.14.13-4.94,4.65-.33.31-9.09-9.66-.24.23-.07.07-.17.16.4.42a3.24,3.24,0,0,1,0,.41,3.36,3.36,0,0,1,0,.48c-.05.25-.3.31-.11.81,0,.12-.07.44,0,.56s.19.09.26.21c.2.3.4.26.56.59.06.13.17.17.23,0a1.55,1.55,0,0,0,0-.39c0-.55.51-.7.4-1a.35.35,0,0,1,0-.21l7.37,7.82-.18.17-4.94,4.65-.3.28-9.09-9.66-.25.23-.08.07-.17.16.4.42a3.48,3.48,0,0,1,0,.41,3.36,3.36,0,0,1,0,.48c-.05.25-.3.31-.11.81,0,.12-.07.44,0,.56s.18.09.26.21c.2.3.4.25.56.59.06.13.17.17.23,0a1.45,1.45,0,0,0,0-.39c0-.55.51-.7.4-1a.36.36,0,0,1,0-.22l7.37,7.83-.21.2-4.94,4.65-.27.25-9.09-9.66-.24.23-.08.07-.17.16.4.42a3.26,3.26,0,0,1,0,.4,3.54,3.54,0,0,1,0,.48c-.05.25-.31.32-.11.81,0,.12-.07.44,0,.55s.18.1.26.21c.2.3.4.25.56.59.06.13.17.17.23,0a1.55,1.55,0,0,0,0-.39c0-.55.51-.7.4-1a.35.35,0,0,1,0-.21l7.37,7.82-.25.23-4.94,4.65-.23.22-9.09-9.66-.25.23-.07.07-.17.16.4.42a3.52,3.52,0,0,1,0,.41,3.65,3.65,0,0,1,0,.47c-.05.25-.3.32-.11.81,0,.12-.07.44,0,.56s.19.1.26.21c.2.3.4.25.56.59.06.13.17.17.23,0a1.39,1.39,0,0,0,0-.39c0-.55.51-.7.4-1a.34.34,0,0,1,0-.21l7.37,7.82-.28.26-4.94,4.65-.2.19L898,332.83l-.25.23-.07.07-.17.16.4.42a3.26,3.26,0,0,1,0,.41,3.36,3.36,0,0,1,0,.48c-.05.25-.3.31-.11.81,0,.12-.07.44,0,.56s.19.1.26.21c.2.3.4.26.56.59.06.13.17.17.23,0a1.44,1.44,0,0,0,0-.39c0-.55.51-.7.4-1.05a.35.35,0,0,1,0-.22l7.37,7.83-.31.29-4.94,4.65-.17.16-9.09-9.66-.25.23-.08.07h0v-.29h-1.26v-2.53h-1.26l-3.78-3.45a1.39,1.39,0,1,0-1.08,0l-3.71,3.49h-1.24v2.53h-1.26V340h1.26v3.37h-.78v12.27h-.78v1.56h1.56v1H870V344.56h-10.4V327H840.44v-4.76h.32V319.6h-1v.79h-.38v1h-.66l-27-12.66v-1h-.81V307h-.83v-.65h-1V307h-.83v.72h-.81v1l-27,12.65v-.15h-.66v-1h-.38v-.79h-1v2.67h.31V327H759.57v33H740V300.8h-1.76v-2.44H689.31v-6.62H677.36v44.91h-7V328.4h-5.65V294.81h3.18v-4.14h-3.18V288H647.32v-3h-4v-5h-6.94v-5h-8.27v5h-6.95v5h-4v3H599.74v2.66h-3.18v4.14h3.18v50.57H590.6v23.36H579V272.33h-3V254.68h-2.1V243.84l-13-7.79v-1.61h-1.31l0-.25-.35-.17.11-1.88.14-2h.25a9.45,9.45,0,0,0-.13-2.33,4.05,4.05,0,0,0-.67-.2v-.27l0-.14a.74.74,0,0,0,.16-.48c0-.34-.19-.61-.42-.61s-.42.27-.42.61a.74.74,0,0,0,.16.48l0,.14v.27a4,4,0,0,0-.67.2,9.45,9.45,0,0,0-.13,2.33H558l.14,2,.1,1.88-.35.17,0,.25h-1.31V236l-13,7.79v10.84h-2.1v17.65h-3v58.32H523.55V273.38h-2.46v-6.65H508.72v6.65h-2.35V253.66h1.88v-4h-1.88v-7.09H503.6v-4.43h-2.22v-2.66h-1.22v-3.55h-2.44v-6.21h-.89v-2.88H493.9v-2h-1.77v-4.43h-1.88v4.43h-1.77v2h-2.94v2.88h-.89v6.21h-2.44v3.55H481v2.66h-2.22v4.43H476v7.09h-1.88v4H476v19.72h-2.35v-6.65H461.29v6.65h-2.46v81.35H422.36v14H408.62c5.77-1.11,8.63-5.32,8.86-12.66.5-16.15-18.53-32.15-42.6-32.9s-45.14,16.44-45.64,32.59c-.21,6.74,2.26,11.2,7.47,13H319.92V351.84H304.46V347.7H268.21v-8.28h-.14l-14.28-14.28V306.92h-.5v18.69l-13.81,13.81h-.61v8.28H202.62v4.14H187.15v16.89H164.49V353.14H123.35l-4.27-5.76a4.13,4.13,0,0,0,7.29-2.66v-4.3a4.2,4.2,0,0,0,0-.59,45.38,45.38,0,0,0,3.85-5.58,4.13,4.13,0,0,0,5.81-3.77v-4.29a4.12,4.12,0,0,0-1.23-2.94,44.76,44.76,0,0,0,1.06-5.08,4.13,4.13,0,0,0,4-4.12v-4.3a4.13,4.13,0,0,0-3.92-4.12,44.92,44.92,0,0,0-1.11-5.6,4.13,4.13,0,0,0,1.2-2.92v-4.3a4.13,4.13,0,0,0-5.77-3.8,45,45,0,0,0-3.88-5.65,4.09,4.09,0,0,0,0-.49v-4.3a4.13,4.13,0,0,0-7.43-2.49,45.22,45.22,0,0,0-7.34-4.68v-2.73a4.13,4.13,0,0,0-8.24-.47,44.87,44.87,0,0,0-8-1.47v-2.34a4.13,4.13,0,1,0-8.27,0v2.34a44.87,44.87,0,0,0-8,1.47,4.13,4.13,0,0,0-8.24.47v2.73a45.07,45.07,0,0,0-8.25,5.41,4.13,4.13,0,0,0-7.87,1.76v4.3a4.1,4.1,0,0,0,.4,1.76,45.32,45.32,0,0,0-2.9,4.38,4.14,4.14,0,0,0-5.77,3.8v4.3A4.12,4.12,0,0,0,47.72,300a44.81,44.81,0,0,0-1.11,5.61,4.13,4.13,0,0,0-3.92,4.12V314a4.13,4.13,0,0,0,4,4.13,44.87,44.87,0,0,0,1.06,5.08,4.12,4.12,0,0,0-1.23,2.94v4.29a4.13,4.13,0,0,0,5.82,3.77c.34.58.7,1.14,1.06,1.7H39.17v32.78H0v24.65H1417.32V368.74ZM1009.38,348.3l1.63,1.54h-3.08Zm-5.94-5.59,4.94,4.65-2.33,2.48h-1.95l-3.9-3.67Zm-5.94-5.59,4.94,4.65-3.25,3.45-4.94-4.65Zm-5.94-5.59,4.94,4.65-3.25,3.45L988.32,335Zm-5.94-5.59,4.94,4.65L987.32,334l-4.94-4.65Zm-5.94-5.59,4.94,4.65-3.25,3.45-4.94-4.65Zm-5.94-5.59,4.94,4.65-3.25,3.45-4.94-4.65Zm-5.94-5.59,4.94,4.65-3.25,3.45-4.94-4.65Zm.65,9.2-4.94-4.65.34-.36L968.8,318ZM974.4,324l-4.94-4.65.34-.36,4.94,4.65Zm5.94,5.59-4.94-4.65.34-.36,4.94,4.65Zm5.94,5.59-4.94-4.65.34-.36,4.94,4.65Zm5.94,5.59-4.94-4.65.34-.36,4.94,4.65Zm5.94,5.59-4.94-4.65.34-.36,4.94,4.65Zm1,.94.34-.36,3.11,2.93h-.72Zm-107.83,7.62v-4.55l3.51,3.73-.38.36-.5.47Zm13,0,.92-.87.34.36-.54.51Zm2.27-1.45-.34-.36,4.94-4.65.34.36Zm5.94-5.59-.34-.36,4.94-4.65.34.36Zm5.94-5.59-.34-.36,4.94-4.65.34.36Zm5.94-5.59-.34-.36,4.94-4.65.34.36Zm5.94-5.59-.34-.36,4.94-4.65.34.36Zm5.94-5.59-.34-.36,4.94-4.65.34.36Zm10.87-10.24-4.94,4.65-.34-.36,4.94-4.65Zm-4.29-4.55,3.25,3.45-4.94,4.65L938,315.35ZM937,316.29l3.25,3.45-4.94,4.65L932,320.94ZM931,321.88l3.25,3.45L929.32,330l-3.25-3.45Zm-5.94,5.59,3.25,3.45-4.94,4.65-3.25-3.45Zm-5.94,5.59,3.25,3.45-4.94,4.65-3.25-3.45Zm-5.94,5.59,3.25,3.45-4.94,4.65-3.25-3.45Zm-5.94,5.59,3.25,3.45-4.94,4.65-3.25-3.45Zm-5.94,5.59,3.25,3.45-1.71,1.62h-6.08l-.39-.42ZM890.54,340h1.26v-1l.24.25a3.7,3.7,0,0,1,0,.41,3.3,3.3,0,0,1,0,.47c-.05.25-.31.32-.11.81,0,.12-.07.44,0,.55s.18.1.26.21c.2.3.4.26.56.59.06.13.17.17.23,0a1.44,1.44,0,0,0,0-.39c0-.55.51-.7.4-1a.35.35,0,0,1,0-.22l7.37,7.83-.34.32-4.94,4.65-.13.13-4-4.25v-6h-.78ZM689.31,299.25h44.82v1.55H689.31Zm-314.55,60c11.13,5.4,19.93,8.56,26.59,9.5H350C356.6,367.35,364.85,364.25,374.76,359.23ZM77.43,347.3l.68-1.63a36.4,36.4,0,0,0,12.25,2.42v1.5a4.13,4.13,0,0,0-3.23,4V355a43.76,43.76,0,0,1-8-1.5v-2.79A4.13,4.13,0,0,0,77.43,347.3Zm-2.78-4.53-.77-.42,3.46-6ZM76.45,345l-.67,1.61a4.32,4.32,0,0,0-.52-.06l.74-1.76Zm.84-20.7a18.83,18.83,0,0,1-3.11-4.65l12.33-5.11-.39.92Zm5.31-2.76L79.2,326.1c-.21-.18-.43-.35-.64-.54Zm4.14-9L73.49,318a18.83,18.83,0,0,1-1.09-5.49Zm-14.33-1.8a18.82,18.82,0,0,1,1.09-5.49l13.24,5.49Zm13,11.77,1.48-2.57-3.64,8.78-.37-.19Zm-.74,7.49a19.43,19.43,0,0,0,5.73,1.13V346.9a35.23,35.23,0,0,1-11.79-2.33Zm.24-.59,5.49-13.25v14.33A18.77,18.77,0,0,1,84.87,329.35Zm-.24-36.13L78.57,278.6a35.21,35.21,0,0,1,11.79-2.33v15.82A19.4,19.4,0,0,0,84.62,293.23Zm5.73-.5v14.33l-5.48-13.25A18.74,18.74,0,0,1,90.35,292.73Zm-1.66,15L78.56,297.61a18.9,18.9,0,0,1,4.65-3.11ZM87.42,309l-13.24-5.48a18.9,18.9,0,0,1,3.11-4.65Zm-13.83-5.73L59,297.23a35.37,35.37,0,0,1,6.69-10l11.19,11.19A19.54,19.54,0,0,0,73.59,303.29ZM72.9,305a19.42,19.42,0,0,0-1.13,5.73H55.93a35.21,35.21,0,0,1,2.33-11.79Zm-1.13,7.53a19.39,19.39,0,0,0,1.13,5.73l-14.63,6.06a35.23,35.23,0,0,1-2.33-11.79Zm1.83,7.39a19.54,19.54,0,0,0,3.25,4.86L65.64,335.92a35.37,35.37,0,0,1-6.69-10ZM78.11,326c.23.21.47.4.71.6L70.75,337.5V336H68.15ZM70.75,341.8l.82.55-.82,1.43Zm.26-1.26,7.25-9.79-6.09,10.57C71.77,341.06,71.39,340.8,71,340.53Zm-.26,11.16.13.07-.13.32Zm0-1.68V347.8l2.55-4.42.9.49-1.38,3.3a4.13,4.13,0,0,0-1.87,2.94Zm11.84-21,.37.19L76.9,343.88l-.44-.21Zm22.64-30.17a18.9,18.9,0,0,1,3.11,4.65L95.09,309Zm-11.41,8.86L99.3,294.5a18.9,18.9,0,0,1,4.65,3.11Zm24.43,38L118,346l-4.2-5.66c.9-.71,1.78-1.46,2.61-2.25l1.73,1.73a4,4,0,0,0-.06.65v4.3A4.15,4.15,0,0,0,118.25,345.77Zm-8.14-33.28A18.81,18.81,0,0,1,109,318l-13.24-5.49Zm-14.33-1.8L109,305.2a18.79,18.79,0,0,1,1.09,5.49Zm12.55,8.95a18.86,18.86,0,0,1-3.11,4.65l-8.84-8.83-.39-.92ZM104,325.55c-.21.19-.43.36-.64.54l-3.39-4.58Zm.45.45,11.19,11.19c-.79.75-1.62,1.46-2.47,2.14l-9.43-12.72C103.93,326.41,104.17,326.21,104.4,326Zm7.1,14.53q-.57.4-1.16.78l-6.09-10.57Zm1.23,9c-.38.22-.77.42-1.16.63a4.13,4.13,0,0,0-1.87-2.94l-1.38-3.3.9-.49Zm-4.12-7.14-.77.42-2.69-6.42Zm-2.11,2.42.74,1.77a4.31,4.31,0,0,0-.52.06l-.67-1.61Zm4.86,11.57,1.14,2.71h-4.56A4.13,4.13,0,0,0,111.37,356.34Zm3.45-3.2v5.91h-.14l-3.06-7.28q.94-.48,1.85-1l1.36,2.37Zm-3.88-10.79q.65-.41,1.27-.86l4.2,5.66q-1,.68-1.95,1.3Zm-5.26-17.61a19.6,19.6,0,0,0,3.25-4.86l14.63,6.06a35.39,35.39,0,0,1-6.68,10Zm3.94-6.52a19.42,19.42,0,0,0,1.13-5.73h15.83a35.2,35.2,0,0,1-2.33,11.79Zm1.13-7.53a19.45,19.45,0,0,0-1.13-5.73l14.63-6.06a35.2,35.2,0,0,1,2.33,11.79Zm-1.83-7.39a19.58,19.58,0,0,0-3.25-4.86l11.19-11.19a35.43,35.43,0,0,1,6.68,10ZM97.15,322.45l2.53,6-.37.19-3.64-8.78Zm2.77,6.61,6.13,14.61-.44.21-6.06-14.63Zm7.19,30H95.21a4.09,4.09,0,0,0,.18-1.13v-1.48a45.1,45.1,0,0,0,8-1.46A4.12,4.12,0,0,0,107.11,359.05Zm13.74-5.91h-3.69l-2-3.4c.71-.45,1.41-.91,2.09-1.4Zm4.88-14.93a4.13,4.13,0,0,0-6.81-.23l-1.21-1.21a36.6,36.6,0,0,0,6.94-10.37l3.08,1.27v2.82a4.12,4.12,0,0,0,1.22,2.94A43.63,43.63,0,0,1,125.73,338.21Zm7.74-15.83a4.13,4.13,0,0,0-5.71,3.35l-2.41-1a36.44,36.44,0,0,0,2.43-12.25h3.79V314a4.13,4.13,0,0,0,2.8,3.91A43.22,43.22,0,0,1,133.47,322.38Zm-1.61-21.15a4.09,4.09,0,0,0,1.64-.34,44.11,44.11,0,0,1,.94,4.91,4.13,4.13,0,0,0-2.88,3.94v.94h-3.79a36.43,36.43,0,0,0-2.43-12.25l2.4-1A4.13,4.13,0,0,0,131.86,301.23ZM122.25,287a4.13,4.13,0,0,0,3.52-2,43.49,43.49,0,0,1,3.23,4.82,4.12,4.12,0,0,0-1.27,3v2.7l-3.08,1.27a36.58,36.58,0,0,0-6.94-10.37l1.16-1.16A4.12,4.12,0,0,0,122.25,287Zm-15.69-10a4.11,4.11,0,0,0,5-3.92,43.75,43.75,0,0,1,6.67,4.35,4.11,4.11,0,0,0-.17,1.15v4.3a4.06,4.06,0,0,0,0,.55l-1.72,1.72a36.57,36.57,0,0,0-10.37-6.94Zm9,9L104.4,297.16a19.58,19.58,0,0,0-4.86-3.25l6.06-14.63A35.36,35.36,0,0,1,115.59,286ZM92.15,272.71a4.13,4.13,0,0,0,3.23-4v-.47a43.71,43.71,0,0,1,8,1.5V273a4.12,4.12,0,0,0,1.58,3.25l-.53,1.29a36.44,36.44,0,0,0-12.25-2.43Zm0,3.55a35.23,35.23,0,0,1,11.79,2.33l-6.06,14.63a19.39,19.39,0,0,0-5.73-1.14Zm0,16.46a18.75,18.75,0,0,1,5.49,1.09l-5.49,13.25Zm0,23.38,5.49,13.25a18.78,18.78,0,0,1-5.49,1.08Zm0,15a19.42,19.42,0,0,0,5.73-1.13l6.06,14.63a35.21,35.21,0,0,1-11.79,2.33Zm0,17a36.41,36.41,0,0,0,12.25-2.42l.67,1.63a4.13,4.13,0,0,0-1.73,3.36v2.79a43.62,43.62,0,0,1-8,1.51v-1.33a4.13,4.13,0,0,0-3.23-4ZM79.16,273v-3.24a43.77,43.77,0,0,1,8-1.5v.47a4.13,4.13,0,0,0,3.23,4v2.35a36.45,36.45,0,0,0-12.25,2.42l-.53-1.28A4.12,4.12,0,0,0,79.16,273Zm3.8,21a19.56,19.56,0,0,0-4.86,3.25L66.92,286a35.35,35.35,0,0,1,10-6.68ZM70.9,273.06a4.13,4.13,0,0,0,4.13,4,4.07,4.07,0,0,0,.92-.11l.5,1.2a36.61,36.61,0,0,0-10.38,6.94l-3-3v-3.54c0-.06,0-.12,0-.17A43.79,43.79,0,0,1,70.9,273.06ZM56.08,285.86a4.13,4.13,0,0,0,6.68-1.51l2,2a36.56,36.56,0,0,0-6.94,10.38l-3.08-1.27v-2.7a4.12,4.12,0,0,0-1.27-3A43.89,43.89,0,0,1,56.08,285.86Zm-7.07,15a4.13,4.13,0,0,0,5.75-3.45l2.4,1a36.36,36.36,0,0,0-2.42,12.25H51v-.94a4.13,4.13,0,0,0-2.88-3.94A44.1,44.1,0,0,1,49,300.89Zm1.64,21.16a4.14,4.14,0,0,0-1.61.32,43.78,43.78,0,0,1-.89-4.43A4.13,4.13,0,0,0,51,314v-1.56h3.79a36.39,36.39,0,0,0,2.42,12.25l-2.41,1A4.13,4.13,0,0,0,50.65,322.06Zm2.91,11.36a4.12,4.12,0,0,0,1.22-2.94v-2.82l3.08-1.27A36.51,36.51,0,0,0,64.06,336H55.15C54.6,335.13,54.06,334.29,53.55,333.42Zm17.19,23.87.4-.94a4.13,4.13,0,0,0,8-1.37,45,45,0,0,0,8,1.46v1.48a4.09,4.09,0,0,0,.18,1.13h0v9.69H70.75Z" transform="translate(0 -5.75)"/><polygon class="cls-7" points="1095.33 256.37 1078.71 240.55 1078.71 247.49 1077.09 247.49 1077 240.64 1061 256.48 1078.25 273.14 1095.33 256.37"/></g></svg>