<svg xmlns="http://www.w3.org/2000/svg" xmlns:xlink="http://www.w3.org/1999/xlink" width="1418" height="394" viewBox="0 0 1418 394">
  <defs>
    <polygon id="chiskyline-a" points="0 231 1417.317 231 1417.317 .03 0 .03 0 231"/>
  </defs>
  <g fill="none" fillRule="evenodd" transform="translate(0 -1)">
    <g fill="currentColor" opacity=".27" transform="translate(194 188.482)">
      <polygon points="844.354 182.18 853.893 182.18 853.893 44.123 844.354 44.123"/>
      <polygon points="964.697 60.504 949.999 60.504 949.999 182.179 973.299 182.179 973.299 160.386 988.998 160.386 988.998 38.712 964.697 38.712"/>
      <polygon points="1016.998 158.456 1035.633 158.456 1035.633 .948 1016.998 .948"/>
      <polygon points="1060.519 190.989 1079.998 190.989 1079.998 48.046 1060.519 48.046"/>
      <polygon points="244.838 170.072 272.286 170.072 272.286 49.614 244.838 49.614"/>
      <polygon points=".958 176.643 50.033 176.643 50.033 56.186 .958 56.186"/>
      <polygon points="1189.93 126.801 1189.93 83.148 1182.377 83.148 1182.377 182.18 1158.779 182.18 1158.779 78.855 1161.542 78.855 1161.542 76.304 1166.433 76.304 1166.433 78.855 1168.558 78.855 1168.558 76.304 1172.81 76.304 1172.81 78.855 1175.148 78.855 1175.148 76.304 1175.182 76.304 1175.182 48.046 1154.246 48.006 1154.497 190.506 1165.957 190.989 1165.957 194.789 1204.662 194.789 1204.662 126.801"/>
      <polygon points="584.873 164.988 596.414 164.988 596.414 7.889 584.873 7.889"/>
      <polygon points="542.771 181.456 556.384 181.456 556.384 24.358 542.771 24.358"/>
    </g>
    <g fill="currentColor" opacity=".5" transform="translate(19 183.482)">
      <polygon points="1038.387 21.839 1038.387 29.434 1031.08 29.434 1031.08 34.883 1028.408 34.883 1028.408 185.318 1049.444 185.318 1049.444 45.429 1055.494 45.429 1055.494 36.401 1055.494 34.883 1055.494 30.676 1055.494 29.434 1055.494 21.839"/>
      <polygon points="411.531 33.001 389.525 33.001 389.525 15.771 369.86 15.771 369.86 33.001 347.854 33.001 347.854 36.934 345.62 36.934 345.62 .178 304.424 .178 304.424 15.454 304.424 17.515 303.41 17.515 303.41 21.259 304.424 21.259 305.189 21.259 305.189 27.253 307.343 27.253 307.343 43.267 311.111 43.267 311.111 187.179 317.72 187.179 317.72 26.189 319.421 26.189 319.421 23.953 324.736 23.953 324.736 19.977 332.603 19.977 332.603 26.189 334.091 26.189 334.091 85.847 337.647 85.847 337.647 85.903 386.44 85.903 386.44 80.147 393.505 80.147 393.505 74.913 396.907 74.913 396.907 72.296 400.962 72.296 400.962 68.895 403.579 68.895 403.579 72.296 404.233 72.296 404.233 47.178 406.326 47.178 406.326 72.296 411.559 72.296 411.559 74.913 413.653 74.913 413.653 80.147 415.484 80.147 415.484 85.903 419.838 85.903 419.838 54.614 421.738 54.614 421.738 36.934 411.531 36.934"/>
      <polygon points="265.632 71.939 263.451 71.939 263.451 70.115 259.987 70.115 259.987 71.939 257.807 71.939 257.807 70.115 254.343 70.115 254.343 71.939 252.161 71.939 252.161 70.115 248.7 70.115 248.7 71.939 248.481 71.939 248.481 177.772 268.552 177.772 268.552 70.115 265.632 70.115"/>
      <polygon points="850.983 15.129 824.997 15.129 824.997 25.001 839.103 25.001 839.103 36.184 839.103 43.505 839.103 187.179 811.251 187.179 811.251 194.728 872.905 194.728 872.905 194.602 854.378 194.602 854.378 108.162 872.905 108.162 872.905 44.051 863.87 44.051 863.87 38.947 872.905 38.947 872.905 36.184 850.983 36.184"/>
      <polygon points="612.868 25.576 602.702 25.576 602.702 38.885 585.414 38.885 585.414 195.982 621.991 195.982 621.991 193.111 641.28 193.111 641.28 187.18 612.868 187.18"/>
      <path d="M155.5391,35.147 L158.1621,35.147 L158.1621,30.653 L109.6541,30.653 L109.6541,28.217 L101.9761,28.217 L101.9761,30.653 L95.4211,30.653 L95.4211,35.147 L98.0431,35.147 L98.0431,48.631 L84.5591,48.631 L84.5591,89.247 L84.1071,89.247 L84.1071,90.669 L51.8981,90.669 L51.8981,140.61 L0.3471,140.61 L0.3471,191.127 L51.8981,191.127 L51.8981,192.144 L92.6111,192.144 L92.6111,190.281 L122.1831,190.281 L122.1831,189.5 L91.4191,189.5 L91.4191,143.152 L97.7051,143.152 L97.7051,137.381 L112.3191,137.381 L112.3191,132.252 L123.6861,132.252 L123.6861,129.9 L125.5201,129.9 L125.5201,128.617 L127.3531,128.617 L127.3531,126.906 L127.5581,126.906 L127.5581,122.525 L127.3531,122.525 L127.3531,120.174 L127.5631,120.174 C127.5641,117.277 129.7561,114.91 132.5391,114.689 L132.5391,99.439 L133.3771,99.439 L133.3771,114.689 C136.1601,114.91 138.3541,117.277 138.3541,120.174 L138.5641,120.174 L138.5641,122.525 L138.3591,122.525 L138.3591,126.906 L138.5641,126.906 L138.5641,128.617 L140.3971,128.617 L140.3971,129.9 L142.2301,129.9 L142.2301,132.252 L153.5981,132.252 L153.5981,137.381 L159.4341,137.381 L159.4341,69.525 L163.2941,69.525 L163.2941,48.631 L155.5391,48.631 L155.5391,35.147 Z"/>
      <polygon points="512.523 187.18 512.523 8.201 523.221 8.201 523.221 2.349 491.495 2.349 491.495 21.956 485.99 21.956 485.99 14.407 450.529 14.407 450.529 201.408 462.45 201.408 462.45 208.957 497.909 208.957 497.909 189.352 526.956 189.352 526.956 187.18 523.221 187.18"/>
    </g>
    <g fill="currentColor" opacity=".65" transform="translate(110 34.482)">
      <polygon points="1263.612 232.855 1263.612 230.304 1259.147 230.304 1259.147 232.855 1256.809 232.855 1256.809 230.304 1252.557 230.304 1252.557 232.855 1250.432 232.855 1250.432 230.304 1245.542 230.304 1245.542 232.855 1242.778 232.855 1242.778 336.18 1266.377 336.18 1266.377 232.855"/>
      <polygon points="663.133 144.698 646.124 144.698 646.124 150.748 640.384 150.748 640.384 336.18 668.873 336.18 668.873 150.748 663.133 150.748"/>
      <polygon points="1195.01 181.538 1189.783 181.538 1189.783 172.701 1176.477 172.701 1176.477 181.538 1171.248 181.538 1171.248 197.554 1164.597 197.554 1164.597 336.18 1200.532 336.18 1200.532 197.554 1195.01 197.554"/>
      <polygon points="916.319 93.845 913.653 93.845 913.653 90.177 907.987 90.177 907.987 93.845 905.819 93.845 905.819 82.511 897.737 82.511 897.737 75.511 894.903 75.511 894.903 82.511 886.819 82.511 886.819 93.845 884.653 93.845 884.653 90.177 878.987 90.177 878.987 93.845 876.319 93.845 876.319 163.429 863.987 163.429 863.987 266.433 832.121 266.433 832.121 300.384 800.431 300.384 800.431 257.162 763.378 257.162 763.378 343.602 800.431 343.602 800.431 342.073 861.33 342.073 861.33 337.594 890.538 337.594 890.538 336.179 916.319 336.179 928.653 336.179 928.653 163.429 916.319 163.429"/>
      <polygon points="241.602 168.977 233.736 168.977 233.736 172.953 228.421 172.953 228.421 175.188 226.72 175.188 226.72 341.144 243.09 341.144 243.09 336.69 233.427 336.69 233.427 250.342 233.427 243.276 233.427 234.903 243.09 234.903 243.09 175.188 241.602 175.188"/>
      <path d="M155.0249,1.0508 L154.9599,1.0668 C154.0329,-0.9852 143.2359,0.0428 130.5369,3.4188 C118.7099,6.5638 109.3339,10.6548 108.2839,13.0098 L108.1849,13.0358 L108.1849,19.8448 L104.2069,19.3268 L104.2069,31.6798 L100.3459,31.6798 L100.3459,89.2008 L94.2979,89.2008 L94.2979,91.2588 L91.5969,91.2588 L91.5969,167.3098 L72.2939,167.3098 L72.2939,218.5258 L68.4339,218.5258 L68.4339,286.3808 L62.5979,286.3808 L62.5979,281.2518 L51.2309,281.2518 L51.2309,278.9008 L49.3969,278.9008 L49.3969,277.6168 L47.5639,277.6168 L47.5639,275.9058 L47.3589,275.9058 L47.3589,271.5258 L47.5639,271.5258 L47.5639,269.1738 L47.3539,269.1738 C47.3539,266.2778 45.1599,263.9098 42.3779,263.6898 L42.3779,248.4388 L41.5399,248.4388 L41.5399,263.6898 C38.7559,263.9098 36.5639,266.2778 36.5629,269.1738 L36.3529,269.1738 L36.3529,271.5258 L36.5579,271.5258 L36.5579,275.9058 L36.3529,275.9058 L36.3529,277.6168 L34.5199,277.6168 L34.5199,278.9008 L32.6869,278.9008 L32.6869,281.2518 L21.3189,281.2518 L21.3189,286.3808 L6.7049,286.3808 L6.7049,292.1528 L0.4189,292.1528 L0.4189,338.4998 L83.4979,338.4998 L83.4979,337.9408 L100.3459,337.9408 L110.1269,337.9408 L157.4809,337.9408 L157.4809,36.8278 L157.4809,31.6798 L157.4809,26.2758 L155.0249,25.9548 L155.0249,1.0508 Z"/>
      <polygon points="365.586 146.939 353.474 146.939 353.474 153.27 345.51 153.27 345.51 203.614 356.286 203.614 356.286 324.072 345.51 324.072 345.51 333.94 359.529 333.94 359.529 163.406 373.549 163.406 373.549 153.27 365.586 153.27"/>
    </g>
    <g fill="currentColor" opacity=".78" transform="translate(287 .482)">
      <polygon points="410.657 195.313 402.242 195.313 402.242 189.448 402.242 185.879 399.437 185.879 399.437 189.448 394.338 189.448 394.338 185.879 393.317 185.879 393.317 167.263 392.042 167.263 392.042 185.879 388.982 185.879 388.982 161.399 387.962 161.399 387.962 185.879 387.962 187.662 387.962 189.448 381.078 189.448 381.078 185.879 378.272 185.879 378.272 189.448 378.272 195.313 373.428 195.313 373.428 202.453 344.867 202.453 344.867 370.18 449.927 370.18 449.927 202.453 410.657 202.453"/>
      <polygon points="1051.236 222.321 1051.236 212.803 1049.144 212.803 1049.144 210.084 1039.474 210.084 1039.474 212.803 1023.532 212.803 1023.532 222.321 1023.532 226.4 1023.532 370.179 1061.428 370.179 1061.428 222.321"/>
      <polygon points="813.97 225.398 805.459 225.398 805.459 222.367 797.299 222.367 797.299 225.398 788.788 225.398 788.788 228.429 781.444 228.429 781.444 370.661 821.315 370.661 821.315 228.429 813.97 228.429"/>
      <polygon points="548.694 205.749 540.608 205.749 540.608 202.977 529.981 202.977 529.981 205.749 511.268 205.749 511.268 208.001 503.414 208.001 503.414 370.18 571.103 370.18 571.103 208.001 548.694 208.001"/>
      <polygon points="918.762 161.333 915.256 161.333 915.256 166.591 913.253 166.591 913.253 161.333 908.244 161.333 908.244 166.591 906.241 166.591 906.241 161.333 902.485 161.333 902.485 166.591 896.475 166.591 896.475 370.18 924.772 370.18 924.772 166.591 918.762 166.591"/>
      <polygon points="39.342 210.253 37.189 210.253 37.189 204.26 36.424 204.26 35.409 204.26 35.409 200.515 36.424 200.515 36.424 198.454 35.409 198.454 35.409 184.782 31.536 184.782 21.83 171.905 12.125 184.782 8.253 184.782 8.253 198.454 6.942 198.454 6.942 200.515 8.253 200.515 8.253 204.26 6.474 204.26 6.474 210.253 4.32 210.253 4.32 226.267 .552 226.267 .552 372.589 43.111 372.589 43.111 370.18 43.111 226.267 39.342 226.267"/>
      <polygon points="306.632 119.851 298.068 119.851 298.068 70.993 290.79 70.993 290.79 36.316 288.934 36.316 288.934 68.431 286.805 68.431 286.805 65.956 286.729 65.956 286.729 2.362 282.921 2.362 282.921 34.551 281.595 34.551 281.595 65.956 278.596 65.956 278.596 18.544 277.537 18.544 277.537 .519 274.621 .519 274.621 18.544 273.56 18.544 273.56 68.431 272.765 68.431 272.765 51.453 270.645 51.453 270.645 70.993 269.319 70.993 269.319 38.16 267.198 38.16 267.198 70.993 263.786 70.993 263.786 119.851 255.221 119.851 255.221 191.201 244.523 191.201 244.523 370.18 255.221 370.18 306.632 370.18 317.33 370.18 317.33 191.201 306.632 191.201"/>
      <polygon points="152.338 268.902 147.484 268.902 147.484 263.147 145.653 263.147 145.653 257.913 143.559 257.913 143.559 255.297 138.326 255.297 138.326 230.177 136.233 230.177 136.233 255.297 135.579 255.297 135.579 251.895 132.962 251.895 132.962 255.297 128.907 255.297 128.907 257.913 125.505 257.913 125.505 263.147 118.44 263.147 118.44 268.902 66.091 268.902 56.427 268.902 56.427 277.275 56.427 284.341 56.427 370.689 66.091 370.689 166.062 370.689 166.062 352.572 152.338 352.572"/>
    </g>
    <g transform="translate(0 163.482)">
      <mask id="chiskyline-b" fill="#fff">
        <use xlink:href="#chiskyline-a"/>
      </mask>
      <path fill="currentColor" d="M70.7432,194.8975 L71.1382,193.9565 C71.7092,195.5515 73.2312,196.6975 75.0262,196.6975 C77.3002,196.6975 79.1432,194.8605 79.1572,192.5885 C81.7262,193.3025 84.3862,193.8015 87.1182,194.0505 L87.1182,195.5315 C87.1182,195.9255 87.1912,196.2985 87.2952,196.6605 L87.2852,196.6605 L87.2852,206.3455 L70.7432,206.3455 L70.7432,194.8975 Z M53.5502,171.0315 C54.3062,170.2835 54.7742,169.2435 54.7742,168.0945 L54.7742,165.2765 L57.8512,164.0015 C59.4132,167.5225 61.5202,170.7405 64.0572,173.5685 L55.1492,173.5685 C54.5922,172.7395 54.0532,171.8975 53.5502,171.0315 L53.5502,171.0315 Z M50.6432,159.6685 C50.0722,159.6685 49.5292,159.7845 49.0352,159.9925 C48.6662,158.5435 48.3672,157.0635 48.1462,155.5605 C49.7752,155.0055 50.9492,153.4665 50.9492,151.6505 L50.9492,150.0925 L54.7372,150.0925 C54.8412,154.4025 55.6902,158.5255 57.1622,162.3395 L54.7482,163.3395 C54.5192,161.2755 52.7702,159.6685 50.6432,159.6685 L50.6432,159.6685 Z M49.0072,138.5035 C49.5092,138.7195 50.0612,138.8425 50.6432,138.8425 C52.8102,138.8425 54.5842,137.1725 54.7572,135.0505 L57.1622,136.0475 C55.6902,139.8605 54.8412,143.9825 54.7372,148.2935 L50.9492,148.2935 L50.9492,147.3515 C50.9492,145.5055 49.7392,143.9435 48.0692,143.4145 C48.2902,141.7445 48.6062,140.1075 49.0072,138.5035 L49.0072,138.5035 Z M56.0762,123.4745 C56.8152,124.1725 57.8102,124.6025 58.9092,124.6025 C60.6612,124.6025 62.1562,123.5095 62.7562,121.9685 L64.7952,124.0085 C61.9242,127.0235 59.5632,130.5275 57.8512,134.3835 L54.7742,133.1105 L54.7742,130.4145 C54.7742,129.2435 54.2852,128.1855 53.5032,127.4355 C54.2932,126.0685 55.1472,124.7435 56.0762,123.4745 L56.0762,123.4745 Z M70.8982,110.6685 C70.9512,112.9035 72.7752,114.7025 75.0262,114.7025 C75.3442,114.7025 75.6502,114.6625 75.9462,114.5935 L76.4432,115.7935 C72.5862,117.5055 69.0832,119.8655 66.0672,122.7355 L63.0402,119.7095 L63.0402,116.1735 C63.0402,116.1155 63.0342,116.0585 63.0312,115.9995 C65.4432,113.9515 68.0782,112.1605 70.8982,110.6685 L70.8982,110.6685 Z M82.9592,131.5235 C81.1772,132.3615 79.5402,133.4595 78.1022,134.7715 L66.9122,123.5815 C69.8182,120.8185 73.1882,118.5475 76.9002,116.8965 L82.9592,131.5235 Z M79.1582,110.5685 L79.1582,107.3275 C81.7222,106.5915 84.3832,106.0815 87.1182,105.8235 L87.1182,106.2935 C87.1182,108.2655 88.5022,109.9115 90.3512,110.3235 L90.3512,112.6775 C86.0422,112.7845 81.9202,113.6305 78.1062,115.1025 L77.5732,113.8185 C78.5362,113.0615 79.1582,111.8895 79.1582,110.5685 L79.1582,110.5685 Z M92.1512,185.7075 C96.4602,185.6025 100.5842,184.7535 104.3982,183.2825 L105.0722,184.9115 C104.0282,185.6625 103.3452,186.8835 103.3452,188.2685 L103.3452,191.0565 C100.7802,191.7935 98.1192,192.3055 95.3842,192.5635 L95.3842,191.2355 C95.3842,189.2595 94.0002,187.6145 92.1512,187.2025 L92.1512,185.7075 Z M92.1512,168.6865 C94.1562,168.5965 96.0802,168.2035 97.8822,167.5525 L103.9412,182.1795 C100.2672,183.5935 96.2992,184.4105 92.1512,184.5135 L92.1512,168.6865 Z M92.1512,153.7175 L97.6382,166.9625 C95.9112,167.5825 94.0692,167.9605 92.1512,168.0475 L92.1512,153.7175 Z M92.1512,130.3375 C94.0692,130.4265 95.9112,130.8025 97.6382,131.4235 L92.1512,144.6685 L92.1512,130.3375 Z M92.1512,113.8735 C96.2982,113.9765 100.2672,114.7935 103.9412,116.2065 L97.8822,130.8345 C96.0802,130.1815 94.1562,129.7895 92.1512,129.6975 L92.1512,113.8735 Z M92.1512,110.3245 C94.0002,109.9145 95.3842,108.2655 95.3842,106.2935 L95.3842,105.8235 C98.1192,106.0815 100.7802,106.5915 103.3452,107.3285 L103.3452,110.5685 C103.3452,111.8895 103.9672,113.0615 104.9302,113.8185 L104.3982,115.1035 C100.5842,113.6305 96.4602,112.7845 92.1512,112.6775 L92.1512,110.3245 Z M115.5922,123.5815 L104.4002,134.7725 C102.9622,133.4595 101.3272,132.3635 99.5452,131.5235 L105.6042,116.8975 C109.3142,118.5485 112.6862,120.8185 115.5922,123.5815 L115.5922,123.5815 Z M106.5572,114.5935 C106.8542,114.6625 107.1612,114.7025 107.4792,114.7025 C109.7272,114.7025 111.5542,112.9055 111.6062,110.6685 C113.9662,111.9185 116.1992,113.3765 118.2792,115.0225 C118.1732,115.3885 118.1122,115.7735 118.1122,116.1735 L118.1122,120.4715 C118.1122,120.6565 118.1292,120.8395 118.1532,121.0185 L116.4352,122.7365 C113.4202,119.8655 109.9172,117.5055 106.0612,115.7935 L106.5572,114.5935 Z M122.2472,124.6025 C123.7412,124.6025 125.0462,123.8065 125.7722,122.6185 C126.9502,124.1475 128.0292,125.7535 128.9982,127.4355 C128.2172,128.1855 127.7282,129.2435 127.7282,130.4145 L127.7282,133.1105 L124.6522,134.3835 C122.9382,130.5275 120.5782,127.0235 117.7082,124.0095 L118.8682,122.8475 C119.6162,123.9095 120.8482,124.6025 122.2472,124.6025 L122.2472,124.6025 Z M131.8612,138.8425 C132.4432,138.8425 132.9942,138.7215 133.4962,138.5035 C133.8972,140.1075 134.2132,141.7445 134.4342,143.4145 C132.7642,143.9435 131.5542,145.5055 131.5542,147.3515 L131.5542,148.2935 L127.7662,148.2935 C127.6602,143.9825 126.8132,139.8615 125.3412,136.0475 L127.7442,135.0515 C127.9192,137.1725 129.6922,138.8425 131.8612,138.8425 L131.8612,138.8425 Z M133.4692,159.9925 C132.9742,159.7845 132.4312,159.6685 131.8612,159.6685 C129.7332,159.6685 127.9852,161.2755 127.7562,163.3395 L125.3412,162.3385 C126.8132,158.5255 127.6602,154.4025 127.7662,150.0925 L131.5542,150.0925 L131.5542,151.6505 C131.5542,153.4665 132.7262,155.0055 134.3562,155.5585 C134.1372,157.0635 133.8382,158.5435 133.4692,159.9925 L133.4692,159.9925 Z M125.7302,175.8225 C124.9962,174.6725 123.7122,173.9065 122.2472,173.9065 C120.8812,173.9065 119.6732,174.5705 118.9212,175.5895 L117.7082,174.3765 C120.5782,171.3615 122.9382,167.8595 124.6522,164.0015 L127.7282,165.2765 L127.7282,168.0945 C127.7282,169.2435 128.1962,170.2835 128.9512,171.0315 C127.9832,172.7025 126.9052,174.3015 125.7302,175.8225 L125.7302,175.8225 Z M120.8462,190.7515 L117.1602,190.7515 L115.2002,187.3515 C115.9102,186.9035 116.6092,186.4405 117.2922,185.9565 L120.8462,190.7515 Z M107.1102,196.6605 L95.2082,196.6605 C95.3112,196.2985 95.3842,195.9255 95.3842,195.5315 L95.3842,194.0505 C98.1172,193.8015 100.7762,193.3025 103.3472,192.5895 C103.3592,194.7345 105.0102,196.4715 107.1102,196.6605 L107.1102,196.6605 Z M99.9162,166.6685 L106.0482,181.2805 C105.8992,181.3475 105.7532,181.4225 105.6042,181.4895 L99.5442,166.8605 C99.6712,166.8015 99.7912,166.7315 99.9162,166.6685 L99.9162,166.6685 Z M97.1442,160.0605 L99.6702,166.0805 C99.5462,166.1425 99.4272,166.2125 99.3012,166.2725 L95.6622,157.4905 L97.1442,160.0605 Z M108.9202,140.9005 C108.0812,139.1185 106.9852,137.4815 105.6742,136.0435 L116.8642,124.8535 C119.6252,127.7585 121.8962,131.1305 123.5482,134.8395 L108.9202,140.9005 Z M110.7452,148.2935 C110.6552,146.2895 110.2622,144.3645 109.6112,142.5615 L124.2372,136.5035 C125.6512,140.1765 126.4672,144.1445 126.5712,148.2935 L110.7452,148.2935 Z M109.6112,155.8235 C110.2622,154.0225 110.6552,152.0975 110.7452,150.0925 L126.5712,150.0925 C126.4672,154.2405 125.6512,158.2095 124.2372,161.8805 L109.6112,155.8235 Z M105.6742,162.3425 C106.9852,160.9035 108.0812,159.2685 108.9202,157.4855 L123.5482,163.5435 C121.8962,167.2555 119.6252,170.6265 116.8642,173.5325 L105.6742,162.3425 Z M110.9372,179.9575 C111.3682,179.6805 111.7932,179.3945 112.2122,179.1015 L116.4082,184.7615 C115.7702,185.2145 115.1212,185.6485 114.4592,186.0665 L110.9372,179.9575 Z M114.8202,190.7515 L114.8202,196.6605 L114.6822,196.6605 L111.6272,189.3785 C112.2502,189.0605 112.8672,188.7305 113.4742,188.3845 L114.8382,190.7515 L114.8202,190.7515 Z M111.3662,193.9535 L112.5022,196.6605 L107.9452,196.6605 C109.5312,196.4805 110.8462,195.4105 111.3662,193.9535 L111.3662,193.9535 Z M106.5092,182.3805 L107.2502,184.1465 C107.0742,184.1565 106.9002,184.1755 106.7302,184.2065 L106.0612,182.5935 C106.2122,182.5275 106.3592,182.4525 106.5092,182.3805 L106.5092,182.3805 Z M108.6182,179.9635 C108.3652,180.1065 108.1102,180.2465 107.8522,180.3815 L105.1592,173.9605 L108.6182,179.9635 Z M112.7342,187.0995 C112.3512,187.3165 111.9602,187.5215 111.5712,187.7265 C111.4092,186.4925 110.7042,185.4305 109.7012,184.7875 L108.3172,181.4865 C108.6172,181.3285 108.9182,181.1665 109.2162,180.9985 L112.7342,187.0995 Z M111.5012,178.1405 C111.1192,178.4085 110.7322,178.6685 110.3402,178.9215 L104.2472,168.3525 L111.5012,178.1405 Z M104.4002,163.6145 L115.5922,174.8055 C114.8012,175.5555 113.9732,176.2675 113.1182,176.9435 L103.6872,164.2185 C103.9262,164.0185 104.1702,163.8235 104.4002,163.6145 L104.4002,163.6145 Z M103.9492,163.1645 C103.7422,163.3525 103.5222,163.5275 103.3062,163.7065 L99.9162,159.1305 L103.9492,163.1645 Z M108.3302,157.2425 C107.5252,158.9475 106.4762,160.5105 105.2222,161.8895 L96.3862,153.0545 L95.9992,152.1345 L108.3302,157.2425 Z M95.7772,148.2935 L109.0202,142.8065 C109.6412,144.5325 110.0182,146.3765 110.1082,148.2935 L95.7772,148.2935 Z M110.1082,150.0925 C110.0182,152.0105 109.6412,153.8525 109.0202,155.5805 L95.7772,150.0925 L110.1082,150.0925 Z M118.2492,183.3765 C118.1732,183.4365 118.1002,183.5025 118.0242,183.5635 L113.8282,177.9025 C114.7312,177.1905 115.6032,176.4415 116.4352,175.6505 L118.1692,177.3835 C118.1342,177.5975 118.1122,177.8145 118.1122,178.0375 L118.1122,182.3345 C118.1122,182.6945 118.1632,183.0435 118.2492,183.3765 L118.2492,183.3765 Z M93.8142,145.3565 L99.3012,132.1145 C101.0052,132.9185 102.5702,133.9685 103.9492,135.2225 L93.8142,145.3565 Z M105.2222,136.4945 C106.4752,137.8735 107.5252,139.4395 108.3302,141.1445 L95.0872,146.6285 L105.2222,136.4945 Z M82.5862,166.6685 C82.7122,166.7315 82.8322,166.8015 82.9592,166.8605 L76.9002,181.4895 C76.7512,181.4225 76.6052,181.3485 76.4562,181.2805 L82.5862,166.6685 Z M70.7432,187.6255 L70.7432,185.4135 L73.2882,180.9985 C73.5842,181.1665 73.8852,181.3285 74.1872,181.4895 L72.8032,184.7875 C71.8002,185.4305 71.0942,186.4925 70.9322,187.7265 C70.8692,187.6935 70.8062,187.6585 70.7432,187.6255 L70.7432,187.6255 Z M70.7432,189.3065 C70.7882,189.3305 70.8312,189.3555 70.8772,189.3785 L70.7432,189.6985 L70.7432,189.3065 Z M71.0022,178.1425 L78.2572,168.3525 L72.1642,178.9225 C71.7702,178.6685 71.3852,178.4105 71.0022,178.1425 L71.0022,178.1425 Z M70.7432,179.4055 C71.0162,179.5905 71.2882,179.7785 71.5662,179.9575 L70.7432,181.3845 L70.7432,179.4055 Z M78.1022,163.6145 C78.3322,163.8245 78.5762,164.0185 78.8172,164.2185 L70.7432,175.1125 L70.7432,173.5685 L68.1502,173.5685 L78.1022,163.6145 Z M73.5832,157.4855 C74.4212,159.2685 75.5182,160.9035 76.8302,162.3425 L65.6402,173.5325 C62.8782,170.6265 60.6072,167.2555 58.9552,163.5435 L73.5832,157.4855 Z M71.7582,150.0925 C71.8482,152.0975 72.2422,154.0225 72.8922,155.8235 L58.2652,161.8835 C56.8502,158.2095 56.0362,154.2405 55.9312,150.0925 L71.7582,150.0925 Z M72.8922,142.5615 C72.2422,144.3645 71.8482,146.2895 71.7582,148.2935 L55.9312,148.2935 C56.0362,144.1445 56.8502,140.1765 58.2652,136.5025 L72.8922,142.5615 Z M73.5832,140.8985 L58.9552,134.8395 C60.6072,131.1285 62.8782,127.7585 65.6402,124.8535 L76.8302,136.0435 C75.5182,137.4815 74.4212,139.1185 73.5832,140.8985 L73.5832,140.8985 Z M87.4162,146.6285 L74.1732,141.1445 C74.9772,139.4395 76.0272,137.8735 77.2812,136.4945 L87.4162,146.6285 Z M88.6882,145.3565 L78.5542,135.2225 C79.9332,133.9685 81.4992,132.9185 83.2032,132.1145 L88.6882,145.3565 Z M90.3512,130.3375 L90.3512,144.6685 L84.8662,131.4235 C86.5932,130.8025 88.4332,130.4265 90.3512,130.3375 L90.3512,130.3375 Z M84.6202,130.8345 L78.5632,116.2065 C82.2362,114.7935 86.2032,113.9765 90.3512,113.8735 L90.3512,129.6975 C88.3482,129.7895 86.4232,130.1815 84.6202,130.8345 L84.6202,130.8345 Z M84.8652,166.9625 L90.3512,153.7175 L90.3512,168.0475 C88.4332,167.9605 86.5922,167.5825 84.8652,166.9625 L84.8652,166.9625 Z M84.6202,167.5525 C86.4232,168.2035 88.3482,168.5965 90.3512,168.6865 L90.3512,184.5135 C86.2032,184.4105 82.2362,183.5935 78.5612,182.1805 L84.6202,167.5525 Z M85.3592,160.0605 L86.8392,157.4945 L83.2032,166.2725 C83.0772,166.2125 82.9582,166.1425 82.8342,166.0805 L85.3592,160.0605 Z M72.3962,148.2935 C72.4862,146.3765 72.8632,144.5325 73.4832,142.8055 L86.7262,148.2935 L72.3962,148.2935 Z M86.7262,150.0925 L73.4832,155.5805 C72.8632,153.8525 72.4862,152.0105 72.3962,150.0925 L86.7262,150.0925 Z M82.5872,159.1285 L79.1962,163.7065 C78.9812,163.5275 78.7612,163.3525 78.5542,163.1645 L82.5872,159.1285 Z M77.2812,161.8895 C76.0272,160.5135 74.9772,158.9475 74.1732,157.2425 L86.5042,152.1335 L86.1182,153.0555 L77.2812,161.8895 Z M76.4432,182.5935 L75.7742,184.2065 C75.6042,184.1755 75.4302,184.1565 75.2542,184.1465 L75.9932,182.3815 C76.1432,182.4525 76.2902,182.5275 76.4432,182.5935 L76.4432,182.5935 Z M74.6512,180.3815 C74.3942,180.2465 74.1382,180.1065 73.8852,179.9635 L77.3462,173.9605 L74.6512,180.3815 Z M77.4302,184.9115 L78.1062,183.2825 C81.9202,184.7535 86.0422,185.6025 90.3512,185.7075 L90.3512,187.2035 C88.5022,187.6145 87.1182,189.2595 87.1182,191.2355 L87.1182,192.5635 C84.3832,192.3055 81.7222,191.7935 79.1582,191.0585 L79.1582,188.2685 C79.1582,186.8835 78.4752,185.6615 77.4302,184.9115 L77.4302,184.9115 Z M374.7582,196.8445 C385.8902,202.2465 394.6912,205.4065 401.3472,206.3455 L349.9602,206.3455 C356.5992,204.9555 364.8492,201.8545 374.7582,196.8445 L374.7582,196.8445 Z M689.3092,138.4065 L734.1252,138.4065 L734.1252,136.8605 L689.3092,136.8605 L689.3092,138.4065 Z M890.5362,177.5845 L891.8002,177.5845 L891.8002,176.6305 L892.0382,176.8845 C892.0432,177.0215 892.0302,177.1565 892.0202,177.2905 C892.0052,177.4775 892.0452,177.5845 892.0072,177.7645 C891.9562,178.0185 891.7012,178.0815 891.8942,178.5765 C891.9422,178.6945 891.8292,179.0135 891.8672,179.1305 C891.9122,179.2675 892.0522,179.2265 892.1282,179.3415 C892.3262,179.6435 892.5242,179.5975 892.6832,179.9335 C892.7442,180.0585 892.8572,180.1025 892.9152,179.9485 C892.9572,179.8315 892.9542,179.6905 892.9622,179.5585 C892.9952,179.0055 893.4732,178.8605 893.3642,178.5105 C893.3392,178.4255 893.3472,178.3555 893.3662,178.2935 L900.7322,186.1215 L900.3882,186.4445 L895.4502,191.0915 L895.3182,191.2165 L891.3182,186.9685 L891.3182,180.9515 L890.5362,180.9515 L890.5362,177.5845 Z M901.3222,187.4355 L904.5692,190.8855 L902.8542,192.5015 L896.7782,192.5015 L896.3862,192.0845 L901.3222,187.4355 Z M907.2612,181.8475 L910.5092,185.2965 L905.5702,189.9435 L902.3232,186.4935 L907.2612,181.8475 Z M913.1972,176.2565 L916.4462,179.7095 L911.5082,184.3555 L908.2612,180.9035 L913.1972,176.2565 Z M919.1352,170.6685 L922.3832,174.1185 L917.4462,178.7645 L914.1982,175.3155 L919.1352,170.6685 Z M925.0732,165.0775 L928.3202,168.5285 L923.3842,173.1755 L920.1362,169.7265 L925.0732,165.0775 Z M931.0112,159.4885 L934.2582,162.9395 L929.3202,167.5855 L926.0732,164.1355 L931.0112,159.4885 Z M936.9482,153.9005 L940.1952,157.3485 L935.2602,161.9985 L932.0122,158.5465 L936.9482,153.9005 Z M942.8862,148.3105 L946.1332,151.7595 L941.1952,156.4075 L937.9492,152.9565 L942.8862,148.3105 Z M947.1732,152.8645 L942.2362,157.5135 L941.8972,157.1525 L946.8342,152.5025 L947.1732,152.8645 Z M936.2992,163.1015 L935.9602,162.7425 L940.8962,158.0935 L941.2352,158.4555 L936.2992,163.1015 Z M930.3612,168.6905 L930.0212,168.3315 L934.9592,163.6835 L935.2982,164.0435 L930.3612,168.6905 Z M924.4242,174.2815 L924.0842,173.9215 L929.0212,169.2725 L929.3602,169.6345 L924.4242,174.2815 Z M918.4872,179.8715 L918.1462,179.5095 L923.0842,174.8635 L923.4232,175.2235 L918.4872,179.8715 Z M912.5492,185.4595 L912.2092,185.0985 L917.1462,180.4525 L917.4852,180.8115 L912.5492,185.4595 Z M906.6122,191.0475 L906.2712,190.6895 L911.2082,186.0405 L911.5482,186.4025 L906.6122,191.0475 Z M904.3462,192.5015 L905.2702,191.6305 L905.6102,191.9895 L905.0682,192.5015 L904.3462,192.5015 Z M891.3182,192.5015 L891.3182,187.9485 L894.8282,191.6765 L894.4512,192.0325 L893.9552,192.5015 L891.3182,192.5015 Z M999.1512,184.8775 L999.4912,184.5175 L1002.6022,187.4475 L1001.8812,187.4475 L999.1512,184.8775 Z M998.1502,183.9355 L993.2142,179.2895 L993.5532,178.9295 L998.4902,183.5765 L998.1502,183.9355 Z M992.2132,178.3475 L987.2762,173.6985 L987.6152,173.3375 L992.5532,177.9855 L992.2132,178.3475 Z M986.2752,172.7565 L981.3382,168.1105 L981.6782,167.7495 L986.6152,172.3965 L986.2752,172.7565 Z M980.3382,167.1685 L975.4012,162.5185 L975.7392,162.1605 L980.6782,166.8085 L980.3382,167.1685 Z M974.4002,161.5775 L969.4632,156.9305 L969.8022,156.5695 L974.7392,161.2185 L974.4002,161.5775 Z M968.4622,155.9895 L963.5252,151.3415 L963.8642,150.9805 L968.8022,155.6265 L968.4622,155.9895 Z M967.8132,146.7865 L972.7502,151.4335 L969.5032,154.8845 L964.5662,150.2355 L967.8132,146.7865 Z M973.7512,152.3765 L978.6872,157.0225 L975.4392,160.4735 L970.5032,155.8265 L973.7512,152.3765 Z M979.6882,157.9645 L984.6262,162.6135 L981.3782,166.0615 L976.4412,161.4145 L979.6882,157.9645 Z M985.6262,163.5545 L990.5622,168.2025 L987.3142,171.6525 L982.3792,167.0055 L985.6262,163.5545 Z M991.5632,169.1435 L996.5012,173.7935 L993.2522,177.2425 L988.3162,172.5945 L991.5632,169.1435 Z M997.5012,174.7345 L1002.4382,179.3805 L999.1902,182.8315 L994.2542,178.1835 L997.5012,174.7345 Z M1003.4382,180.3235 L1008.3762,184.9695 L1006.0442,187.4475 L1004.0952,187.4475 L1000.1902,183.7725 L1003.4382,180.3235 Z M1009.3762,185.9115 L1011.0072,187.4475 L1007.9302,187.4475 L1009.3762,185.9115 Z M1386.6622,206.3455 L1386.6622,194.7825 L1328.8542,194.7825 L1328.8542,116.5255 L1326.1142,116.5255 L1326.1142,114.6275 L1312.6212,114.6275 L1312.6212,116.5255 L1309.6692,116.5255 L1309.6692,112.0975 L1300.6042,112.0975 L1300.6042,111.0435 L1296.4932,111.0435 L1296.4932,112.0975 L1291.5382,112.0975 L1291.5382,116.5255 L1280.1542,116.5255 L1280.1542,111.0435 L1267.9272,111.0435 L1267.9272,116.5255 L1264.1322,116.5255 L1264.1322,184.5055 L1259.1692,184.5055 L1259.1692,18.9175 L1255.8562,18.9175 L1255.8562,16.7085 L1229.0812,16.7085 L1229.0812,18.9175 L1225.7682,18.9175 L1225.7682,168.0185 L1219.2322,168.0185 L1219.2322,132.6435 L1215.8982,132.6435 L1215.8982,128.5945 L1214.9462,128.5945 L1214.9462,127.7025 L1213.5162,127.7025 L1213.5162,128.5945 L1211.3742,128.5945 L1211.3742,125.7385 L1209.2302,125.7385 L1209.2302,128.5945 L1206.8492,128.5945 L1206.8492,132.6435 L1204.2302,132.6435 L1204.2302,126.6905 L1174.2252,126.6905 L1174.2252,132.6435 L1162.0812,132.6435 L1162.0812,189.1225 L1154.4432,189.1225 L1154.4432,48.7895 L1153.0652,48.7895 L1153.0262,48.7235 L1145.7082,29.0545 L1143.9892,33.6695 L1134.8952,18.5125 L1134.9232,18.5125 L1134.9232,0.0305 L1132.2162,0.0305 L1132.2162,18.5125 L1132.2442,18.5125 L1123.1492,33.6675 L1121.4312,29.0545 L1114.1132,48.7235 L1114.0732,48.7895 L1112.6962,48.7895 L1112.6962,143.9435 L1102.2962,143.9435 L1102.2962,206.3455 L1095.8082,206.3455 L1095.8082,121.2485 L1095.5812,121.2485 L1076.9612,96.4205 L1076.9612,110.3645 L1075.3392,110.3645 L1075.3392,97.0295 L1061.0102,121.2485 L1060.9502,121.2485 L1060.9502,122.8685 L1060.9502,179.0055 L1045.3952,179.0055 L1045.3952,173.7315 L1044.6142,173.7315 L1044.6142,170.3645 L1045.8772,170.3645 L1045.8772,168.8005 L1044.6142,168.8005 L1044.6142,166.2725 L1043.3532,166.2725 L1039.5702,162.8195 C1040.0952,162.6215 1040.4682,162.1185 1040.4682,161.5255 C1040.4682,160.7595 1039.8472,160.1385 1039.0792,160.1385 C1038.3122,160.1385 1037.6902,160.7595 1037.6902,161.5255 C1037.6902,162.0845 1038.0212,162.5605 1038.4952,162.7815 L1034.7852,166.2725 L1033.5452,166.2725 L1033.5452,168.8005 L1032.2812,168.8005 L1032.2812,170.3645 L1033.5452,170.3645 L1033.5452,173.7315 L1032.7632,173.7315 L1032.7632,184.5935 L1021.1042,184.5935 L1021.1042,187.4475 L1018.4182,187.4475 L1021.1042,184.5935 L1023.2372,182.3305 C1023.2552,182.3885 1023.2642,182.4595 1023.2382,182.5435 C1023.1312,182.8935 1023.6082,183.0405 1023.6392,183.5935 C1023.6482,183.7235 1023.6452,183.8675 1023.6882,183.9815 C1023.7452,184.1385 1023.8592,184.0935 1023.9192,183.9665 C1024.0782,183.6315 1024.2762,183.6765 1024.4742,183.3765 C1024.5522,183.2595 1024.6902,183.3015 1024.7362,183.1685 C1024.7752,183.0475 1024.6602,182.7305 1024.7082,182.6105 C1024.9012,182.1145 1024.6472,182.0515 1024.5962,181.8005 C1024.5582,181.6175 1024.5982,181.5135 1024.5822,181.3235 C1024.5722,181.1905 1024.5582,181.0555 1024.5632,180.9185 L1024.9632,180.4965 L1024.7932,180.3345 L1024.7182,180.2645 L1024.4722,180.0355 L1017.4952,187.4475 L1012.9952,187.4475 L1010.3102,184.9185 L1009.9672,184.5975 L1017.3332,176.7715 C1017.3522,176.8315 1017.3602,176.9025 1017.3342,176.9855 C1017.2252,177.3375 1017.7032,177.4815 1017.7362,178.0355 C1017.7442,178.1685 1017.7422,178.3085 1017.7842,178.4255 C1017.8422,178.5805 1017.9552,178.5355 1018.0152,178.4105 C1018.1742,178.0735 1018.3722,178.1215 1018.5712,177.8185 C1018.6472,177.7025 1018.7872,177.7435 1018.8322,177.6065 C1018.8702,177.4895 1018.7562,177.1715 1018.8042,177.0515 C1018.9982,176.5585 1018.7422,176.4965 1018.6922,176.2425 C1018.6542,176.0605 1018.6942,175.9555 1018.6792,175.7675 C1018.6682,175.6315 1018.6552,175.4985 1018.6612,175.3605 L1019.0582,174.9365 L1018.8892,174.7775 L1018.8142,174.7065 L1018.5692,174.4775 L1009.4762,184.1355 L1009.3092,183.9775 L1004.3732,179.3315 L1004.0612,179.0395 L1011.4292,171.2125 C1011.4472,171.2725 1011.4562,171.3435 1011.4302,171.4265 C1011.3222,171.7785 1011.8002,171.9255 1011.8322,172.4775 C1011.8412,172.6095 1011.8382,172.7495 1011.8802,172.8675 C1011.9372,173.0215 1012.0512,172.9775 1012.1102,172.8515 C1012.2692,172.5145 1012.4682,172.5615 1012.6662,172.2595 C1012.7422,172.1435 1012.8832,172.1855 1012.9282,172.0505 C1012.9662,171.9335 1012.8512,171.6135 1012.8992,171.4935 C1013.0932,170.9995 1012.8392,170.9365 1012.7882,170.6855 C1012.7502,170.5015 1012.7902,170.3975 1012.7742,170.2095 C1012.7642,170.0765 1012.7502,169.9405 1012.7562,169.8015 L1013.1542,169.3775 L1012.9842,169.2195 L1012.9092,169.1475 L1012.6652,168.9185 L1003.5722,178.5765 L1003.3722,178.3885 L998.4352,173.7425 L998.1572,173.4805 L1005.5232,165.6565 C1005.5442,165.7165 1005.5522,165.7855 1005.5262,165.8715 C1005.4172,166.2195 1005.8952,166.3675 1005.9282,166.9185 C1005.9362,167.0505 1005.9332,167.1935 1005.9752,167.3085 C1006.0322,167.4625 1006.1452,167.4185 1006.2072,167.2935 C1006.3652,166.9595 1006.5622,167.0025 1006.7632,166.7025 C1006.8392,166.5875 1006.9782,166.6265 1007.0242,166.4925 C1007.0612,166.3745 1006.9472,166.0545 1006.9952,165.9355 C1007.1882,165.4435 1006.9342,165.3775 1006.8842,165.1265 C1006.8462,164.9435 1006.8862,164.8395 1006.8702,164.6525 C1006.8592,164.5175 1006.8472,164.3815 1006.8512,164.2465 L1007.2502,163.8225 L1007.0802,163.6615 L1007.0062,163.5915 L1006.7602,163.3605 L997.6692,173.0185 L997.4342,172.8005 L992.4982,168.1525 L992.2532,167.9215 L999.6212,160.0975 C999.6392,160.1575 999.6472,160.2265 999.6212,160.3115 C999.5142,160.6645 999.9912,160.8085 1000.0222,161.3605 C1000.0322,161.4925 1000.0292,161.6345 1000.0712,161.7495 C1000.1282,161.9065 1000.2432,161.8605 1000.3022,161.7345 C1000.4612,161.4005 1000.6592,161.4445 1000.8582,161.1435 C1000.9342,161.0285 1001.0742,161.0695 1001.1192,160.9335 C1001.1582,160.8155 1001.0432,160.4985 1001.0912,160.3775 C1001.2842,159.8845 1001.0302,159.8195 1000.9792,159.5685 C1000.9422,159.3855 1000.9812,159.2815 1000.9662,159.0915 C1000.9552,158.9595 1000.9422,158.8235 1000.9472,158.6865 L1001.3462,158.2635 L1001.1762,158.1025 L1001.1002,158.0325 L1000.8562,157.8015 L991.7642,167.4625 L991.4972,167.2105 L986.5602,162.5615 L986.3492,162.3645 L993.7162,154.5395 C993.7342,154.5985 993.7432,154.6685 993.7182,154.7525 C993.6082,155.1055 994.0862,155.2515 994.1192,155.8045 C994.1282,155.9335 994.1252,156.0775 994.1682,156.1935 C994.2232,156.3475 994.3382,156.3015 994.3972,156.1765 C994.5562,155.8415 994.7542,155.8885 994.9542,155.5875 C995.0302,155.4695 995.1702,155.5105 995.2152,155.3745 C995.2542,155.2565 995.1392,154.9395 995.1852,154.8195 C995.3802,154.3265 995.1262,154.2635 995.0752,154.0095 C995.0372,153.8275 995.0772,153.7225 995.0612,153.5355 C995.0512,153.4005 995.0382,153.2645 995.0442,153.1275 L995.4422,152.7055 L995.2712,152.5465 L995.1962,152.4765 L994.9522,152.2435 L985.8602,161.9035 L985.5592,161.6215 L980.6232,156.9735 L980.4452,156.8055 L987.8122,148.9815 C987.8302,149.0405 987.8392,149.1105 987.8122,149.1945 C987.7052,149.5475 988.1832,149.6935 988.2152,150.2465 C988.2232,150.3765 988.2212,150.5185 988.2632,150.6345 C988.3202,150.7895 988.4342,150.7465 988.4932,150.6185 C988.6522,150.2855 988.8502,150.3305 989.0502,150.0275 C989.1262,149.9145 989.2662,149.9525 989.3112,149.8185 C989.3492,149.7015 989.2352,149.3815 989.2822,149.2605 C989.4752,148.7675 989.2222,148.7055 989.1712,148.4525 C989.1342,148.2685 989.1732,148.1655 989.1572,147.9765 C989.1472,147.8435 989.1342,147.7095 989.1392,147.5695 L989.5372,147.1475 L989.3682,146.9855 L989.2922,146.9185 L989.0492,146.6855 L979.9552,156.3445 L979.6212,156.0315 L974.6842,151.3845 L974.5412,151.2495 L981.9072,143.4225 C981.9272,143.4845 981.9342,143.5545 981.9092,143.6385 C981.8002,143.9895 982.2782,144.1345 982.3102,144.6895 C982.3192,144.8185 982.3162,144.9595 982.3592,145.0775 C982.4162,145.2315 982.5292,145.1865 982.5902,145.0605 C982.7482,144.7265 982.9462,144.7725 983.1452,144.4695 C983.2222,144.3555 983.3612,144.3965 983.4072,144.2605 C983.4452,144.1425 983.3302,143.8235 983.3782,143.7055 C983.5712,143.2095 983.3172,143.1465 983.2662,142.8935 C983.2292,142.7095 983.2692,142.6095 983.2542,142.4185 C983.2432,142.2865 983.2292,142.1505 983.2352,142.0135 L983.6342,141.5895 L983.4632,141.4295 L983.3892,141.3595 L983.1432,141.1275 L974.0512,150.7865 L973.6842,150.4405 L968.7472,145.7935 L967.7462,144.8525 L967.6362,144.7485 L966.7012,145.7395 L966.8112,145.8445 L963.5642,149.2935 L963.4542,149.1905 L962.7532,149.9335 L962.8642,150.0395 L962.5242,150.4005 L962.4142,150.2935 L962.0532,150.6765 L1001.1082,187.4475 L996.4602,187.4475 L996.4602,195.7495 L988.7812,195.7495 L988.7812,206.3455 L909.7092,206.3455 L909.7092,192.5015 L905.8422,192.5015 L948.6452,152.2025 L948.2842,151.8195 L948.1742,151.9225 L947.8352,151.5615 L947.9452,151.4565 L947.2452,150.7145 L947.1352,150.8185 L943.8882,147.3685 L943.9982,147.2645 L943.0632,146.2715 L942.9522,146.3765 L941.9522,147.3185 L937.0142,151.9665 L936.6472,152.3105 L927.5552,142.6525 L927.3102,142.8815 L927.2362,142.9525 L927.0652,143.1135 L927.4642,143.5365 C927.4702,143.6725 927.4562,143.8105 927.4452,143.9435 C927.4302,144.1315 927.4702,144.2345 927.4322,144.4185 C927.3822,144.6685 927.1282,144.7345 927.3212,145.2275 C927.3692,145.3475 927.2542,145.6655 927.2922,145.7855 C927.3372,145.9185 927.4772,145.8775 927.5532,145.9935 C927.7532,146.2965 927.9502,146.2495 928.1092,146.5845 C928.1692,146.7095 928.2822,146.7555 928.3402,146.6015 C928.3822,146.4845 928.3802,146.3415 928.3882,146.2125 C928.4202,145.6575 928.8982,145.5135 928.7892,145.1615 C928.7642,145.0775 928.7712,145.0065 928.7912,144.9475 L936.1582,152.7725 L936.0142,152.9075 L931.0772,157.5545 L930.7442,157.8685 L921.6502,148.2095 L921.4062,148.4405 L921.3322,148.5095 L921.1612,148.6715 L921.5592,149.0935 C921.5652,149.2315 921.5522,149.3675 921.5412,149.4995 C921.5252,149.6895 921.5652,149.7935 921.5272,149.9765 C921.4762,150.2275 921.2232,150.2905 921.4172,150.7855 C921.4642,150.9065 921.3492,151.2235 921.3882,151.3415 C921.4332,151.4765 921.5732,151.4365 921.6492,151.5505 C921.8482,151.8555 922.0462,151.8085 922.2062,152.1425 C922.2642,152.2685 922.3792,152.3115 922.4362,152.1575 C922.4772,152.0435 922.4742,151.9005 922.4842,151.7685 C922.5152,151.2165 922.9942,151.0725 922.8862,150.7185 C922.8602,150.6345 922.8682,150.5645 922.8872,150.5055 L930.2542,158.3305 L930.0762,158.4985 L925.1392,163.1435 L924.8392,163.4265 L915.7472,153.7675 L915.5022,153.9995 L915.4272,154.0695 L915.2582,154.2305 L915.6552,154.6525 C915.6612,154.7895 915.6472,154.9255 915.6382,155.0585 C915.6222,155.2485 915.6622,155.3515 915.6242,155.5355 C915.5732,155.7865 915.3192,155.8485 915.5132,156.3435 C915.5602,156.4625 915.4452,156.7825 915.4832,156.9005 C915.5292,157.0355 915.6682,156.9935 915.7452,157.1105 C915.9442,157.4115 916.1412,157.3645 916.3012,157.7015 C916.3612,157.8275 916.4742,157.8715 916.5312,157.7165 C916.5742,157.6015 916.5712,157.4565 916.5802,157.3275 C916.6122,156.7755 917.0902,156.6275 916.9812,156.2775 C916.9562,156.1935 916.9642,156.1235 916.9822,156.0615 L924.3492,163.8885 L924.1392,164.0875 L919.2022,168.7345 L918.9352,168.9855 L909.8432,159.3265 L909.5982,159.5555 L909.5232,159.6265 L909.3522,159.7865 L909.7522,160.2095 C909.7572,160.3475 909.7442,160.4815 909.7322,160.6145 C909.7172,160.8045 909.7572,160.9105 909.7202,161.0915 C909.6692,161.3435 909.4142,161.4075 909.6072,161.9025 C909.6562,162.0215 909.5412,162.3395 909.5802,162.4565 C909.6252,162.5935 909.7642,162.5515 909.8422,162.6685 C910.0402,162.9685 910.2382,162.9225 910.3972,163.2565 C910.4562,163.3845 910.5702,163.4295 910.6282,163.2755 C910.6702,163.1575 910.6672,163.0145 910.6772,162.8845 C910.7072,162.3315 911.1852,162.1865 911.0782,161.8345 C911.0522,161.7495 911.0602,161.6805 911.0782,161.6215 L918.4452,169.4445 L918.2002,169.6755 L913.2642,174.3235 L913.0312,174.5435 L903.9382,164.8845 L903.6932,165.1145 L903.6192,165.1855 L903.4492,165.3445 L903.8472,165.7685 C903.8512,165.9065 903.8402,166.0405 903.8292,166.1755 C903.8122,166.3635 903.8522,166.4665 903.8152,166.6505 C903.7642,166.9025 903.5112,166.9665 903.7042,167.4595 C903.7522,167.5805 903.6372,167.8975 903.6752,168.0145 C903.7202,168.1525 903.8602,168.1105 903.9362,168.2265 C904.1362,168.5285 904.3342,168.4815 904.4922,168.8155 C904.5532,168.9435 904.6672,168.9855 904.7222,168.8315 C904.7652,168.7165 904.7632,168.5735 904.7702,168.4435 C904.8042,167.8895 905.2812,167.7435 905.1732,167.3935 C905.1462,167.3085 905.1552,167.2395 905.1752,167.1795 L912.5412,175.0025 L912.2632,175.2645 L907.3272,179.9115 L907.1272,180.1015 L898.0342,170.4405 L897.7892,170.6715 L897.7152,170.7435 L897.5442,170.9035 L897.9432,171.3265 C897.9492,171.4645 897.9352,171.5985 897.9252,171.7315 C897.9092,171.9215 897.9492,172.0255 897.9112,172.2095 C897.8602,172.4605 897.6062,172.5225 897.8002,173.0175 C897.8472,173.1355 897.7322,173.4565 897.7712,173.5735 C897.8162,173.7095 897.9572,173.6685 898.0322,173.7825 C898.2312,174.0855 898.4292,174.0395 898.5892,174.3745 C898.6472,174.5015 898.7622,174.5435 898.8192,174.3895 C898.8612,174.2725 898.8592,174.1315 898.8672,174.0015 C898.8992,173.4485 899.3772,173.3015 899.2692,172.9515 C899.2432,172.8675 899.2522,172.7965 899.2702,172.7355 L906.6372,180.5615 L906.3262,180.8555 L901.3892,185.5015 L901.2222,185.6605 L892.1302,176.0015 L891.8852,176.2305 L891.8092,176.3015 L891.8002,176.3105 L891.8002,176.0185 L890.5362,176.0185 L890.5362,173.4925 L889.2762,173.4925 L885.4932,170.0395 C886.0172,169.8395 886.3902,169.3375 886.3902,168.7435 C886.3902,167.9775 885.7692,167.3555 885.0022,167.3555 C884.2362,167.3555 883.6142,167.9775 883.6142,168.7435 C883.6142,169.3015 883.9452,169.7785 884.4182,169.9995 L880.7092,173.4925 L879.4682,173.4925 L879.4682,176.0185 L878.2042,176.0185 L878.2042,177.5845 L879.4682,177.5845 L879.4682,180.9515 L878.6852,180.9515 L878.6852,193.2225 L877.9032,193.2225 L877.9032,194.7865 L879.4682,194.7865 L879.4682,195.7495 L877.1812,195.7495 L869.9832,195.7495 L869.9832,182.1735 L859.5832,182.1735 L859.5832,164.6355 L840.4362,164.6355 L840.4362,159.8775 L840.7602,159.8775 L840.7602,158.9725 L840.7602,158.0025 L840.7602,157.2095 L839.7252,157.2095 L839.7252,158.0025 L839.3482,158.0025 L839.3482,158.9725 L838.6892,158.9725 L838.6892,158.9805 L811.7232,146.3195 L811.7232,145.3115 L810.9102,145.3115 L810.9102,144.5915 L810.0812,144.5915 L810.0812,143.9435 L809.0712,143.9435 L809.0712,144.5915 L808.2422,144.5915 L808.2422,145.3115 L807.4292,145.3115 L807.4292,146.3195 L780.4722,158.9735 L780.4722,158.8275 L779.8122,158.8275 L779.8122,157.8595 L779.4352,157.8595 L779.4352,157.0655 L778.4012,157.0655 L778.4012,157.8595 L778.4012,158.8275 L778.4012,159.7345 L778.7152,159.7345 L778.7152,164.6355 L759.5692,164.6355 L759.5692,197.6185 L739.9552,197.6185 L739.9552,138.4065 L738.1912,138.4065 L738.1912,136.8605 L738.1912,136.0475 L738.1912,135.9665 L689.3092,135.9665 L689.3092,129.3435 L677.3612,129.3435 L677.3612,138.4065 L677.3612,139.1795 L677.3612,174.2515 L670.3972,174.2515 L670.3972,166.0055 L664.7522,166.0055 L664.7522,132.4185 L667.9322,132.4185 L667.9322,128.2785 L664.7522,128.2785 L664.7522,125.6215 L647.3162,125.6215 L647.3162,122.6655 L643.3262,122.6655 L643.3262,117.6425 L636.3822,117.6425 L636.3822,112.6185 L628.1092,112.6185 L628.1092,117.6425 L621.1632,117.6425 L621.1632,122.6655 L617.1742,122.6655 L617.1742,125.6215 L599.7402,125.6215 L599.7402,128.2785 L596.5572,128.2785 L596.5572,132.4185 L599.7402,132.4185 L599.7402,182.9865 L590.5972,182.9865 L590.5972,206.3455 L579.0192,206.3455 L579.0192,109.9365 L576.0442,109.9365 L576.0442,92.2885 L573.9462,92.2885 L573.9462,81.4495 L560.9422,73.6595 L560.9422,72.0455 L559.6332,72.0455 L559.6082,71.7985 L559.2612,71.6255 L559.3662,69.7405 L559.5092,67.7575 L559.7602,67.7575 C559.7602,67.7575 559.8312,65.5275 559.6332,65.4285 C559.4342,65.3295 558.9632,65.2295 558.9632,65.2295 L558.9632,64.9575 L559.0012,64.8225 C559.0972,64.7105 559.1602,64.5395 559.1602,64.3455 C559.1602,64.0085 558.9742,63.7345 558.7442,63.7345 C558.5142,63.7345 558.3272,64.0085 558.3272,64.3455 C558.3272,64.5395 558.3902,64.7105 558.4862,64.8225 L558.5242,64.9575 L558.5242,65.2295 C558.5242,65.2295 558.0542,65.3295 557.8552,65.4285 C557.6572,65.5275 557.7282,67.7575 557.7282,67.7575 L557.9792,67.7575 L558.1222,69.7405 L558.2272,71.6255 L557.8802,71.7985 L557.8552,72.0455 L556.5462,72.0455 L556.5462,73.6595 L543.5412,81.4495 L543.5412,92.2885 L541.4432,92.2885 L541.4432,109.9365 L538.4692,109.9365 L538.4692,168.2605 L523.5422,168.2605 L523.5422,110.9935 L521.0802,110.9935 L521.0802,104.3455 L508.7192,104.3455 L508.7192,110.9935 L506.3662,110.9935 L506.3662,91.2695 L508.2502,91.2695 L508.2502,87.2795 L506.3662,87.2795 L506.3662,80.1875 L503.5962,80.1875 L503.5962,75.7545 L501.3792,75.7545 L501.3792,73.0955 L500.1602,73.0955 L500.1602,69.5495 L497.7222,69.5495 L497.7222,66.6685 L497.7222,63.3435 L496.8362,63.3435 L496.8362,60.4625 L493.8992,60.4625 L493.8992,58.4675 L492.1262,58.4675 L492.1262,54.0355 L490.2432,54.0355 L490.2432,58.4675 L488.4702,58.4675 L488.4702,60.4625 L485.5332,60.4625 L485.5332,63.3435 L484.6462,63.3435 L484.6462,66.6685 L484.6462,69.5495 L482.2082,69.5495 L482.2082,73.0955 L480.9902,73.0955 L480.9902,75.7545 L478.7732,75.7545 L478.7732,80.1875 L476.0032,80.1875 L476.0032,87.2795 L474.1192,87.2795 L474.1192,91.2695 L476.0032,91.2695 L476.0032,110.9935 L473.6522,110.9935 L473.6522,104.3455 L461.2902,104.3455 L461.2902,110.9935 L458.8262,110.9935 L458.8262,192.3415 L422.3602,192.3415 L422.3602,206.3455 L408.6142,206.3455 C414.3812,205.2385 417.2482,201.0245 417.4762,193.6855 C417.9802,177.5335 398.9482,161.5375 374.8772,160.7875 C350.8072,160.0395 329.7372,177.2235 329.2342,193.3765 C329.0232,200.1215 331.4972,204.5785 336.7082,206.3455 L319.9212,206.3455 L319.9212,189.4515 L304.4582,189.4515 L304.4582,185.3145 L268.2112,185.3145 L268.2112,177.0395 L268.0672,177.0395 L253.7862,162.7565 L253.7862,144.5345 L253.2862,144.5345 L253.2862,163.2265 L239.4722,177.0395 L238.8612,177.0395 L238.8612,185.3145 L202.6152,185.3145 L202.6152,189.4515 L187.1512,189.4515 L187.1512,206.3455 L164.4922,206.3455 L164.4922,190.7515 L123.3512,190.7515 L119.0852,184.9945 C119.8422,185.8945 120.9762,186.4685 122.2472,186.4685 C124.5282,186.4685 126.3782,184.6185 126.3782,182.3345 L126.3782,178.0375 C126.3782,177.8375 126.3582,177.6425 126.3312,177.4495 C127.7482,175.6915 129.0342,173.8275 130.1782,171.8695 C130.6922,172.0985 131.2612,172.2305 131.8612,172.2305 C134.1432,172.2305 135.9932,170.3785 135.9932,168.0945 L135.9932,163.8005 C135.9932,162.6475 135.5202,161.6075 134.7612,160.8575 C135.2042,159.1975 135.5692,157.5035 135.8222,155.7755 C138.0402,155.7035 139.8182,153.8855 139.8182,151.6505 L139.8182,147.3515 C139.8182,145.1405 138.0812,143.3415 135.9002,143.2305 C135.6462,141.3205 135.2732,139.4495 134.7892,137.6265 C135.5332,136.8765 135.9932,135.8475 135.9932,134.7095 L135.9932,130.4145 C135.9932,128.1285 134.1432,126.2805 131.8612,126.2805 C131.2812,126.2805 130.7282,126.4015 130.2272,126.6185 C129.0762,124.6315 127.7782,122.7435 126.3452,120.9645 C126.3652,120.8025 126.3782,120.6395 126.3782,120.4715 L126.3782,116.1735 C126.3782,113.8905 124.5282,112.0415 122.2472,112.0415 C120.8992,112.0415 119.7072,112.6885 118.9522,113.6845 C116.6702,111.9015 114.2152,110.3305 111.6112,109.0055 L111.6112,106.2735 C111.6112,103.9895 109.7602,102.1395 107.4792,102.1395 C105.3542,102.1395 103.6072,103.7425 103.3732,105.8055 C100.7952,105.0865 98.1262,104.5845 95.3842,104.3345 L95.3842,101.9975 C95.3842,99.7135 93.5342,97.8635 91.2532,97.8635 C88.9692,97.8635 87.1182,99.7135 87.1182,101.9975 L87.1182,104.3345 C84.3762,104.5845 81.7072,105.0865 79.1292,105.8055 C78.8972,103.7425 77.1492,102.1395 75.0262,102.1395 C72.7432,102.1395 70.8922,103.9895 70.8922,106.2735 L70.8922,109.0055 C67.9382,110.5055 65.1752,112.3245 62.6412,114.4125 C61.9802,113.0115 60.5592,112.0415 58.9092,112.0415 C56.6252,112.0415 54.7742,113.8905 54.7742,116.1735 L54.7742,120.4715 C54.7742,121.1035 54.9202,121.6995 55.1752,122.2355 C54.1272,123.6345 53.1582,125.0975 52.2752,126.6155 C51.7752,126.4015 51.2232,126.2805 50.6432,126.2805 C48.3592,126.2805 46.5092,128.1285 46.5092,130.4145 L46.5092,134.7095 C46.5092,135.8475 46.9702,136.8775 47.7152,137.6265 C47.2302,139.4525 46.8572,141.3225 46.6042,143.2315 C44.4202,143.3425 42.6832,145.1425 42.6832,147.3515 L42.6832,151.6505 C42.6832,153.8855 44.4622,155.7025 46.6812,155.7755 C46.9342,157.5035 47.2982,159.1975 47.7422,160.8575 C46.9812,161.6075 46.5092,162.6475 46.5092,163.8005 L46.5092,168.0945 C46.5092,170.3785 48.3592,172.2305 50.6432,172.2305 C51.2432,172.2305 51.8112,172.0985 52.3252,171.8695 C52.6622,172.4475 53.0242,173.0075 53.3872,173.5685 L39.1662,173.5685 L39.1662,206.3455 L0.0002,206.3455 L0.0002,231.0005 L1417.3172,231.0005 L1417.3172,206.3455 L1386.6622,206.3455 Z" mask="url(#chiskyline-b)"/>
    </g>
  </g>
</svg>
