<svg xmlns="http://www.w3.org/2000/svg" width="108" height="31" viewBox="0 0 108 31">
  <g fill="none">
    <path fill="#1173B6" d="M16.8658271,1.74328257 C15.866018,0.204384853 15.6279682,0 13.5926426,0 L13.5926426,0 L13.5688376,0 L13.5450326,0 L13.5450326,0 C11.509707,0 11.2835597,0.204384853 10.2718481,1.74328257 C9.33155146,3.18599919 0,20.450508 0,20.9314135 C0,21.6287265 0.178537337,22.2899717 0.821271748,23.2277375 C1.47590865,24.1775259 2.60664511,24.706522 3.42791686,23.8649373 C3.98733385,23.2998733 9.97428587,12.8762458 12.8665907,8.93282036 L12.8665907,8.93282036 C13.2117629,8.43989218 13.9259122,8.43989218 14.2829869,8.93282036 L14.2829869,8.93282036 C17.1752918,12.8762458 23.1622438,23.2998733 23.7216608,23.8649373 C24.5429325,24.706522 25.673669,24.1775259 26.3283059,23.2277375 C26.9710403,22.2899717 27.1495776,21.6287265 27.1495776,20.9314135 C27.1376752,20.450508 17.8061237,3.17397655 16.8658271,1.74328257 Z"/>
    <g fill="#585D67" transform="translate(38.088 .24)">
      <polygon points=".095 0 13.89 0 13.89 3.463 4.154 3.463 4.154 9.366 12.379 9.366 12.379 12.84 4.154 12.84 4.154 19.669 14.235 19.669 14.235 23.132 .095 23.132"/>
      <path d="M21.5792127 14.0544643L16.8539246 6.37199837 21.2340406 5.77086645C21.2340406 5.77086645 24.1501504 11.5898235 24.3762977 11.9985932L27.816117 5.77086645 31.9819882 5.77086645 27.2924075 14.0544643C27.1614801 14.2828945 27.1733826 14.5594151 27.30431 14.7758226L32.3747704 22.6506508 27.9351419 23.1315564 24.3882002 16.627309C24.1263454 17.1202371 20.710331 23.1315564 20.710331 23.1315564L16.1635802 23.1315564 21.5673103 14.7998679C21.7101401 14.5714378 21.7220426 14.2828945 21.5792127 14.0544643zM38.742602 24.5382051L38.742602 29.3833283 34.7195607 29.9844603 34.7195607 5.75884381 38.0403552 5.75884381 38.3260149 7.59830749 38.4688448 7.59830749C39.1948966 6.98515293 39.9923634 6.45615684 40.8850501 6.01131922 41.7777367 5.5664816 42.6942284 5.33805147 43.6464275 5.33805147 44.7176516 5.33805147 45.6698507 5.54243632 46.5030249 5.95120603 47.3361992 6.35997573 48.038446 6.96110766 48.621668 7.74257915 49.2048899 8.52405065 49.645282 9.44979381 49.9547468 10.5318313 50.252309 11.6138687 50.4070413 12.8281552 50.4070413 14.1746907 50.4070413 15.6654979 50.204699 16.9879881 49.8000144 18.154184 49.3953298 19.32038 48.8478153 20.2942137 48.1693734 21.0877078 47.4909315 21.881202 46.7053672 22.4823339 45.824583 22.9031262 44.9318964 23.3239186 44.0154047 23.5403261 43.0632056 23.5403261 42.3133488 23.5403261 41.5753944 23.3720091 40.8255376 23.0473979 40.0756808 22.7227866 39.349629 22.2418811 38.6592846 21.6287265L38.742602 24.5382051zM38.742602 18.7432933L38.742602 18.7432933C39.3734339 19.2843121 39.9804609 19.6690365 40.5636829 19.8734213 41.1469048 20.0898288 41.6944193 20.1860099 42.2062264 20.1860099 43.3488653 20.1860099 44.3010644 19.6810591 45.0747262 18.6831801 45.848388 17.6853011 46.2292677 16.194494 46.2292677 14.2107586 46.2292677 12.4674761 45.9317054 11.1089179 45.3484835 10.1471068 44.7652615 9.18529577 43.8249649 8.69236759 42.5156911 8.69236759 41.3016372 8.69236759 40.0399733 9.34159007 38.7306995 10.640035L38.7306995 18.7432933 38.742602 18.7432933 38.742602 18.7432933zM52.8113441 14.463234C52.8113441 13.0205174 53.0374914 11.7461178 53.4778835 10.6039671 53.9182756 9.47383909 54.5253026 8.51202801 55.2751594 7.74257915 56.0369187 6.96110766 56.9058004 6.37199837 57.8818045 5.95120603 58.8578086 5.54243632 59.8933252 5.33805147 60.9645492 5.33805147 62.0357732 5.33805147 63.0712897 5.54243632 64.0591963 5.95120603 65.0471029 6.35997573 65.9159846 6.96110766 66.6658415 7.74257915 67.4156983 8.52405065 68.0108227 9.47383909 68.4631173 10.6039671 68.9154119 11.7340951 69.1415592 13.0205174 69.1415592 14.463234 69.1415592 15.9059507 68.9154119 17.1803503 68.4631173 18.322501 68.0108227 19.452629 67.4037958 20.4144401 66.6658415 21.1838889 65.9159846 21.9653604 65.0471029 22.5544697 64.0591963 22.9512168 63.0712897 23.3479638 62.0357732 23.5523487 60.9645492 23.5523487 59.8933252 23.5523487 58.8697111 23.3479638 57.8818045 22.9512168 56.8938979 22.5544697 56.0369187 21.9653604 55.2751594 21.1838889 54.5134001 20.4024174 53.9182756 19.452629 53.4778835 18.322501 53.0374914 17.1803503 52.8113441 15.9059507 52.8113441 14.463234zM56.9415079 14.463234C56.9415079 16.2065166 57.2985825 17.6011427 58.0127319 18.6591349 58.7268812 19.7051044 59.7147878 20.2341005 60.9764517 20.2341005 62.2381155 20.2341005 63.2260221 19.7051044 63.9520739 18.6591349 64.6781258 17.6131653 65.0352004 16.2185393 65.0352004 14.463234 65.0352004 12.6959062 64.6781258 11.2892575 63.9520739 10.2432879 63.2260221 9.1973184 62.2381155 8.66832231 60.9764517 8.66832231 59.7147878 8.66832231 58.7268812 9.1973184 58.0127319 10.2432879 57.2985825 11.2892575 56.9415079 12.6959062 56.9415079 14.463234z"/>
    </g>
  </g>
</svg>
