<svg xmlns="http://www.w3.org/2000/svg" width="77" height="77" viewBox="0 0 77 77">
  <g fill="none" fill-rule="evenodd">
    <circle cx="38.5" cy="38.5" r="38.5" fill="#ADADAE"/>
    <g transform="translate(8.652 22.494)">
      <path fill="#FEFEFE" d="M52.736097,0.23861945 L6.82251929,0.23861945 C6.28667097,0.23861945 5.84818502,0.680153739 5.84818502,1.22001891 L5.84818502,31.7987744 L53.7101944,31.7987744 L53.7101944,1.22001891 C53.7101944,0.680153739 53.2719453,0.23861945 52.736097,0.23861945"/>
      <polygon fill="#536371" points="7.227 30.359 52.332 30.359 52.332 2.71 7.227 2.71"/>
      <polygon fill="#68798A" points="52.332 2.71 7.227 2.71 34.67 30.359 52.332 30.359"/>
      <path fill="#FEFEFE" d="M2.36891384e-05,32.2726959 C2.36891384e-05,33.5393026 1.02836919,34.5753568 2.28555178,34.5753568 L57.2730171,34.5753568 C58.5297259,34.5753568 59.5585452,33.5393026 59.5585452,32.2726959 L2.36891384e-05,32.2726959 Z"/>
      <path fill="#68798A" d="M29.7792845.927818675C29.4985682.927818675 29.2711524 1.15717784 29.2711524 1.43999845 29.2711524 1.7225804 29.4985682 1.95193956 29.7792845 1.95193956 30.0600007 1.95193956 30.2874165 1.7225804 30.2874165 1.43999845 30.2874165 1.15717784 30.0600007.927818675 29.7792845.927818675M22.6412969 32.2726959C22.6412969 32.5018164 22.8272566 32.6891701 23.0546724 32.6891701L36.5041808 32.6891701C36.7313596 32.6891701 36.9173194 32.5018164 36.9173194 32.2726959L22.6412969 32.2726959z"/>
    </g>
  </g>
</svg>
