<svg xmlns="http://www.w3.org/2000/svg" width="180" height="106" viewBox="0 0 180 106">
  <g fill="none" fill-rule="evenodd">
    <path fill="#395D89" d="M0.54,103.74 C1.332,104.766 2.322,105.216 3.618,105.216 C5.616,105.216 7.254,104.028 7.254,101.526 L7.254,92.994 L6.21,92.994 L6.21,101.526 C6.21,103.146 5.202,104.28 3.564,104.28 C2.43,104.28 1.71,103.668 1.17,102.966 L0.54,103.74 Z M18.972,105 L17.766,102.048 L11.376,102.048 L10.17,105 L9.018,105 L13.932,92.994 L15.21,92.994 L20.124,105 L18.972,105 Z M14.562,94.002 L11.7,101.112 L17.442,101.112 L14.562,94.002 Z M25.578,105 L26.856,105 L31.77,92.994 L30.582,92.994 L26.208,103.848 L21.852,92.994 L20.664,92.994 L25.578,105 Z M42.264,105 L41.058,102.048 L34.668,102.048 L33.462,105 L32.31,105 L37.224,92.994 L38.502,92.994 L43.416,105 L42.264,105 Z M37.854,94.002 L34.992,101.112 L40.734,101.112 L37.854,94.002 Z M44.514,103.308 C45.432,104.424 46.926,105.216 48.906,105.216 C52.146,105.216 53.172,103.362 53.172,101.814 C53.172,99.384 51.048,98.772 49.104,98.214 C47.466,97.782 45.972,97.368 45.972,95.946 C45.972,94.65 47.178,93.732 48.78,93.732 C50.13,93.732 51.354,94.2 52.218,95.244 L52.902,94.488 C51.966,93.426 50.634,92.796 48.834,92.796 C46.656,92.796 44.892,94.038 44.892,96 C44.892,98.214 46.908,98.754 48.798,99.276 C50.49,99.726 52.092,100.194 52.092,101.886 C52.092,102.912 51.39,104.28 48.924,104.28 C47.214,104.28 45.954,103.434 45.18,102.534 L44.514,103.308 Z M61.236,105.216 C63.18,105.216 64.584,104.388 65.646,103.074 L64.782,102.534 C64.026,103.578 62.712,104.28 61.236,104.28 C58.446,104.28 56.268,102.102 56.268,99.006 C56.268,95.874 58.446,93.732 61.236,93.732 C62.712,93.732 64.026,94.434 64.782,95.478 L65.646,94.92 C64.62,93.642 63.18,92.796 61.236,92.796 C57.87,92.796 55.188,95.316 55.188,99.006 C55.188,102.696 57.87,105.216 61.236,105.216 Z M74.772,105 L71.406,100.032 L68.76,100.032 L68.76,105 L67.734,105 L67.734,92.994 L72.216,92.994 C74.286,92.994 75.87,94.308 75.87,96.504 C75.87,98.682 74.322,99.888 72.54,99.96 L76.014,105 L74.772,105 Z M74.79,96.504 C74.79,94.992 73.71,93.93 72.126,93.93 L68.76,93.93 L68.76,99.096 L72.126,99.096 C73.71,99.096 74.79,98.016 74.79,96.504 Z M78.426,105 L79.452,105 L79.452,92.994 L78.426,92.994 L78.426,105 Z M82.44,105 L82.44,92.994 L86.94,92.994 C89.244,92.994 90.558,94.614 90.558,96.504 C90.558,98.394 89.226,100.014 86.94,100.014 L83.466,100.014 L83.466,105 L82.44,105 Z M89.478,96.504 C89.478,94.992 88.416,93.93 86.832,93.93 L83.466,93.93 L83.466,99.078 L86.832,99.078 C88.416,99.078 89.478,98.016 89.478,96.504 Z M95.778,105 L96.822,105 L96.822,93.93 L100.746,93.93 L100.746,92.994 L91.854,92.994 L91.854,93.93 L95.778,93.93 L95.778,105 Z M116.73,105 L117.882,105 L121.302,92.994 L120.15,92.994 L117.252,103.56 L114.318,92.994 L113.382,92.994 L110.43,103.56 L107.532,92.994 L106.38,92.994 L109.818,105 L110.97,105 L113.85,94.686 L116.73,105 Z M123.138,105 L130.752,105 L130.752,104.064 L124.164,104.064 L124.164,99.312 L130.626,99.312 L130.626,98.376 L124.164,98.376 L124.164,93.93 L130.752,93.93 L130.752,92.994 L123.138,92.994 L123.138,105 Z M133.29,105 L133.29,92.994 L138.222,92.994 C140.238,92.994 141.534,94.164 141.534,96.054 C141.534,97.566 140.508,98.592 139.428,98.808 C140.706,99.006 141.768,100.338 141.768,101.76 C141.768,103.758 140.472,105 138.33,105 L133.29,105 Z M134.316,98.376 L138.096,98.376 C139.644,98.376 140.454,97.404 140.454,96.162 C140.454,94.938 139.644,93.93 138.096,93.93 L134.316,93.93 L134.316,98.376 Z M134.316,104.064 L138.168,104.064 C139.752,104.064 140.688,103.146 140.688,101.688 C140.688,100.464 139.842,99.312 138.168,99.312 L134.316,99.312 L134.316,104.064 Z M157.734,105 L156.528,102.048 L150.138,102.048 L148.932,105 L147.78,105 L152.694,92.994 L153.972,92.994 L158.886,105 L157.734,105 Z M153.324,94.002 L150.462,101.112 L156.204,101.112 L153.324,94.002 Z M160.65,105 L160.65,92.994 L165.15,92.994 C167.454,92.994 168.768,94.614 168.768,96.504 C168.768,98.394 167.436,100.014 165.15,100.014 L161.676,100.014 L161.676,105 L160.65,105 Z M167.688,96.504 C167.688,94.992 166.626,93.93 165.042,93.93 L161.676,93.93 L161.676,99.078 L165.042,99.078 C166.626,99.078 167.688,98.016 167.688,96.504 Z M170.928,105 L170.928,92.994 L175.428,92.994 C177.732,92.994 179.046,94.614 179.046,96.504 C179.046,98.394 177.714,100.014 175.428,100.014 L171.954,100.014 L171.954,105 L170.928,105 Z M177.966,96.504 C177.966,94.992 176.904,93.93 175.32,93.93 L171.954,93.93 L171.954,99.078 L175.32,99.078 C176.904,99.078 177.966,98.016 177.966,96.504 Z"/>
    <circle cx="90.5" cy="38.5" r="38.5" fill="#ADADAE"/>
    <path fill="#FEFEFE" d="M113.387782,22.7330015 L67.4742047,22.7330015 C66.9383564,22.7330015 66.4998704,23.1745358 66.4998704,23.7144009 L66.4998704,54.2931565 L114.36188,54.2931565 L114.36188,23.7144009 C114.36188,23.1745358 113.923631,22.7330015 113.387782,22.7330015"/>
    <polygon fill="#536371" points="67.878 52.854 112.984 52.854 112.984 25.205 67.878 25.205"/>
    <polygon fill="#68798A" points="112.984 25.205 67.878 25.205 95.322 52.854 112.984 52.854"/>
    <path fill="#FEFEFE" d="M60.6517091,54.7670779 C60.6517091,56.0336846 61.6800546,57.0697389 62.9372372,57.0697389 L117.924703,57.0697389 C119.181411,57.0697389 120.210231,56.0336846 120.210231,54.7670779 L60.6517091,54.7670779 Z"/>
    <path fill="#68798A" d="M90.4309699 23.4222007C90.1502536 23.4222007 89.9228378 23.6515599 89.9228378 23.9343805 89.9228378 24.2169624 90.1502536 24.4463216 90.4309699 24.4463216 90.7116861 24.4463216 90.9391019 24.2169624 90.9391019 23.9343805 90.9391019 23.6515599 90.7116861 23.4222007 90.4309699 23.4222007M83.2929823 54.7670779C83.2929823 54.9961984 83.478942 55.1835521 83.7063578 55.1835521L97.1558662 55.1835521C97.383045 55.1835521 97.5690048 54.9961984 97.5690048 54.7670779L83.2929823 54.7670779z"/>
  </g>
</svg>
