<svg xmlns="http://www.w3.org/2000/svg" width="89" height="89" viewBox="0 0 89 89">
  <g fill="none" fill-rule="evenodd">
    <circle cx="44.5" cy="44.5" r="44.5" fill="#D8D8D8"/>
    <g transform="translate(31 15)">
      <path fill="#FEFEFE" d="M23.5160513,0.710518293 L4.37697436,0.710518293 C1.96897436,0.710518293 -0.000358974359,2.65946997 -0.000358974359,5.04254832 L-0.000358974359,53.2355831 C-0.000358974359,55.6179509 1.96897436,57.5669026 4.37697436,57.5669026 L23.5160513,57.5669026 C25.9233333,57.5669026 27.8933846,55.6179509 27.8933846,53.2355831 L27.8933846,5.04254832 C27.8933846,2.65946997 25.9233333,0.710518293 23.5160513,0.710518293"/>
      <polygon fill="#536371" points="1.95 50.711 25.942 50.711 25.942 6.908 1.95 6.908"/>
      <polygon fill="#68798A" points="25.942 6.908 1.95 6.908 25.942 30.652"/>
      <path fill="#68798A" d="M16.1654769 4.08548018L11.7271179 4.08548018C11.5311179 4.08548018 11.3702974 4.24392576 11.3702974 4.43789726L11.3702974 4.43860777C11.3702974 4.63257927 11.5311179 4.79102485 11.7271179 4.79102485L16.1654769 4.79102485C16.3614769 4.79102485 16.5222974 4.63257927 16.5222974 4.43860777L16.5222974 4.43789726C16.5222974 4.24392576 16.3614769 4.08548018 16.1654769 4.08548018M13.9463692 52.615798C13.0956 52.615798 12.4056513 53.2978955 12.4056513 54.1398597 12.4056513 54.9811134 13.0956 55.6632109 13.9463692 55.6632109 14.7971385 55.6632109 15.4863692 54.9811134 15.4863692 54.1398597 15.4863692 53.2978955 14.7971385 52.615798 13.9463692 52.615798"/>
    </g>
  </g>
</svg>
