<svg xmlns="http://www.w3.org/2000/svg" width="50" height="45" viewBox="0 0 50 45">
  <g fill="#61DAFB">
    <path d="M49.9326279,22.0849991 C49.9326279,18.800045 45.7961371,15.6869193 39.4541953,13.756377 C40.9177203,7.32797452 40.2672648,2.21355368 37.401195,0.576130411 C36.740576,0.19204347 35.96816,0.0101075511 35.1246005,0.0101075511 L35.1246005,2.26409144 C35.5921154,2.26409144 35.96816,2.3550594 36.2832245,2.52688777 C37.6654425,3.31527675 38.2650812,6.31721942 37.7975663,10.1783039 C37.6857693,11.1284137 37.5028286,12.1290613 37.2792345,13.1499239 C35.2872144,12.6647615 33.1122536,12.2907821 30.8254957,12.0482009 C29.453441,10.1783039 28.0305695,8.48023535 26.5975346,6.99442534 C29.9107926,3.93183737 33.0207833,2.25398389 35.1347638,2.25398389 L35.1347638,0 C32.3398376,0 28.681025,1.98108001 24.981559,5.41764737 C21.282093,2.00129511 17.6232804,0.0404302043 14.8283542,0.0404302043 L14.8283542,2.29441409 C16.9321714,2.29441409 20.0523254,3.96216002 23.3655835,7.00453289 C21.9427119,8.4903429 20.5198404,10.1783039 19.1681124,12.0482009 C16.8711912,12.2907821 14.6962304,12.6647615 12.7042102,13.1600315 C12.4704528,12.1492764 12.2976755,11.1688439 12.1757151,10.2288417 C11.6980368,6.36775717 12.2875121,3.36581451 13.6595669,2.56731797 C13.9644679,2.38538205 14.3608393,2.30452164 14.8283542,2.30452164 L14.8283542,0.0505377553 C13.9746313,0.0505377553 13.2022153,0.232473675 12.531433,0.616560615 C9.67552652,2.25398389 9.03523432,7.35829718 10.5089227,13.7664846 C4.1873077,15.7071344 0.0711435774,18.8101525 0.0711435774,22.0849991 C0.0711435774,25.3699532 4.20763443,28.4830789 10.5495762,30.4136212 C9.08605116,36.8420236 9.73650673,41.9564445 12.6025766,43.5938678 C13.2631955,43.9779547 14.0356115,44.1598906 14.8893344,44.1598906 C17.6842607,44.1598906 21.3430732,42.1788106 25.0425392,38.7422432 C28.7420053,42.1585955 32.4008178,44.1194604 35.1957441,44.1194604 C36.049467,44.1194604 36.821883,43.9375245 37.4926653,43.5534376 C40.3485717,41.9160143 40.9888639,36.811701 39.5151755,30.4035136 C45.8164638,28.4729714 49.9326279,25.3598456 49.9326279,22.0849991 L49.9326279,22.0849991 Z M36.6999225,15.3432625 C36.3238779,16.6471366 35.856363,17.9914409 35.3278678,19.3357452 C34.9111697,18.5271411 34.4741449,17.718537 33.9964666,16.9099329 C33.5289517,16.1013289 33.0309466,15.3129399 32.5329416,14.544766 C33.9761399,14.7570246 35.3685213,15.0198209 36.6999225,15.3432625 Z M32.0450999,26.1078044 C31.2523572,27.4723238 30.4392877,28.7660903 29.5957282,29.9688889 C28.0813863,30.1002871 26.5467177,30.1710399 25.0018858,30.1710399 C23.4672172,30.1710399 21.9325486,30.1002871 20.4283701,29.9789965 C19.5848105,28.7761979 18.7615777,27.4925389 17.968835,26.1381271 C17.196419,24.8140379 16.4951466,23.4697336 15.8548544,22.1153217 C16.4849832,20.7609099 17.196419,19.4064981 17.9586716,18.0824089 C18.7514143,16.7178895 19.5644838,15.4241229 20.4080433,14.2213244 C21.9223852,14.0899262 23.4570538,14.0191733 25.0018858,14.0191733 C26.5365544,14.0191733 28.071223,14.0899262 29.5754014,14.2112168 C30.418961,15.4140154 31.2421938,16.6976744 32.0349365,18.0520862 C32.8073525,19.3761754 33.5086249,20.7204797 34.1489171,22.0748915 C33.5086249,23.4293034 32.8073525,24.7837152 32.0450999,26.1078044 Z M35.3278678,24.7938228 C35.8766897,26.1482346 36.3442047,27.5026465 36.7304127,28.8166281 C35.3990114,29.1400697 33.9964666,29.4129736 32.543105,29.6252322 C33.04111,28.8469507 33.539115,28.0484542 34.00663,27.2297426 C34.4741449,26.4211385 34.9111697,25.6024269 35.3278678,24.7938228 Z M25.0222125,35.5785798 C24.0770193,34.6082549 23.131826,33.5267469 22.1967961,32.3441634 C23.1114993,32.3845936 24.0465291,32.4149163 24.9917224,32.4149163 C25.947079,32.4149163 26.8922722,32.3947012 27.8171387,32.3441634 C26.9024356,33.5267469 25.9572424,34.6082549 25.0222125,35.5785798 Z M17.4606666,29.6252322 C16.0174683,29.4129736 14.6250868,29.1501773 13.2936856,28.8267356 C13.6697302,27.5228616 14.1372452,26.1785573 14.6657403,24.834253 C15.0824384,25.6428571 15.5194632,26.4514611 15.9971415,27.2600652 C16.4748198,28.0686693 16.9626615,28.8570583 17.4606666,29.6252322 Z M24.9713957,8.59141841 C25.9165889,9.56174331 26.8617821,10.6432513 27.796812,11.8258348 C26.8821089,11.7854045 25.947079,11.7550819 25.0018858,11.7550819 C24.0465291,11.7550819 23.1013359,11.775297 22.1764694,11.8258348 C23.0911725,10.6432513 24.0363658,9.56174331 24.9713957,8.59141841 Z M17.4505032,14.544766 C16.9524981,15.3230474 16.4544931,16.121544 15.9869782,16.9402556 C15.5194632,17.7488597 15.0824384,18.5574638 14.6657403,19.3660678 C14.1169184,18.011656 13.6494035,16.6572442 13.2631955,15.3432625 C14.5945967,15.0299284 15.9971415,14.7570246 17.4505032,14.544766 Z M8.25265497,27.1994199 C4.65482263,25.6731797 2.32741132,23.6718846 2.32741132,22.0849991 C2.32741132,20.4981136 4.65482263,18.4867109 8.25265497,16.9705782 C9.12670464,16.5965989 10.0820612,16.2630497 11.067908,15.9497156 C11.6472199,17.9307956 12.4094726,19.992736 13.3546658,22.1052142 C12.4196359,24.2075848 11.6675467,26.2594177 11.0983981,28.2303901 C10.0922246,27.9170561 9.13686801,27.5733993 8.25265497,27.1994199 Z M13.7205471,41.6431104 C12.338329,40.8547214 11.7386903,37.8527788 12.2062052,33.9916942 C12.3180023,33.0415844 12.5009429,32.0409369 12.724537,31.0200742 C14.7165571,31.5052367 16.8915179,31.8792161 19.1782758,32.1217973 C20.5503305,33.9916942 21.973202,35.6897628 23.4062369,37.1755728 C20.0929789,40.2381608 16.9829883,41.9160143 14.8690077,41.9160143 C14.4116561,41.9059067 14.0254481,41.8149388 13.7205471,41.6431104 L13.7205471,41.6431104 Z M37.8280564,33.9411565 C38.3057347,37.802241 37.7162594,40.8041837 36.3442047,41.6026802 C36.0393036,41.7846161 35.6429323,41.8654765 35.1754173,41.8654765 C33.0716001,41.8654765 29.9514461,40.1977306 26.638188,37.1553577 C28.0610596,35.6695477 29.4839311,33.9815867 30.8356591,32.1116897 C33.1325803,31.8691085 35.3075411,31.4951291 37.2995613,30.9998591 C37.5333187,32.0207218 37.7162594,33.0011542 37.8280564,33.9411565 L37.8280564,33.9411565 Z M41.7409532,27.1994199 C40.8669035,27.5733993 39.9115469,27.9069485 38.9257002,28.2202826 C38.3463882,26.2392026 37.5841356,24.1772622 36.6389423,22.064784 C37.5739722,19.9624134 38.3260615,17.9105805 38.8952101,15.939608 C39.9013835,16.2529421 40.8567401,16.5965989 41.7511165,16.9705782 C45.3489489,18.4968185 47.6763602,20.4981136 47.6763602,22.0849991 C47.6661968,23.6718846 45.3387855,25.6832873 41.7409532,27.1994199 L41.7409532,27.1994199 Z"/>
    <ellipse cx="24.992" cy="22.085" rx="4.645" ry="4.619"/>
  </g>
</svg>
