<svg xmlns="http://www.w3.org/2000/svg" width="77" height="77" viewBox="0 0 77 77">
  <g fill="none" fill-rule="evenodd">
    <circle cx="38.5" cy="38.5" r="38.5" fill="#ADADAE"/>
    <path fill="#FEFEFE" d="M55.6548601,20.2607422 L9.79346242,20.2607422 C9.22570023,20.2607422 8.76115012,20.7248479 8.76115012,21.2920669 L8.76115012,50.389352 C8.76115012,50.9567623 9.22570023,51.420868 9.79346242,51.420868 L55.6548601,51.420868 C56.2228138,51.420868 56.6873639,50.9567623 56.6873639,50.389352 L56.6873639,21.2920669 C56.6873639,20.7248479 56.2228138,20.2607422 55.6548601,20.2607422"/>
    <polygon fill="#536371" points="10.199 49.985 55.25 49.985 55.25 21.697 10.199 21.697"/>
    <polygon fill="#68798A" points="55.25 21.697 10.199 21.697 38.514 49.985 55.25 49.985"/>
    <path fill="#FEFEFE" d="M36.8267553 51.8008378L28.6214906 51.8008378 27.8572617 55.0036646 25.3614059 55.0036646C24.853388 55.0036646 24.4376673 55.4189875 24.4376673 55.9265194L24.4376673 56.8495656 41.0107701 56.8495656 41.0107701 55.9265194C41.0107701 55.4189875 40.5950494 55.0036646 40.0868401 55.0036646L37.5909843 55.0036646 36.8267553 51.8008378zM67.1433539 33.5053844L52.2603664 33.5053844C51.8014743 33.5053844 51.4261465 33.8803531 51.4261465 34.3386031L51.4261465 56.0161031C51.4261465 56.4745562 51.8014743 56.849525 52.2603664 56.849525L67.1433539 56.849525C67.6022461 56.849525 67.9775739 56.4745562 67.9775739 56.0161031L67.9775739 34.3386031C67.9775739 33.8803531 67.6022461 33.5053844 67.1433539 33.5053844"/>
    <polygon fill="#536371" points="52.695 55.136 66.764 55.136 66.764 34.773 52.695 34.773"/>
    <polygon fill="#68798A" points="66.764 34.773 52.695 34.773 66.764 49.863"/>
    <path fill="#68798A" d="M59.7019415,55.5492 C59.4610079,55.5492 59.2656178,55.7442 59.2656178,55.9849031 C59.2656178,56.2254031 59.4610079,56.4206063 59.7019415,56.4206063 C59.9428751,56.4206063 60.1380618,56.2254031 60.1380618,55.9849031 C60.1380618,55.7442 59.9428751,55.5492 59.7019415,55.5492"/>
    <path fill="#FEFEFE" d="M48.2044473,40.5951172 L42.784356,40.5951172 C42.1024224,40.5951172 41.544717,41.1522891 41.544717,41.8335703 L41.544717,55.6111328 C41.544717,56.2922109 42.1024224,56.8493828 42.784356,56.8493828 L48.2044473,56.8493828 C48.8861776,56.8493828 49.4440863,56.2922109 49.4440863,55.6111328 L49.4440863,41.8335703 C49.4440863,41.1522891 48.8861776,40.5951172 48.2044473,40.5951172"/>
    <polygon fill="#536371" points="42.097 54.89 48.891 54.89 48.891 42.367 42.097 42.367"/>
    <polygon fill="#68798A" points="48.891 42.367 42.097 42.367 48.891 49.155"/>
  </g>
</svg>
