<svg xmlns="http://www.w3.org/2000/svg" width="200" height="106" viewBox="0 0 200 106">
  <g fill="none" fill-rule="evenodd">
    <path fill="#395D89" d="M0.545,105 L1.571,105 L1.571,99.312 L8.033,99.312 L8.033,98.376 L1.571,98.376 L1.571,93.93 L8.159,93.93 L8.159,92.994 L0.545,92.994 L0.545,105 Z M10.301,100.392 C10.301,103.344 11.903,105.216 14.981,105.216 C18.077,105.216 19.661,103.362 19.661,100.392 L19.661,92.994 L18.617,92.994 L18.617,100.374 C18.617,102.804 17.357,104.28 14.981,104.28 C12.623,104.28 11.345,102.804 11.345,100.374 L11.345,92.994 L10.301,92.994 L10.301,100.392 Z M22.649,105 L29.489,105 L29.489,104.064 L23.675,104.064 L23.675,92.994 L22.649,92.994 L22.649,105 Z M31.721,105 L38.561,105 L38.561,104.064 L32.747,104.064 L32.747,92.994 L31.721,92.994 L31.721,105 Z M40.127,103.308 C41.045,104.424 42.539,105.216 44.519,105.216 C47.759,105.216 48.785,103.362 48.785,101.814 C48.785,99.384 46.661,98.772 44.717,98.214 C43.079,97.782 41.585,97.368 41.585,95.946 C41.585,94.65 42.791,93.732 44.393,93.732 C45.743,93.732 46.967,94.2 47.831,95.244 L48.515,94.488 C47.579,93.426 46.247,92.796 44.447,92.796 C42.269,92.796 40.505,94.038 40.505,96 C40.505,98.214 42.521,98.754 44.411,99.276 C46.103,99.726 47.705,100.194 47.705,101.886 C47.705,102.912 47.003,104.28 44.537,104.28 C42.827,104.28 41.567,103.434 40.793,102.534 L40.127,103.308 Z M54.311,105 L55.355,105 L55.355,93.93 L59.279,93.93 L59.279,92.994 L50.387,92.994 L50.387,93.93 L54.311,93.93 L54.311,105 Z M70.133,105 L68.927,102.048 L62.537,102.048 L61.331,105 L60.179,105 L65.093,92.994 L66.371,92.994 L71.285,105 L70.133,105 Z M65.723,94.002 L62.861,101.112 L68.603,101.112 L65.723,94.002 Z M78.647,105.216 C80.591,105.216 81.995,104.388 83.057,103.074 L82.193,102.534 C81.437,103.578 80.123,104.28 78.647,104.28 C75.857,104.28 73.679,102.102 73.679,99.006 C73.679,95.874 75.857,93.732 78.647,93.732 C80.123,93.732 81.437,94.434 82.193,95.478 L83.057,94.92 C82.031,93.642 80.591,92.796 78.647,92.796 C75.281,92.796 72.599,95.316 72.599,99.006 C72.599,102.696 75.281,105.216 78.647,105.216 Z M92.453,105 L93.767,105 L88.169,98.718 L93.281,92.994 L91.967,92.994 L86.171,99.564 L86.171,92.994 L85.145,92.994 L85.145,105 L86.171,105 L86.171,100.806 L87.503,99.348 L92.453,105 Z M99.113,103.74 C99.905,104.766 100.895,105.216 102.191,105.216 C104.189,105.216 105.827,104.028 105.827,101.526 L105.827,92.994 L104.783,92.994 L104.783,101.526 C104.783,103.146 103.775,104.28 102.137,104.28 C101.003,104.28 100.283,103.668 99.743,102.966 L99.113,103.74 Z M117.545,105 L116.339,102.048 L109.949,102.048 L108.743,105 L107.591,105 L112.505,92.994 L113.783,92.994 L118.697,105 L117.545,105 Z M113.135,94.002 L110.273,101.112 L116.015,101.112 L113.135,94.002 Z M124.151,105 L125.429,105 L130.343,92.994 L129.155,92.994 L124.781,103.848 L120.425,92.994 L119.237,92.994 L124.151,105 Z M140.837,105 L139.631,102.048 L133.241,102.048 L132.035,105 L130.883,105 L135.797,92.994 L137.075,92.994 L141.989,105 L140.837,105 Z M136.427,94.002 L133.565,101.112 L139.307,101.112 L136.427,94.002 Z M143.087,103.308 C144.005,104.424 145.499,105.216 147.479,105.216 C150.719,105.216 151.745,103.362 151.745,101.814 C151.745,99.384 149.621,98.772 147.677,98.214 C146.039,97.782 144.545,97.368 144.545,95.946 C144.545,94.65 145.751,93.732 147.353,93.732 C148.703,93.732 149.927,94.2 150.791,95.244 L151.475,94.488 C150.539,93.426 149.207,92.796 147.407,92.796 C145.229,92.796 143.465,94.038 143.465,96 C143.465,98.214 145.481,98.754 147.371,99.276 C149.063,99.726 150.665,100.194 150.665,101.886 C150.665,102.912 149.963,104.28 147.497,104.28 C145.787,104.28 144.527,103.434 143.753,102.534 L143.087,103.308 Z M159.809,105.216 C161.753,105.216 163.157,104.388 164.219,103.074 L163.355,102.534 C162.599,103.578 161.285,104.28 159.809,104.28 C157.019,104.28 154.841,102.102 154.841,99.006 C154.841,95.874 157.019,93.732 159.809,93.732 C161.285,93.732 162.599,94.434 163.355,95.478 L164.219,94.92 C163.193,93.642 161.753,92.796 159.809,92.796 C156.443,92.796 153.761,95.316 153.761,99.006 C153.761,102.696 156.443,105.216 159.809,105.216 Z M173.345,105 L169.979,100.032 L167.333,100.032 L167.333,105 L166.307,105 L166.307,92.994 L170.789,92.994 C172.859,92.994 174.443,94.308 174.443,96.504 C174.443,98.682 172.895,99.888 171.113,99.96 L174.587,105 L173.345,105 Z M173.363,96.504 C173.363,94.992 172.283,93.93 170.699,93.93 L167.333,93.93 L167.333,99.096 L170.699,99.096 C172.283,99.096 173.363,98.016 173.363,96.504 Z M176.999,105 L178.025,105 L178.025,92.994 L176.999,92.994 L176.999,105 Z M181.013,105 L181.013,92.994 L185.513,92.994 C187.817,92.994 189.131,94.614 189.131,96.504 C189.131,98.394 187.799,100.014 185.513,100.014 L182.039,100.014 L182.039,105 L181.013,105 Z M188.051,96.504 C188.051,94.992 186.989,93.93 185.405,93.93 L182.039,93.93 L182.039,99.078 L185.405,99.078 C186.989,99.078 188.051,98.016 188.051,96.504 Z M194.351,105 L195.395,105 L195.395,93.93 L199.319,93.93 L199.319,92.994 L190.427,92.994 L190.427,93.93 L194.351,93.93 L194.351,105 Z"/>
    <circle cx="94.5" cy="38.5" r="38.5" fill="#ADADAE"/>
    <path fill="#FEFEFE" d="M111.65486,20.2607422 L65.7934624,20.2607422 C65.2257002,20.2607422 64.7611501,20.7248479 64.7611501,21.2920669 L64.7611501,50.389352 C64.7611501,50.9567623 65.2257002,51.420868 65.7934624,51.420868 L111.65486,51.420868 C112.222814,51.420868 112.687364,50.9567623 112.687364,50.389352 L112.687364,21.2920669 C112.687364,20.7248479 112.222814,20.2607422 111.65486,20.2607422"/>
    <polygon fill="#536371" points="66.199 49.985 111.25 49.985 111.25 21.697 66.199 21.697"/>
    <polygon fill="#68798A" points="111.25 21.697 66.199 21.697 94.514 49.985 111.25 49.985"/>
    <path fill="#FEFEFE" d="M92.8267553 51.8008378L84.6214906 51.8008378 83.8572617 55.0036646 81.3614059 55.0036646C80.853388 55.0036646 80.4376673 55.4189875 80.4376673 55.9265194L80.4376673 56.8495656 97.0107701 56.8495656 97.0107701 55.9265194C97.0107701 55.4189875 96.5950494 55.0036646 96.0868401 55.0036646L93.5909843 55.0036646 92.8267553 51.8008378zM123.143354 33.5053844L108.260366 33.5053844C107.801474 33.5053844 107.426146 33.8803531 107.426146 34.3386031L107.426146 56.0161031C107.426146 56.4745562 107.801474 56.849525 108.260366 56.849525L123.143354 56.849525C123.602246 56.849525 123.977574 56.4745562 123.977574 56.0161031L123.977574 34.3386031C123.977574 33.8803531 123.602246 33.5053844 123.143354 33.5053844"/>
    <polygon fill="#536371" points="108.695 55.136 122.764 55.136 122.764 34.773 108.695 34.773"/>
    <polygon fill="#68798A" points="122.764 34.773 108.695 34.773 122.764 49.863"/>
    <path fill="#68798A" d="M115.701941,55.5492 C115.461008,55.5492 115.265618,55.7442 115.265618,55.9849031 C115.265618,56.2254031 115.461008,56.4206063 115.701941,56.4206063 C115.942875,56.4206063 116.138062,56.2254031 116.138062,55.9849031 C116.138062,55.7442 115.942875,55.5492 115.701941,55.5492"/>
    <path fill="#FEFEFE" d="M104.204447,40.5951172 L98.784356,40.5951172 C98.1024224,40.5951172 97.544717,41.1522891 97.544717,41.8335703 L97.544717,55.6111328 C97.544717,56.2922109 98.1024224,56.8493828 98.784356,56.8493828 L104.204447,56.8493828 C104.886178,56.8493828 105.444086,56.2922109 105.444086,55.6111328 L105.444086,41.8335703 C105.444086,41.1522891 104.886178,40.5951172 104.204447,40.5951172"/>
    <polygon fill="#536371" points="98.097 54.89 104.891 54.89 104.891 42.367 98.097 42.367"/>
    <polygon fill="#68798A" points="104.891 42.367 98.097 42.367 104.891 49.155"/>
  </g>
</svg>
