<svg xmlns="http://www.w3.org/2000/svg" xmlns:xlink="http://www.w3.org/1999/xlink" width="77" height="77" viewBox="0 0 77 77">
  <defs>
    <circle id="responsive-a" cx="38.5" cy="38.5" r="38.5"/>
  </defs>
  <g fill="none" fill-rule="evenodd">
    <mask id="responsive-b" fill="#fff">
      <use xlink:href="#responsive-a"/>
    </mask>
    <use fill="#ADADAE" xlink:href="#responsive-a"/>
    <g mask="url(#responsive-b)">
      <g transform="translate(8 20)">
        <path fill="#FEFEFE" d="M47.6548601,0.260742188 L1.79346242,0.260742188 C1.22570023,0.260742188 0.761150122,0.724847891 0.761150122,1.29206694 L0.761150122,30.389352 C0.761150122,30.9567623 1.22570023,31.420868 1.79346242,31.420868 L47.6548601,31.420868 C48.2228138,31.420868 48.6873639,30.9567623 48.6873639,30.389352 L48.6873639,1.29206694 C48.6873639,0.724847891 48.2228138,0.260742188 47.6548601,0.260742188"/>
        <polygon fill="#536371" points="2.199 29.985 47.25 29.985 47.25 1.697 2.199 1.697"/>
        <polygon fill="#68798A" points="47.25 1.697 2.199 1.697 30.514 29.985 47.25 29.985"/>
        <path fill="#FEFEFE" d="M28.8267553 31.8008378L20.6214906 31.8008378 19.8572617 35.0036646 17.3614059 35.0036646C16.853388 35.0036646 16.4376673 35.4189875 16.4376673 35.9265194L16.4376673 36.8495656 33.0107701 36.8495656 33.0107701 35.9265194C33.0107701 35.4189875 32.5950494 35.0036646 32.0868401 35.0036646L29.5909843 35.0036646 28.8267553 31.8008378zM59.1433539 13.5053844L44.2603664 13.5053844C43.8014743 13.5053844 43.4261465 13.8803531 43.4261465 14.3386031L43.4261465 36.0161031C43.4261465 36.4745562 43.8014743 36.849525 44.2603664 36.849525L59.1433539 36.849525C59.6022461 36.849525 59.9775739 36.4745562 59.9775739 36.0161031L59.9775739 14.3386031C59.9775739 13.8803531 59.6022461 13.5053844 59.1433539 13.5053844"/>
        <polygon fill="#536371" points="44.695 35.136 58.764 35.136 58.764 14.773 44.695 14.773"/>
        <polygon fill="#68798A" points="58.764 14.773 44.695 14.773 58.764 29.863"/>
        <path fill="#68798A" d="M51.7019415,35.5492 C51.4610079,35.5492 51.2656178,35.7442 51.2656178,35.9849031 C51.2656178,36.2254031 51.4610079,36.4206063 51.7019415,36.4206063 C51.9428751,36.4206063 52.1380618,36.2254031 52.1380618,35.9849031 C52.1380618,35.7442 51.9428751,35.5492 51.7019415,35.5492"/>
        <path fill="#FEFEFE" d="M40.2044473,20.5951172 L34.784356,20.5951172 C34.1024224,20.5951172 33.544717,21.1522891 33.544717,21.8335703 L33.544717,35.6111328 C33.544717,36.2922109 34.1024224,36.8493828 34.784356,36.8493828 L40.2044473,36.8493828 C40.8861776,36.8493828 41.4440863,36.2922109 41.4440863,35.6111328 L41.4440863,21.8335703 C41.4440863,21.1522891 40.8861776,20.5951172 40.2044473,20.5951172"/>
        <polygon fill="#536371" points="34.097 34.89 40.891 34.89 40.891 22.367 34.097 22.367"/>
        <polygon fill="#68798A" points="40.891 22.367 34.097 22.367 40.891 29.155"/>
      </g>
    </g>
  </g>
</svg>
